{"glyphs":{"0":{"ha":785,"x_min":71,"x_max":714,"o":"m 115 486 q 134 663 115 579 q 189 809 153 746 q 276 908 225 872 q 392 943 328 943 q 509 908 458 943 q 596 809 560 872 q 650 663 632 746 q 668 486 668 579 q 650 310 668 393 q 596 163 632 226 q 509 65 560 100 q 392 29 458 29 q 276 65 328 29 q 189 163 225 100 q 134 310 153 226 q 115 486 115 393 m 71 486 q 110 233 71 346 q 221 53 149 119 q 392 -14 293 -14 q 564 53 492 -14 q 675 233 636 119 q 714 486 714 346 q 675 740 714 626 q 564 919 636 853 q 392 986 492 986 q 221 919 293 986 q 110 740 149 853 q 71 486 71 626 z "},"1":{"ha":586,"x_min":126,"x_max":400,"o":"m 126 871 l 356 926 l 356 0 l 400 0 l 400 981 l 126 918 l 126 871 z "},"2":{"ha":736,"x_min":33,"x_max":679,"o":"m 33 0 l 679 0 l 679 43 l 129 43 l 518 447 q 612 569 572 503 q 651 717 651 635 q 635 808 651 761 q 586 896 619 856 q 500 962 553 936 q 375 988 447 988 q 217 944 285 988 q 114 822 150 900 q 78 639 78 743 l 122 639 q 153 799 122 731 q 240 906 183 868 q 375 944 297 944 q 480 924 436 944 q 551 869 524 903 q 592 794 579 835 q 604 715 604 754 q 588 621 604 663 q 543 543 571 579 q 482 472 515 507 l 33 0 z "},"3":{"ha":764,"x_min":89,"x_max":681,"o":"m 346 496 q 496 526 426 496 q 609 610 565 556 q 653 738 653 665 q 623 859 653 803 q 535 951 593 915 q 393 986 476 986 q 255 953 314 986 q 163 864 196 921 q 131 731 131 807 l 172 731 q 233 884 172 824 q 394 944 293 944 q 512 915 464 944 q 584 838 560 886 q 608 735 608 790 q 585 649 608 688 q 524 583 563 610 q 440 541 486 556 q 346 526 393 526 l 346 496 m 388 -14 q 541 19 475 -14 q 644 110 607 51 q 681 247 681 169 q 651 366 681 315 q 573 450 622 417 q 465 500 524 483 q 346 517 406 517 l 346 486 q 444 472 393 486 q 538 428 494 457 q 609 354 582 399 q 636 251 636 310 q 606 135 636 186 q 519 57 575 85 q 388 29 464 29 q 251 58 308 29 q 163 140 193 88 q 133 257 133 192 l 89 257 q 109 151 89 200 q 168 65 129 101 q 262 7 207 28 q 388 -14 317 -14 z "},"4":{"ha":781,"x_min":33,"x_max":733,"o":"m 33 194 l 733 194 l 733 235 l 564 235 l 554 235 l 108 235 l 536 863 l 536 221 l 536 211 l 536 0 l 582 0 l 582 972 l 567 972 l 33 194 z "},"5":{"ha":776,"x_min":67,"x_max":710,"o":"m 693 319 q 656 481 693 411 q 555 589 618 550 q 413 628 492 628 q 278 599 336 628 q 188 532 219 571 l 286 932 l 710 932 l 710 972 l 251 972 l 124 454 q 206 528 164 499 q 295 573 247 558 q 399 588 343 588 q 524 553 468 588 q 614 458 581 518 q 647 319 647 399 q 612 161 647 226 q 514 63 576 96 q 372 29 451 29 q 255 52 307 29 q 166 117 203 75 q 104 215 129 160 l 67 190 q 134 83 93 129 q 234 12 175 38 q 372 -14 293 -14 q 498 7 440 -14 q 599 69 556 28 q 668 174 643 111 q 693 319 693 236 z "},"6":{"ha":761,"x_min":69,"x_max":692,"o":"m 113 310 q 146 443 113 381 q 242 543 179 506 q 392 581 304 581 q 519 544 461 581 q 613 447 578 508 q 649 310 649 386 q 615 165 649 228 q 521 65 581 101 q 381 28 461 28 q 241 65 301 28 q 147 165 181 101 q 113 310 113 228 m 458 972 l 142 525 q 92 428 114 486 q 69 310 69 369 q 108 141 69 214 q 217 27 147 68 q 381 -14 288 -14 q 544 27 475 -14 q 653 141 614 68 q 692 310 692 214 q 669 428 692 374 q 608 526 647 483 q 516 592 568 568 q 404 615 464 615 q 279 591 335 615 q 185 518 224 567 l 188 515 l 514 972 l 458 972 z "},"7":{"ha":719,"x_min":47,"x_max":707,"o":"m 47 929 l 640 929 l 161 0 l 208 0 l 707 972 l 47 972 l 47 929 z "},"8":{"ha":729,"x_min":86,"x_max":643,"o":"m 117 747 q 137 650 117 694 q 192 574 157 606 q 271 524 226 542 q 364 506 315 506 q 458 524 414 506 q 538 574 503 542 q 592 650 572 606 q 613 747 613 694 q 581 867 613 813 q 492 953 549 921 q 364 986 436 986 q 237 953 293 986 q 149 867 181 921 q 117 747 117 813 m 158 743 q 185 844 158 799 q 259 918 213 890 q 364 946 306 946 q 471 918 425 946 q 543 844 517 890 q 569 743 569 799 q 538 636 569 683 q 459 562 507 589 q 364 535 411 535 q 270 562 318 535 q 190 636 222 589 q 158 743 158 683 m 86 258 q 105 152 86 201 q 160 65 124 103 q 247 7 196 28 q 364 -14 299 -14 q 481 7 429 -14 q 568 65 532 28 q 624 152 604 103 q 643 258 643 201 q 620 368 643 319 q 558 451 597 417 q 469 505 519 486 q 364 524 419 524 q 260 505 311 524 q 171 451 210 486 q 109 368 132 417 q 86 258 86 319 m 129 263 q 163 383 129 331 q 251 465 197 435 q 364 494 306 494 q 476 465 422 494 q 565 383 531 435 q 600 263 600 331 q 570 140 600 193 q 488 56 540 86 q 364 26 436 26 q 241 56 294 26 q 158 140 188 86 q 129 263 129 193 z "},"9":{"ha":761,"x_min":69,"x_max":692,"o":"m 649 663 q 615 530 649 592 q 519 430 582 468 q 369 392 457 392 q 242 428 300 392 q 148 525 183 464 q 113 663 113 586 q 147 808 113 744 q 241 908 181 872 q 381 944 301 944 q 521 908 461 944 q 615 808 581 872 q 649 663 649 744 m 303 0 l 618 447 q 669 544 646 486 q 692 663 692 603 q 653 831 692 758 q 544 945 614 904 q 381 986 475 986 q 217 945 288 986 q 108 831 147 904 q 69 663 69 758 q 92 544 69 599 q 153 447 114 489 q 245 381 193 404 q 357 357 297 357 q 482 381 426 357 q 576 454 538 406 l 574 457 l 247 0 l 303 0 z "}," ":{"ha":417,"x_min":0,"x_max":0,"o":""}," ":{"ha":417,"x_min":0,"x_max":0,"o":""},"A":{"ha":858,"x_min":17,"x_max":842,"o":"m 186 353 l 674 353 l 661 394 l 199 394 l 186 353 m 429 896 l 640 376 l 644 365 l 790 0 l 842 0 l 429 1001 l 17 0 l 67 0 l 215 368 l 219 379 l 429 896 z "},"À":{"ha":858,"x_min":17,"x_max":842,"o":"m 185 353 l 674 353 l 661 394 l 197 394 l 185 353 m 429 896 l 640 376 l 644 365 l 790 0 l 842 0 l 429 1001 l 17 0 l 67 0 l 215 368 l 219 379 l 429 896 m 243 1300 l 486 1085 l 508 1101 l 281 1324 l 243 1300 z "},"Á":{"ha":858,"x_min":17,"x_max":842,"o":"m 185 353 l 674 353 l 661 394 l 197 394 l 185 353 m 429 896 l 640 376 l 644 365 l 790 0 l 842 0 l 429 1001 l 17 0 l 67 0 l 215 368 l 219 379 l 429 896 m 615 1300 l 576 1324 l 349 1101 l 371 1085 l 615 1300 z "},"Â":{"ha":858,"x_min":17,"x_max":842,"o":"m 185 353 l 674 353 l 661 394 l 197 394 l 185 353 m 429 896 l 640 376 l 644 365 l 790 0 l 842 0 l 429 1001 l 17 0 l 67 0 l 215 368 l 219 379 l 429 896 m 429 1239 l 624 1068 l 651 1092 l 429 1286 l 207 1092 l 233 1068 l 429 1239 z "},"Ã":{"ha":858,"x_min":17,"x_max":842,"o":"m 185 353 l 674 353 l 661 394 l 197 394 l 185 353 m 429 896 l 640 376 l 644 365 l 790 0 l 842 0 l 429 1001 l 17 0 l 67 0 l 215 368 l 219 379 l 429 896 m 238 1113 l 269 1096 q 276 1128 269 1113 q 299 1156 282 1144 q 343 1167 315 1167 q 399 1151 375 1167 q 449 1118 422 1135 q 513 1101 475 1101 q 557 1111 536 1101 q 593 1140 578 1121 q 619 1183 608 1158 l 592 1204 q 558 1154 575 1171 q 514 1138 540 1138 q 467 1147 486 1138 q 430 1170 447 1157 q 392 1193 413 1183 q 342 1203 372 1203 q 288 1190 311 1203 q 253 1158 265 1178 q 238 1113 240 1138 z "},"Ä":{"ha":858,"x_min":17,"x_max":842,"o":"m 185 353 l 674 353 l 661 394 l 197 394 l 185 353 m 429 896 l 640 376 l 644 365 l 790 0 l 842 0 l 429 1001 l 17 0 l 67 0 l 215 368 l 219 379 l 429 896 m 535 1138 q 545 1114 535 1124 q 568 1104 556 1104 q 592 1114 582 1104 q 601 1138 601 1124 q 592 1161 601 1151 q 568 1171 582 1171 q 545 1161 556 1171 q 535 1138 535 1151 m 257 1138 q 267 1114 257 1124 q 290 1104 278 1104 q 314 1114 304 1104 q 324 1138 324 1124 q 314 1161 324 1151 q 290 1171 304 1171 q 267 1161 278 1171 q 257 1138 257 1151 z "},"Å":{"ha":858,"x_min":17,"x_max":842,"o":"m 185 353 l 674 353 l 661 394 l 197 394 l 185 353 m 429 896 l 640 376 l 644 365 l 790 0 l 842 0 l 429 1001 l 17 0 l 67 0 l 215 368 l 219 379 l 429 896 m 288 1118 q 331 1017 288 1056 q 429 979 375 979 q 527 1017 483 979 q 571 1118 571 1056 q 527 1219 571 1181 q 429 1257 483 1257 q 331 1219 375 1257 q 288 1118 288 1181 m 318 1118 q 352 1198 318 1168 q 429 1228 386 1228 q 506 1198 472 1228 q 540 1118 540 1168 q 506 1038 540 1068 q 429 1008 472 1008 q 352 1038 386 1008 q 318 1118 318 1068 z "},"Ā":{"ha":858,"x_min":17,"x_max":842,"o":"m 185 353 l 674 353 l 661 394 l 197 394 l 185 353 m 429 896 l 640 376 l 644 365 l 790 0 l 842 0 l 429 1001 l 17 0 l 67 0 l 215 368 l 219 379 l 429 896 m 186 1104 l 672 1104 l 672 1144 l 186 1144 l 186 1104 z "},"Ă":{"ha":858,"x_min":17,"x_max":842,"o":"m 185 353 l 674 353 l 661 394 l 197 394 l 185 353 m 429 896 l 640 376 l 644 365 l 790 0 l 842 0 l 429 1001 l 17 0 l 67 0 l 215 368 l 219 379 l 429 896 m 210 1289 q 234 1197 210 1242 q 308 1123 258 1151 q 429 1094 357 1094 q 551 1123 503 1094 q 624 1197 600 1151 q 649 1289 649 1242 l 610 1289 q 589 1215 610 1251 q 528 1155 568 1179 q 429 1131 489 1131 q 329 1155 369 1131 q 269 1215 289 1179 q 249 1289 249 1251 l 210 1289 z "},"Ą":{"ha":858,"x_min":17,"x_max":897,"o":"m 186 353 l 674 353 l 661 394 l 199 394 l 186 353 m 429 896 l 640 376 l 644 365 l 790 0 l 842 0 l 429 1001 l 17 0 l 67 0 l 215 368 l 219 379 l 429 896 m 876 -222 q 833 -253 861 -240 q 767 -267 804 -267 q 688 -244 721 -267 q 656 -178 656 -222 q 684 -109 656 -142 q 755 -49 713 -76 q 842 0 797 -21 l 818 19 q 722 -35 769 -6 q 644 -103 675 -65 q 614 -186 614 -140 q 631 -249 614 -222 q 683 -291 649 -276 q 765 -306 717 -306 q 846 -288 810 -306 q 897 -250 882 -271 l 876 -222 z "},"B":{"ha":713,"x_min":121,"x_max":633,"o":"m 156 529 l 313 529 q 451 552 390 529 q 547 623 511 575 q 582 744 582 671 q 548 868 582 818 q 452 945 514 918 q 303 972 390 972 l 121 972 l 121 0 l 317 0 q 482 30 411 0 q 593 122 553 60 q 633 279 633 183 q 606 396 633 346 q 532 478 578 446 q 432 527 486 511 q 326 543 378 543 l 156 543 l 156 517 l 317 517 q 415 501 367 517 q 503 455 464 485 q 565 381 542 425 q 589 282 589 338 q 555 147 589 200 q 460 67 521 93 q 317 42 399 42 l 165 42 l 165 931 l 303 931 q 474 881 413 931 q 536 742 536 832 q 504 635 536 676 q 419 576 472 594 q 303 557 365 557 l 156 557 l 156 529 z "},"C":{"ha":951,"x_min":65,"x_max":844,"o":"m 114 486 q 169 721 114 619 q 318 880 224 822 q 532 938 413 938 q 655 924 599 938 q 759 882 711 910 q 844 814 807 854 l 844 874 q 711 956 783 928 q 532 985 639 985 q 345 948 431 985 q 197 844 260 911 q 100 685 135 776 q 65 486 65 594 q 100 287 65 378 q 197 128 135 196 q 345 24 260 61 q 532 -12 431 -12 q 711 16 639 -12 q 844 99 783 44 l 844 160 q 760 91 806 119 q 658 49 714 63 q 532 35 601 35 q 318 93 413 35 q 169 253 224 151 q 114 486 114 356 z "},"Ç":{"ha":951,"x_min":65,"x_max":844,"o":"m 114 486 q 169 721 114 619 q 318 880 224 822 q 532 938 413 938 q 655 924 599 938 q 759 882 711 910 q 844 814 807 854 l 844 874 q 711 956 783 928 q 532 985 639 985 q 345 948 431 985 q 197 844 260 911 q 100 685 135 776 q 65 486 65 594 q 100 287 65 378 q 197 128 135 196 q 345 24 260 61 q 532 -12 431 -12 q 711 16 639 -12 q 844 99 783 44 l 844 160 q 760 91 806 119 q 658 49 714 63 q 532 35 601 35 q 318 93 413 35 q 169 253 224 151 q 114 486 114 356 m 522 24 l 433 -132 q 483 -107 456 -115 q 536 -99 511 -99 q 593 -117 568 -99 q 618 -176 618 -136 q 583 -250 618 -225 q 503 -275 547 -275 q 448 -265 471 -275 q 400 -232 425 -254 l 379 -254 q 436 -295 408 -283 q 503 -307 464 -307 q 575 -292 542 -307 q 630 -247 608 -276 q 651 -176 651 -218 q 635 -119 651 -142 q 597 -85 619 -97 q 550 -74 574 -74 q 512 -79 525 -74 q 478 -97 499 -85 l 558 24 l 522 24 z "},"Ć":{"ha":951,"x_min":65,"x_max":844,"o":"m 114 486 q 169 721 114 619 q 318 880 224 822 q 532 938 413 938 q 655 924 599 938 q 759 882 711 910 q 844 814 807 854 l 844 874 q 711 956 783 928 q 532 985 639 985 q 345 948 431 985 q 197 844 260 911 q 100 685 135 776 q 65 486 65 594 q 100 287 65 378 q 197 128 135 196 q 345 24 260 61 q 532 -12 431 -12 q 711 16 639 -12 q 844 99 783 44 l 844 160 q 760 91 806 119 q 658 49 714 63 q 532 35 601 35 q 318 93 413 35 q 169 253 224 151 q 114 486 114 356 m 718 1283 l 681 1307 l 451 1085 l 474 1068 l 718 1283 z "},"Ĉ":{"ha":951,"x_min":65,"x_max":844,"o":"m 114 486 q 169 721 114 619 q 318 880 224 822 q 532 938 413 938 q 655 924 599 938 q 759 882 711 910 q 844 814 807 854 l 844 874 q 711 956 783 928 q 532 985 639 985 q 345 948 431 985 q 197 844 260 911 q 100 685 135 776 q 65 486 65 594 q 100 287 65 378 q 197 128 135 196 q 345 24 260 61 q 532 -12 431 -12 q 711 16 639 -12 q 844 99 783 44 l 844 160 q 760 91 806 119 q 658 49 714 63 q 532 35 601 35 q 318 93 413 35 q 169 253 224 151 q 114 486 114 356 m 532 1239 l 726 1068 l 754 1090 l 532 1285 l 310 1090 l 338 1068 l 532 1239 z "},"Ċ":{"ha":951,"x_min":65,"x_max":844,"o":"m 114 486 q 169 721 114 619 q 318 880 224 822 q 532 938 413 938 q 655 924 599 938 q 759 882 711 910 q 844 814 807 854 l 844 874 q 711 956 783 928 q 532 985 639 985 q 345 948 431 985 q 197 844 260 911 q 100 685 135 776 q 65 486 65 594 q 100 287 65 378 q 197 128 135 196 q 345 24 260 61 q 532 -12 431 -12 q 711 16 639 -12 q 844 99 783 44 l 844 160 q 760 91 806 119 q 658 49 714 63 q 532 35 601 35 q 318 93 413 35 q 169 253 224 151 q 114 486 114 356 m 499 1111 q 509 1088 499 1097 q 532 1078 519 1078 q 556 1088 546 1078 q 565 1111 565 1097 q 556 1134 565 1125 q 532 1143 546 1143 q 509 1134 519 1143 q 499 1111 499 1125 z "},"Č":{"ha":951,"x_min":65,"x_max":844,"o":"m 114 486 q 169 721 114 619 q 318 880 224 822 q 532 938 413 938 q 655 924 599 938 q 759 882 711 910 q 844 814 807 854 l 844 874 q 711 956 783 928 q 532 985 639 985 q 345 948 431 985 q 197 844 260 911 q 100 685 135 776 q 65 486 65 594 q 100 287 65 378 q 197 128 135 196 q 345 24 260 61 q 532 -12 431 -12 q 711 16 639 -12 q 844 99 783 44 l 844 160 q 760 91 806 119 q 658 49 714 63 q 532 35 601 35 q 318 93 413 35 q 169 253 224 151 q 114 486 114 356 m 532 1124 l 338 1296 l 310 1272 l 532 1078 l 754 1272 l 726 1296 l 532 1124 z "},"D":{"ha":900,"x_min":121,"x_max":835,"o":"m 121 972 l 121 0 l 167 0 l 167 972 l 121 972 m 364 0 q 612 61 506 0 q 776 231 718 122 q 835 486 835 340 q 776 741 835 632 q 612 911 718 850 q 364 972 506 972 l 144 972 l 144 926 l 364 926 q 540 896 461 926 q 674 807 619 865 q 759 667 729 749 q 789 486 789 586 q 759 305 789 386 q 674 165 729 224 q 540 76 619 107 q 364 46 461 46 l 144 46 l 144 0 l 364 0 z "},"Ď":{"ha":900,"x_min":121,"x_max":835,"o":"m 121 972 l 121 0 l 167 0 l 167 972 l 121 972 m 364 0 q 612 61 506 0 q 776 231 718 122 q 835 486 835 340 q 776 741 835 632 q 612 911 718 850 q 364 972 506 972 l 144 972 l 144 926 l 364 926 q 540 896 461 926 q 674 807 619 865 q 759 667 729 749 q 789 486 789 586 q 759 305 789 386 q 674 165 729 224 q 540 76 619 107 q 364 46 461 46 l 144 46 l 144 0 l 364 0 m 447 1143 l 253 1315 l 225 1292 l 447 1097 l 669 1292 l 640 1315 l 447 1143 z "},"E":{"ha":725,"x_min":121,"x_max":618,"o":"m 142 0 l 618 0 l 618 43 l 142 43 l 142 0 m 142 929 l 618 929 l 618 972 l 142 972 l 142 929 m 142 515 l 590 515 l 590 558 l 142 558 l 142 515 m 121 972 l 121 0 l 167 0 l 167 972 l 121 972 z "},"È":{"ha":725,"x_min":121,"x_max":618,"o":"m 142 0 l 618 0 l 618 43 l 142 43 l 142 0 m 142 929 l 618 929 l 618 972 l 142 972 l 142 929 m 142 515 l 590 515 l 590 558 l 142 558 l 142 515 m 121 972 l 121 0 l 167 0 l 167 972 l 121 972 m 163 1283 l 407 1068 l 429 1085 l 201 1307 l 163 1283 z "},"É":{"ha":725,"x_min":121,"x_max":618,"o":"m 142 0 l 618 0 l 618 43 l 142 43 l 142 0 m 142 929 l 618 929 l 618 972 l 142 972 l 142 929 m 142 515 l 590 515 l 590 558 l 142 558 l 142 515 m 121 972 l 121 0 l 167 0 l 167 972 l 121 972 m 575 1283 l 538 1307 l 308 1085 l 331 1068 l 575 1283 z "},"Ê":{"ha":725,"x_min":121,"x_max":618,"o":"m 142 0 l 618 0 l 618 43 l 142 43 l 142 0 m 142 929 l 618 929 l 618 972 l 142 972 l 142 929 m 142 515 l 590 515 l 590 558 l 142 558 l 142 515 m 121 972 l 121 0 l 167 0 l 167 972 l 121 972 m 374 1239 l 568 1068 l 596 1090 l 374 1285 l 151 1090 l 178 1068 l 374 1239 z "},"Ë":{"ha":725,"x_min":121,"x_max":618,"o":"m 142 0 l 618 0 l 618 43 l 142 43 l 142 0 m 142 929 l 618 929 l 618 972 l 142 972 l 142 929 m 142 515 l 590 515 l 590 558 l 142 558 l 142 515 m 121 972 l 121 0 l 167 0 l 167 972 l 121 972 m 479 1128 q 489 1106 479 1115 q 513 1096 499 1096 q 536 1106 526 1096 q 546 1128 546 1115 q 536 1152 546 1143 q 513 1161 526 1161 q 490 1151 500 1161 q 479 1128 479 1142 m 201 1128 q 211 1106 201 1115 q 235 1096 221 1096 q 258 1106 249 1096 q 268 1128 268 1115 q 258 1152 268 1143 q 235 1161 249 1161 q 212 1151 222 1161 q 201 1128 201 1142 z "},"Ē":{"ha":725,"x_min":121,"x_max":632,"o":"m 142 0 l 618 0 l 618 43 l 142 43 l 142 0 m 142 929 l 618 929 l 618 972 l 142 972 l 142 929 m 142 515 l 590 515 l 590 558 l 142 558 l 142 515 m 121 972 l 121 0 l 167 0 l 167 972 l 121 972 m 146 1133 l 632 1133 l 632 1174 l 146 1174 l 146 1133 z "},"Ĕ":{"ha":725,"x_min":121,"x_max":618,"o":"m 142 0 l 618 0 l 618 43 l 142 43 l 142 0 m 142 929 l 618 929 l 618 972 l 142 972 l 142 929 m 142 515 l 590 515 l 590 558 l 142 558 l 142 515 m 121 972 l 121 0 l 167 0 l 167 972 l 121 972 m 160 1263 q 184 1170 160 1215 q 258 1097 208 1125 q 379 1068 307 1068 q 501 1097 453 1068 q 574 1170 550 1125 q 599 1263 599 1215 l 560 1263 q 539 1188 560 1224 q 478 1128 518 1151 q 379 1104 439 1104 q 279 1128 319 1104 q 219 1188 239 1151 q 199 1263 199 1224 l 160 1263 z "},"Ė":{"ha":725,"x_min":121,"x_max":618,"o":"m 142 0 l 618 0 l 618 43 l 142 43 l 142 0 m 142 929 l 618 929 l 618 972 l 142 972 l 142 929 m 142 515 l 590 515 l 590 558 l 142 558 l 142 515 m 121 972 l 121 0 l 167 0 l 167 972 l 121 972 m 336 1100 q 346 1078 336 1088 q 369 1068 356 1068 q 393 1078 383 1068 q 403 1100 403 1088 q 393 1124 403 1115 q 369 1133 383 1133 q 347 1124 357 1133 q 336 1100 336 1114 z "},"Ę":{"ha":725,"x_min":121,"x_max":625,"o":"m 142 0 l 618 0 l 618 43 l 142 43 l 142 0 m 142 929 l 618 929 l 618 972 l 142 972 l 142 929 m 142 515 l 590 515 l 590 558 l 142 558 l 142 515 m 121 972 l 121 0 l 167 0 l 167 972 l 121 972 m 604 -222 q 560 -253 589 -240 q 494 -267 532 -267 q 416 -244 449 -267 q 383 -178 383 -222 q 412 -109 383 -142 q 483 -49 440 -76 q 568 0 525 -21 l 544 19 q 449 -35 496 -6 q 372 -103 403 -65 q 342 -186 342 -140 q 359 -249 342 -222 q 410 -291 376 -276 q 493 -306 444 -306 q 574 -288 538 -306 q 625 -250 610 -271 l 604 -222 z "},"Ě":{"ha":725,"x_min":121,"x_max":618,"o":"m 142 0 l 618 0 l 618 43 l 142 43 l 142 0 m 142 929 l 618 929 l 618 972 l 142 972 l 142 929 m 142 515 l 590 515 l 590 558 l 142 558 l 142 515 m 121 972 l 121 0 l 167 0 l 167 972 l 121 972 m 369 1114 l 175 1286 l 147 1263 l 369 1068 l 592 1263 l 564 1286 l 369 1114 z "},"F":{"ha":646,"x_min":121,"x_max":563,"o":"m 143 929 l 563 929 l 563 972 l 143 972 l 143 929 m 143 504 l 549 504 l 549 547 l 143 547 l 143 504 m 121 972 l 121 0 l 167 0 l 167 972 l 121 972 z "},"G":{"ha":1067,"x_min":65,"x_max":994,"o":"m 578 436 l 946 436 q 912 282 942 354 q 829 153 882 210 q 704 65 776 97 q 543 33 632 33 q 322 92 419 33 q 168 253 224 150 q 113 486 113 356 q 169 721 113 619 q 323 881 225 822 q 543 939 421 939 q 759 884 667 939 q 901 746 851 829 l 935 774 q 836 884 893 838 q 706 958 779 931 q 543 985 633 985 q 354 948 442 985 q 202 844 267 911 q 101 685 138 776 q 65 486 65 594 q 101 287 65 378 q 202 128 138 196 q 354 24 267 61 q 543 -12 442 -12 q 732 27 649 -12 q 874 135 815 67 q 963 292 932 204 q 994 478 994 381 l 578 478 l 578 436 z "},"Ĝ":{"ha":1067,"x_min":65,"x_max":994,"o":"m 578 436 l 946 436 q 912 282 942 354 q 829 153 882 210 q 704 65 776 97 q 543 33 632 33 q 322 92 419 33 q 168 253 224 150 q 113 486 113 356 q 169 721 113 619 q 323 881 225 822 q 543 939 421 939 q 759 884 667 939 q 901 746 851 829 l 935 774 q 836 884 893 838 q 706 958 779 931 q 543 985 633 985 q 354 948 442 985 q 202 844 267 911 q 101 685 138 776 q 65 486 65 594 q 101 287 65 378 q 202 128 138 196 q 354 24 267 61 q 543 -12 442 -12 q 732 27 649 -12 q 874 135 815 67 q 963 292 932 204 q 994 478 994 381 l 578 478 l 578 436 m 543 1239 l 739 1068 l 765 1090 l 543 1285 l 321 1090 l 349 1068 l 543 1239 z "},"Ğ":{"ha":1067,"x_min":65,"x_max":994,"o":"m 578 436 l 946 436 q 912 282 942 354 q 829 153 882 210 q 704 65 776 97 q 543 33 632 33 q 322 92 419 33 q 168 253 224 150 q 113 486 113 356 q 169 721 113 619 q 323 881 225 822 q 543 939 421 939 q 759 884 667 939 q 901 746 851 829 l 935 774 q 836 884 893 838 q 706 958 779 931 q 543 985 633 985 q 354 948 442 985 q 201 844 267 911 q 101 685 136 776 q 65 486 65 594 q 101 287 65 378 q 201 128 136 196 q 354 24 267 61 q 543 -12 442 -12 q 732 27 649 -12 q 874 135 815 67 q 963 292 932 204 q 994 478 994 381 l 578 478 l 578 436 m 324 1263 q 348 1170 324 1215 q 422 1097 372 1125 q 543 1068 471 1068 q 665 1097 617 1068 q 738 1170 714 1125 q 763 1263 763 1215 l 725 1263 q 704 1188 725 1224 q 643 1128 683 1151 q 543 1104 603 1104 q 444 1128 485 1104 q 383 1188 404 1151 q 363 1263 363 1224 l 324 1263 z "},"Ġ":{"ha":1067,"x_min":65,"x_max":994,"o":"m 578 436 l 946 436 q 912 282 942 354 q 829 153 882 210 q 704 65 776 97 q 543 33 632 33 q 322 92 419 33 q 168 253 224 150 q 113 486 113 356 q 169 721 113 619 q 323 881 225 822 q 543 939 421 939 q 759 884 667 939 q 901 746 851 829 l 935 774 q 836 884 893 838 q 706 958 779 931 q 543 985 633 985 q 354 948 442 985 q 202 844 267 911 q 101 685 138 776 q 65 486 65 594 q 101 287 65 378 q 202 128 138 196 q 354 24 267 61 q 543 -12 442 -12 q 732 27 649 -12 q 874 135 815 67 q 963 292 932 204 q 994 478 994 381 l 578 478 l 578 436 m 511 1100 q 521 1078 511 1088 q 543 1068 531 1068 q 567 1078 558 1068 q 576 1100 576 1088 q 567 1124 576 1115 q 543 1133 558 1133 q 521 1124 531 1133 q 511 1100 511 1115 z "},"Ģ":{"ha":1067,"x_min":65,"x_max":994,"o":"m 578 436 l 946 436 q 912 282 942 354 q 829 153 882 210 q 704 65 776 97 q 543 33 632 33 q 322 92 419 33 q 168 253 224 150 q 113 486 113 356 q 169 721 113 619 q 323 881 225 822 q 543 939 421 939 q 759 884 667 939 q 901 746 851 829 l 935 774 q 836 884 893 838 q 706 958 779 931 q 543 985 633 985 q 354 948 442 985 q 202 844 267 911 q 101 685 138 776 q 65 486 65 594 q 101 287 65 378 q 202 128 138 196 q 354 24 267 61 q 543 -12 442 -12 q 732 27 649 -12 q 874 135 815 67 q 963 292 932 204 q 994 478 994 381 l 578 478 l 578 436 m 592 -96 l 453 -449 l 482 -460 l 635 -112 l 592 -96 z "},"H":{"ha":926,"x_min":121,"x_max":806,"o":"m 143 508 l 790 508 l 790 551 l 143 551 l 143 508 m 760 972 l 760 0 l 806 0 l 806 972 l 760 972 m 121 972 l 121 0 l 167 0 l 167 972 l 121 972 z "},"Ĥ":{"ha":926,"x_min":121,"x_max":806,"o":"m 143 508 l 790 508 l 790 551 l 143 551 l 143 508 m 760 972 l 760 0 l 806 0 l 806 972 l 760 972 m 121 972 l 121 0 l 167 0 l 167 972 l 121 972 m 464 1239 l 658 1068 l 686 1090 l 464 1285 l 242 1090 l 268 1068 l 464 1239 z "},"I":{"ha":276,"x_min":117,"x_max":161,"o":"m 117 972 l 117 0 l 161 0 l 161 972 l 117 972 z "},"Ì":{"ha":276,"x_min":-68,"x_max":199,"o":"m 117 972 l 117 0 l 161 0 l 161 972 l 117 972 m -68 1283 l 176 1068 l 199 1085 l -29 1307 l -68 1283 z "},"Í":{"ha":276,"x_min":78,"x_max":344,"o":"m 117 972 l 117 0 l 161 0 l 161 972 l 117 972 m 344 1283 l 306 1307 l 78 1085 l 100 1068 l 344 1283 z "},"Î":{"ha":276,"x_min":-85,"x_max":360,"o":"m 117 972 l 117 0 l 161 0 l 161 972 l 117 972 m 138 1239 l 333 1068 l 360 1090 l 138 1285 l -85 1090 l -57 1068 l 138 1239 z "},"Ï":{"ha":276,"x_min":-4,"x_max":281,"o":"m 117 972 l 117 0 l 161 0 l 161 972 l 117 972 m 215 1121 q 225 1097 215 1107 q 247 1088 235 1088 q 271 1097 261 1088 q 281 1121 281 1107 q 271 1144 281 1135 q 247 1154 261 1154 q 225 1144 235 1154 q 215 1121 215 1135 m -4 1121 q 6 1097 -4 1107 q 29 1088 15 1088 q 53 1097 43 1088 q 63 1121 63 1107 q 53 1144 63 1135 q 29 1154 43 1154 q 6 1144 15 1154 q -4 1121 -4 1135 z "},"Ĩ":{"ha":276,"x_min":-42,"x_max":339,"o":"m 117 972 l 117 0 l 161 0 l 161 972 l 117 972 m -42 1144 l -11 1128 q -5 1160 -11 1144 q 18 1188 1 1176 q 63 1199 35 1199 q 117 1183 94 1199 q 167 1150 140 1167 q 231 1133 193 1133 q 276 1143 256 1133 q 313 1172 297 1153 q 339 1215 328 1190 l 311 1236 q 278 1186 294 1203 q 233 1169 261 1169 q 186 1179 206 1169 q 150 1202 167 1189 q 113 1225 133 1215 q 61 1235 92 1235 q 8 1222 31 1235 q -28 1190 -15 1210 q -42 1144 -40 1169 z "},"Ī":{"ha":276,"x_min":-72,"x_max":414,"o":"m 117 972 l 117 0 l 161 0 l 161 972 l 117 972 m -72 1133 l 414 1133 l 414 1174 l -72 1174 l -72 1133 z "},"Ĭ":{"ha":276,"x_min":-83,"x_max":356,"o":"m 117 972 l 117 0 l 161 0 l 161 972 l 117 972 m -83 1264 q -59 1172 -83 1217 q 15 1098 -35 1126 q 136 1069 64 1069 q 258 1098 210 1069 q 331 1172 307 1126 q 356 1264 356 1217 l 317 1264 q 297 1190 317 1226 q 236 1130 276 1154 q 136 1106 196 1106 q 37 1130 76 1106 q -24 1190 -3 1154 q -44 1264 -44 1226 l -83 1264 z "},"Į":{"ha":276,"x_min":-67,"x_max":217,"o":"m 117 972 l 117 0 l 161 0 l 161 972 l 117 972 m 196 -222 q 152 -253 181 -240 q 86 -267 124 -267 q 8 -244 40 -267 q -25 -178 -25 -222 q 3 -109 -25 -142 q 74 -49 32 -76 q 161 0 117 -21 l 138 19 q 42 -35 89 -6 q -36 -103 -6 -65 q -67 -186 -67 -140 q -49 -249 -67 -222 q 2 -291 -32 -276 q 85 -306 36 -306 q 165 -288 129 -306 q 217 -250 201 -271 l 196 -222 z "},"İ":{"ha":276,"x_min":104,"x_max":171,"o":"m 117 972 l 117 0 l 161 0 l 161 972 l 117 972 m 104 1107 q 115 1084 104 1093 q 139 1075 125 1075 q 162 1084 153 1075 q 171 1107 171 1093 q 162 1131 171 1122 q 139 1140 153 1140 q 115 1131 125 1140 q 104 1107 104 1121 z "},"J":{"ha":292,"x_min":-176,"x_max":171,"o":"m -151 -197 l -176 -231 q -141 -262 -165 -244 q -83 -293 -117 -281 q -12 -306 -49 -306 q 71 -292 36 -306 q 128 -251 106 -279 q 160 -182 150 -224 q 171 -83 171 -140 l 171 972 l 126 972 l 126 -69 q 95 -219 126 -175 q -11 -262 64 -262 q -92 -242 -56 -262 q -151 -197 -129 -222 z "},"Ĵ":{"ha":292,"x_min":-176,"x_max":371,"o":"m -151 -197 l -176 -231 q -141 -262 -165 -244 q -83 -293 -117 -281 q -12 -306 -49 -306 q 71 -292 36 -306 q 128 -251 106 -279 q 160 -182 150 -224 q 171 -83 171 -140 l 171 972 l 126 972 l 126 -69 q 95 -219 126 -175 q -11 -262 64 -262 q -92 -242 -56 -262 q -151 -197 -129 -222 m 149 1239 l 343 1068 l 371 1090 l 149 1285 l -74 1090 l -47 1068 l 149 1239 z "},"K":{"ha":676,"x_min":117,"x_max":658,"o":"m 117 972 l 117 0 l 161 0 l 161 972 l 117 972 m 579 972 l 149 515 l 600 0 l 658 0 l 206 517 l 638 972 l 579 972 z "},"Ķ":{"ha":676,"x_min":117,"x_max":658,"o":"m 117 972 l 117 0 l 161 0 l 161 972 l 117 972 m 579 972 l 149 515 l 600 0 l 658 0 l 206 517 l 638 972 l 579 972 m 435 -83 l 296 -437 l 326 -447 l 479 -100 l 435 -83 z "},"L":{"ha":606,"x_min":121,"x_max":582,"o":"m 121 972 l 121 0 l 582 0 l 582 43 l 165 43 l 165 972 l 121 972 z "},"Ĺ":{"ha":606,"x_min":121,"x_max":582,"o":"m 121 972 l 121 0 l 582 0 l 582 43 l 165 43 l 165 972 l 121 972 m 576 1283 l 539 1307 l 311 1085 l 333 1068 l 576 1283 z "},"Ļ":{"ha":606,"x_min":121,"x_max":582,"o":"m 121 972 l 121 0 l 582 0 l 582 43 l 165 43 l 165 972 l 121 972 m 360 -83 l 221 -437 l 250 -447 l 403 -100 l 360 -83 z "},"Ľ":{"ha":606,"x_min":121,"x_max":582,"o":"m 121 972 l 121 0 l 582 0 l 582 43 l 165 43 l 165 972 l 121 972 m 472 985 l 333 631 l 363 619 l 515 967 l 472 985 z "},"M":{"ha":1144,"x_min":75,"x_max":1069,"o":"m 211 856 l 572 129 l 933 856 l 1024 0 l 1069 0 l 961 1001 l 572 221 l 183 1001 l 75 0 l 121 0 l 211 856 z "},"N":{"ha":1028,"x_min":121,"x_max":907,"o":"m 861 972 l 861 90 l 121 1001 l 121 0 l 167 0 l 167 878 l 907 -29 l 907 972 l 861 972 z "},"Ñ":{"ha":968,"x_min":82,"x_max":867,"o":"m 822 972 l 822 90 l 82 1001 l 82 0 l 128 0 l 128 878 l 867 -29 l 867 972 l 822 972 m 289 1065 l 319 1049 q 326 1081 319 1065 q 349 1108 332 1097 q 393 1119 365 1119 q 448 1103 425 1119 q 497 1071 471 1088 q 561 1054 524 1054 q 607 1064 586 1054 q 643 1092 628 1074 q 669 1136 658 1111 l 642 1157 q 608 1107 625 1124 q 564 1090 592 1090 q 517 1100 536 1090 q 481 1123 497 1110 q 443 1146 464 1136 q 392 1156 422 1156 q 338 1142 361 1156 q 303 1109 315 1129 q 289 1065 290 1089 z "},"Ń":{"ha":968,"x_min":82,"x_max":867,"o":"m 822 972 l 822 90 l 82 1001 l 82 0 l 128 0 l 128 878 l 867 -29 l 867 972 l 822 972 m 696 1264 l 657 1288 l 429 1065 l 451 1049 l 696 1264 z "},"Ņ":{"ha":968,"x_min":82,"x_max":867,"o":"m 499 -58 l 360 -412 l 389 -422 l 542 -75 l 499 -58 m 822 972 l 822 90 l 82 1001 l 82 0 l 128 0 l 128 878 l 867 -29 l 867 972 l 822 972 z "},"Ň":{"ha":968,"x_min":82,"x_max":867,"o":"m 497 1121 l 303 1293 l 275 1269 l 497 1075 l 719 1269 l 690 1293 l 497 1121 m 822 972 l 822 90 l 82 1001 l 82 0 l 128 0 l 128 878 l 867 -29 l 867 972 l 822 972 z "},"O":{"ha":1082,"x_min":65,"x_max":1017,"o":"m 113 486 q 167 719 113 618 q 319 880 222 821 q 540 939 417 939 q 763 880 667 939 q 914 719 860 821 q 968 486 968 618 q 914 253 968 356 q 763 92 860 151 q 540 33 667 33 q 319 92 417 33 q 167 253 222 151 q 113 486 113 356 m 65 486 q 101 288 65 379 q 200 129 136 196 q 351 25 264 63 q 540 -12 438 -12 q 731 25 644 -12 q 881 129 817 63 q 981 288 946 196 q 1017 486 1017 379 q 981 685 1017 594 q 881 843 946 776 q 731 947 817 910 q 540 985 644 985 q 351 947 438 985 q 200 843 264 910 q 101 685 136 776 q 65 486 65 594 z "},"Ò":{"ha":1082,"x_min":65,"x_max":1017,"o":"m 113 486 q 167 719 113 618 q 319 880 222 821 q 540 939 417 939 q 763 880 667 939 q 914 719 860 821 q 968 486 968 618 q 914 253 968 356 q 763 92 860 151 q 540 33 667 33 q 319 92 417 33 q 167 253 222 151 q 113 486 113 356 m 65 486 q 101 288 65 379 q 200 129 136 196 q 351 25 264 63 q 540 -12 438 -12 q 731 25 644 -12 q 881 129 817 63 q 981 288 946 196 q 1017 486 1017 379 q 981 685 1017 594 q 881 843 946 776 q 731 947 817 910 q 540 985 644 985 q 351 947 438 985 q 200 843 264 910 q 101 685 136 776 q 65 486 65 594 m 360 1283 l 601 1068 l 626 1085 l 397 1307 l 360 1283 z "},"Ó":{"ha":1082,"x_min":65,"x_max":1017,"o":"m 113 486 q 167 719 113 618 q 319 880 222 821 q 540 939 417 939 q 763 880 667 939 q 914 719 860 821 q 968 486 968 618 q 914 253 968 356 q 763 92 860 151 q 540 33 667 33 q 319 92 417 33 q 167 253 222 151 q 113 486 113 356 m 65 486 q 101 288 65 379 q 200 129 136 196 q 351 25 264 63 q 540 -12 438 -12 q 731 25 644 -12 q 881 129 817 63 q 981 288 946 196 q 1017 486 1017 379 q 981 685 1017 594 q 881 843 946 776 q 731 947 817 910 q 540 985 644 985 q 351 947 438 985 q 200 843 264 910 q 101 685 136 776 q 65 486 65 594 m 722 1283 l 683 1307 l 456 1085 l 481 1068 l 722 1283 z "},"Ô":{"ha":1082,"x_min":65,"x_max":1017,"o":"m 113 486 q 167 719 113 618 q 319 880 222 821 q 540 939 417 939 q 763 880 667 939 q 914 719 860 821 q 968 486 968 618 q 914 253 968 356 q 763 92 860 151 q 540 33 667 33 q 319 92 417 33 q 167 253 222 151 q 113 486 113 356 m 65 486 q 101 288 65 379 q 200 129 136 196 q 351 25 264 63 q 540 -12 438 -12 q 731 25 644 -12 q 881 129 817 63 q 981 288 946 196 q 1017 486 1017 379 q 981 685 1017 594 q 881 843 946 776 q 731 947 817 910 q 540 985 644 985 q 351 947 438 985 q 200 843 264 910 q 101 685 136 776 q 65 486 65 594 m 540 1239 l 736 1068 l 763 1090 l 540 1285 l 318 1090 l 346 1068 l 540 1239 z "},"Õ":{"ha":1082,"x_min":65,"x_max":1017,"o":"m 113 486 q 167 719 113 618 q 319 880 222 821 q 540 939 417 939 q 763 880 667 939 q 914 719 860 821 q 968 486 968 618 q 914 253 968 356 q 763 92 860 151 q 540 33 667 33 q 319 92 417 33 q 167 253 222 151 q 113 486 113 356 m 65 486 q 101 288 65 379 q 200 129 136 196 q 351 25 264 63 q 540 -12 438 -12 q 731 25 644 -12 q 881 129 817 63 q 981 288 946 196 q 1017 486 1017 379 q 981 685 1017 594 q 881 843 946 776 q 731 947 817 910 q 540 985 644 985 q 351 947 438 985 q 200 843 264 910 q 101 685 136 776 q 65 486 65 594 m 351 1103 l 381 1088 q 388 1119 381 1103 q 411 1147 394 1136 q 456 1158 428 1158 q 510 1142 488 1158 q 559 1110 533 1126 q 622 1093 585 1093 q 668 1103 647 1093 q 704 1131 689 1113 q 731 1175 719 1150 l 704 1194 q 671 1144 688 1161 q 626 1128 654 1128 q 579 1138 599 1128 q 542 1160 560 1147 q 505 1183 525 1174 q 454 1193 485 1193 q 401 1181 424 1193 q 365 1148 378 1168 q 351 1103 353 1128 z "},"Ö":{"ha":1082,"x_min":65,"x_max":1017,"o":"m 113 486 q 167 719 113 618 q 319 880 222 821 q 540 939 417 939 q 763 880 667 939 q 914 719 860 821 q 968 486 968 618 q 914 253 968 356 q 763 92 860 151 q 540 33 667 33 q 319 92 417 33 q 167 253 222 151 q 113 486 113 356 m 65 486 q 101 288 65 379 q 200 129 136 196 q 351 25 264 63 q 540 -12 438 -12 q 731 25 644 -12 q 881 129 817 63 q 981 288 946 196 q 1017 486 1017 379 q 981 685 1017 594 q 881 843 946 776 q 731 947 817 910 q 540 985 644 985 q 351 947 438 985 q 200 843 264 910 q 101 685 136 776 q 65 486 65 594 m 657 1131 q 667 1107 657 1117 q 689 1097 676 1097 q 713 1107 704 1097 q 722 1131 722 1117 q 713 1154 722 1144 q 689 1164 704 1164 q 667 1154 676 1164 q 657 1131 657 1144 m 358 1131 q 369 1107 358 1117 q 392 1097 379 1097 q 416 1107 407 1097 q 425 1131 425 1117 q 416 1154 425 1144 q 392 1164 407 1164 q 369 1154 379 1164 q 358 1131 358 1144 z "},"Ō":{"ha":1082,"x_min":65,"x_max":1017,"o":"m 113 486 q 167 719 113 618 q 319 880 222 821 q 540 939 417 939 q 763 880 667 939 q 914 719 860 821 q 968 486 968 618 q 914 253 968 356 q 763 92 860 151 q 540 33 667 33 q 319 92 417 33 q 167 253 222 151 q 113 486 113 356 m 65 486 q 101 288 65 379 q 200 129 136 196 q 351 25 264 63 q 540 -12 438 -12 q 731 25 644 -12 q 881 129 817 63 q 981 288 946 196 q 1017 486 1017 379 q 981 685 1017 594 q 881 843 946 776 q 731 947 817 910 q 540 985 644 985 q 351 947 438 985 q 200 843 264 910 q 101 685 136 776 q 65 486 65 594 m 297 1088 l 783 1088 l 783 1128 l 297 1128 l 297 1088 z "},"Ŏ":{"ha":1082,"x_min":65,"x_max":1017,"o":"m 113 486 q 167 719 113 618 q 319 880 222 821 q 540 939 417 939 q 763 880 667 939 q 914 719 860 821 q 968 486 968 618 q 914 253 968 356 q 763 92 860 151 q 540 33 667 33 q 319 92 417 33 q 167 253 222 151 q 113 486 113 356 m 65 486 q 101 288 65 379 q 200 129 136 196 q 351 25 264 63 q 540 -12 438 -12 q 731 25 644 -12 q 881 129 817 63 q 981 288 946 196 q 1017 486 1017 379 q 981 685 1017 594 q 881 843 946 776 q 731 947 817 910 q 540 985 644 985 q 351 947 438 985 q 200 843 264 910 q 101 685 136 776 q 65 486 65 594 m 321 1263 q 345 1170 321 1215 q 419 1097 369 1125 q 540 1068 468 1068 q 663 1097 614 1068 q 735 1170 711 1125 q 760 1263 760 1215 l 721 1263 q 701 1188 721 1224 q 640 1128 681 1151 q 540 1104 600 1104 q 442 1128 482 1104 q 381 1188 401 1151 q 360 1263 360 1224 l 321 1263 z "},"Ő":{"ha":1082,"x_min":65,"x_max":1017,"o":"m 461 1068 l 624 1347 l 581 1361 l 435 1078 l 461 1068 m 626 1068 l 789 1347 l 744 1361 l 600 1078 l 626 1068 m 113 486 q 167 719 113 618 q 319 880 222 821 q 540 939 417 939 q 763 880 667 939 q 914 719 860 821 q 968 486 968 618 q 914 253 968 356 q 763 92 860 151 q 540 33 667 33 q 319 92 417 33 q 167 253 222 151 q 113 486 113 356 m 65 486 q 101 288 65 379 q 200 129 136 196 q 351 25 264 63 q 540 -12 438 -12 q 731 25 644 -12 q 881 129 817 63 q 981 288 946 196 q 1017 486 1017 379 q 981 685 1017 594 q 881 843 946 776 q 731 947 817 910 q 540 985 644 985 q 351 947 438 985 q 200 843 264 910 q 101 685 136 776 q 65 486 65 594 z "},"P":{"ha":694,"x_min":121,"x_max":629,"o":"m 121 972 l 121 0 l 167 0 l 167 972 l 121 972 m 147 929 l 321 929 q 510 867 438 929 q 583 688 583 804 q 510 508 583 571 q 321 444 438 444 l 147 444 l 147 403 l 321 403 q 481 437 411 403 q 590 535 550 471 q 629 688 629 599 q 590 841 629 778 q 481 938 550 904 q 321 972 411 972 l 147 972 l 147 929 z "},"Q":{"ha":1079,"x_min":65,"x_max":1044,"o":"m 113 486 q 167 719 113 618 q 319 880 222 821 q 540 939 417 939 q 763 880 667 939 q 914 719 860 821 q 968 486 968 618 q 914 253 968 356 q 763 92 860 151 q 540 33 667 33 q 319 92 417 33 q 167 253 222 151 q 113 486 113 356 m 65 486 q 101 288 65 379 q 200 129 136 196 q 351 25 264 63 q 540 -12 438 -12 q 731 25 644 -12 q 881 129 817 63 q 981 288 946 196 q 1017 486 1017 379 q 981 685 1017 594 q 881 843 946 776 q 731 947 817 910 q 540 985 644 985 q 351 947 438 985 q 200 843 264 910 q 101 685 136 776 q 65 486 65 594 m 547 417 l 983 0 l 1044 0 l 607 417 l 547 417 z "},"R":{"ha":688,"x_min":121,"x_max":649,"o":"m 279 451 l 593 0 l 649 0 l 329 451 l 279 451 m 121 972 l 121 0 l 167 0 l 167 972 l 121 972 m 142 931 l 311 931 q 458 905 394 931 q 558 827 522 879 q 594 697 594 775 q 558 567 594 619 q 458 489 522 515 q 311 463 394 463 l 142 463 l 142 422 l 311 422 q 479 453 406 422 q 597 547 553 485 q 640 697 640 608 q 597 849 640 788 q 479 941 553 910 q 311 972 406 972 l 142 972 l 142 931 z "},"Ŕ":{"ha":688,"x_min":121,"x_max":649,"o":"m 279 451 l 593 0 l 649 0 l 329 451 l 279 451 m 121 972 l 121 0 l 167 0 l 167 972 l 121 972 m 142 931 l 311 931 q 458 905 394 931 q 558 827 522 879 q 594 697 594 775 q 558 567 594 619 q 458 489 522 515 q 311 463 394 463 l 142 463 l 142 422 l 311 422 q 479 453 406 422 q 597 547 553 485 q 640 697 640 608 q 597 849 640 788 q 479 941 553 910 q 311 972 406 972 l 142 972 l 142 931 m 521 1283 l 483 1307 l 256 1085 l 278 1068 l 521 1283 z "},"Ŗ":{"ha":688,"x_min":121,"x_max":649,"o":"m 279 451 l 593 0 l 649 0 l 329 451 l 279 451 m 121 972 l 121 0 l 167 0 l 167 972 l 121 972 m 142 931 l 311 931 q 458 905 394 931 q 558 827 522 879 q 594 697 594 775 q 558 567 594 619 q 458 489 522 515 q 311 463 394 463 l 142 463 l 142 422 l 311 422 q 479 453 406 422 q 597 547 553 485 q 640 697 640 608 q 597 849 640 788 q 479 941 553 910 q 311 972 406 972 l 142 972 l 142 931 m 383 -83 l 246 -437 l 275 -447 l 428 -100 l 383 -83 z "},"Ř":{"ha":688,"x_min":106,"x_max":649,"o":"m 279 451 l 593 0 l 649 0 l 329 451 l 279 451 m 121 972 l 121 0 l 167 0 l 167 972 l 121 972 m 142 931 l 311 931 q 458 905 394 931 q 558 827 522 879 q 594 697 594 775 q 558 567 594 619 q 458 489 522 515 q 311 463 394 463 l 142 463 l 142 422 l 311 422 q 479 453 406 422 q 597 547 553 485 q 640 697 640 608 q 597 849 640 788 q 479 941 553 910 q 311 972 406 972 l 142 972 l 142 931 m 328 1114 l 133 1286 l 106 1263 l 328 1068 l 550 1263 l 522 1286 l 328 1114 z "},"Ȓ":{"ha":688,"x_min":121,"x_max":649,"o":"m 279 451 l 593 0 l 649 0 l 329 451 l 279 451 m 121 972 l 121 0 l 167 0 l 167 972 l 121 972 m 142 931 l 311 931 q 458 905 394 931 q 558 827 522 879 q 594 697 594 775 q 558 567 594 619 q 458 489 522 515 q 311 463 394 463 l 142 463 l 142 422 l 311 422 q 479 453 406 422 q 597 547 553 485 q 640 697 640 608 q 597 849 640 788 q 479 941 553 910 q 311 972 406 972 l 142 972 l 142 931 m 146 1068 q 170 1161 146 1117 q 244 1234 194 1206 q 365 1263 293 1263 q 488 1234 439 1263 q 560 1161 536 1206 q 585 1068 585 1117 l 546 1068 q 526 1142 546 1106 q 465 1201 506 1178 q 365 1225 425 1225 q 265 1201 306 1225 q 205 1142 225 1178 q 185 1068 185 1106 l 146 1068 z "},"S":{"ha":703,"x_min":68,"x_max":640,"o":"m 106 271 l 68 249 q 122 119 85 179 q 221 24 160 60 q 369 -12 282 -12 q 481 7 431 -12 q 566 60 531 26 q 621 142 601 94 q 640 244 640 189 q 619 353 640 307 q 563 431 597 399 q 485 485 528 463 q 401 524 443 507 q 273 582 328 550 q 187 658 218 614 q 156 764 156 701 q 209 892 156 844 q 353 939 263 939 q 467 914 421 939 q 541 851 513 889 q 583 775 569 814 l 625 797 q 574 883 608 840 q 485 956 539 926 q 354 985 431 985 q 228 957 283 985 q 141 878 172 929 q 110 760 110 828 q 132 657 110 700 q 192 583 154 614 q 276 528 231 551 q 368 488 322 506 q 475 438 424 467 q 560 361 526 408 q 593 240 593 314 q 535 91 593 150 q 371 32 476 32 q 238 65 290 32 q 153 153 185 99 q 106 271 122 208 z "},"Ś":{"ha":703,"x_min":56,"x_max":640,"o":"m 94 286 l 56 264 q 120 130 79 193 q 223 27 161 67 q 368 -12 285 -12 q 525 22 465 -12 q 613 117 585 57 q 640 249 640 176 q 619 353 640 308 q 563 431 597 399 q 485 485 528 463 q 401 522 442 508 q 286 574 343 544 q 192 649 229 604 q 156 756 156 693 q 183 851 156 810 q 258 917 211 893 q 363 940 304 940 q 476 910 431 940 q 551 837 522 881 q 594 747 579 793 l 632 768 q 584 868 618 818 q 495 951 550 918 q 361 985 440 985 q 235 956 292 985 q 144 877 178 928 q 110 758 110 826 q 134 656 110 700 q 197 581 158 613 q 280 526 236 549 q 364 490 324 504 q 471 440 418 471 q 558 362 524 408 q 593 246 593 315 q 571 135 593 183 q 499 59 549 86 q 371 32 450 32 q 269 53 313 32 q 192 112 225 75 q 135 194 158 149 q 94 286 111 239 m 588 1283 l 549 1307 l 321 1085 l 344 1068 l 588 1283 z "},"Ŝ":{"ha":703,"x_min":56,"x_max":640,"o":"m 94 286 l 56 264 q 120 130 79 193 q 223 27 161 67 q 368 -12 285 -12 q 525 22 465 -12 q 613 117 585 57 q 640 249 640 176 q 619 353 640 308 q 563 431 597 399 q 485 485 528 463 q 401 522 442 508 q 286 574 343 544 q 192 649 229 604 q 156 756 156 693 q 183 851 156 810 q 258 917 211 893 q 363 940 304 940 q 476 910 431 940 q 551 837 522 881 q 594 747 579 793 l 632 768 q 584 868 618 818 q 495 951 550 918 q 361 985 440 985 q 235 956 292 985 q 144 877 178 928 q 110 758 110 826 q 134 656 110 700 q 197 581 158 613 q 280 526 236 549 q 364 490 324 504 q 471 440 418 471 q 558 362 524 408 q 593 246 593 315 q 571 135 593 183 q 499 59 549 86 q 371 32 450 32 q 269 53 313 32 q 192 112 225 75 q 135 194 158 149 q 94 286 111 239 m 361 1239 l 557 1068 l 583 1090 l 361 1285 l 139 1090 l 167 1068 l 361 1239 z "},"Ş":{"ha":703,"x_min":56,"x_max":640,"o":"m 94 286 l 56 264 q 120 130 79 193 q 223 27 161 67 q 368 -12 285 -12 q 524 22 464 -12 q 612 117 583 57 q 640 249 640 176 q 619 353 640 308 q 563 431 597 399 q 485 485 528 463 q 401 522 442 508 q 286 574 343 544 q 192 649 229 604 q 156 756 156 693 q 182 851 156 810 q 254 917 208 893 q 358 940 300 940 q 473 910 426 940 q 549 837 519 881 q 594 747 579 793 l 632 768 q 582 869 615 819 q 494 952 549 919 q 361 985 440 985 q 233 956 290 985 q 142 876 175 928 q 110 756 110 825 q 134 653 110 697 q 197 578 158 610 q 280 526 236 547 q 364 490 324 504 q 471 440 418 471 q 558 362 524 408 q 593 246 593 315 q 571 135 593 183 q 499 59 549 86 q 371 32 450 32 q 269 53 313 32 q 192 112 225 75 q 135 194 158 149 q 94 286 111 239 m 367 24 l 278 -132 q 329 -107 301 -115 q 381 -99 357 -99 q 438 -117 413 -99 q 463 -176 463 -136 q 427 -250 463 -225 q 347 -275 392 -275 q 293 -265 315 -275 q 244 -232 271 -254 l 224 -254 q 281 -295 253 -283 q 347 -307 308 -307 q 419 -292 386 -307 q 474 -247 453 -276 q 496 -176 496 -218 q 480 -119 496 -142 q 441 -85 464 -97 q 394 -74 418 -74 q 356 -79 369 -74 q 322 -97 343 -85 l 403 24 l 367 24 z "},"Š":{"ha":703,"x_min":56,"x_max":640,"o":"m 94 286 l 56 264 q 120 130 79 193 q 223 27 161 67 q 368 -12 285 -12 q 525 22 465 -12 q 613 117 585 57 q 640 249 640 176 q 619 353 640 308 q 563 431 597 399 q 485 485 528 463 q 401 522 442 508 q 286 574 343 544 q 192 649 229 604 q 156 756 156 693 q 183 851 156 810 q 258 917 211 893 q 363 940 304 940 q 476 910 431 940 q 551 837 522 881 q 594 747 579 793 l 632 768 q 584 868 618 818 q 495 951 550 918 q 361 985 440 985 q 235 956 292 985 q 144 877 178 928 q 110 758 110 826 q 134 656 110 700 q 197 581 158 613 q 280 526 236 549 q 364 490 324 504 q 471 440 418 471 q 558 362 524 408 q 593 246 593 315 q 571 135 593 183 q 499 59 549 86 q 371 32 450 32 q 269 53 313 32 q 192 112 225 75 q 135 194 158 149 q 94 286 111 239 m 361 1124 l 168 1296 l 139 1272 l 361 1078 l 583 1272 l 556 1296 l 361 1124 z "},"Ș":{"ha":703,"x_min":56,"x_max":640,"o":"m 94 286 l 56 264 q 120 130 79 193 q 223 27 161 67 q 368 -12 285 -12 q 525 22 465 -12 q 613 117 585 57 q 640 249 640 176 q 619 353 640 308 q 563 431 597 399 q 485 485 528 463 q 401 522 442 508 q 286 574 343 544 q 192 649 229 604 q 156 756 156 693 q 183 851 156 810 q 258 917 211 893 q 363 940 304 940 q 476 910 431 940 q 551 837 522 881 q 594 747 579 793 l 632 768 q 584 868 618 818 q 495 951 550 918 q 361 985 440 985 q 235 956 292 985 q 144 877 178 928 q 110 758 110 826 q 134 656 110 700 q 197 581 158 613 q 280 526 236 549 q 364 490 324 504 q 471 440 418 471 q 558 362 524 408 q 593 246 593 315 q 571 135 593 183 q 499 59 549 86 q 371 32 450 32 q 269 53 313 32 q 192 112 225 75 q 135 194 158 149 q 94 286 111 239 m 417 -96 l 278 -449 l 307 -460 l 460 -112 l 417 -96 z "},"T":{"ha":613,"x_min":24,"x_max":589,"o":"m 24 929 l 283 929 l 283 0 l 329 0 l 329 929 l 589 929 l 589 972 l 24 972 l 24 929 z "},"Ţ":{"ha":613,"x_min":24,"x_max":589,"o":"m 289 4 l 200 -151 q 251 -126 224 -135 q 303 -118 278 -118 q 360 -137 335 -118 q 385 -196 385 -156 q 349 -269 385 -244 q 269 -294 314 -294 q 215 -284 238 -294 q 167 -251 193 -274 l 146 -274 q 203 -315 175 -303 q 269 -326 231 -326 q 342 -311 308 -326 q 397 -267 375 -296 q 418 -196 418 -237 q 402 -139 418 -161 q 363 -105 386 -117 q 317 -93 340 -93 q 278 -99 292 -93 q 244 -117 265 -104 l 325 4 l 289 4 m 24 929 l 283 929 l 283 0 l 329 0 l 329 929 l 589 929 l 589 972 l 24 972 l 24 929 z "},"Ť":{"ha":613,"x_min":24,"x_max":589,"o":"m 24 929 l 283 929 l 283 0 l 329 0 l 329 929 l 589 929 l 589 972 l 24 972 l 24 929 m 307 1114 l 113 1286 l 85 1263 l 307 1068 l 529 1263 l 501 1286 l 307 1114 z "},"Ț":{"ha":613,"x_min":24,"x_max":589,"o":"m 24 929 l 283 929 l 283 0 l 329 0 l 329 929 l 589 929 l 589 972 l 24 972 l 24 929 m 354 -83 l 215 -437 l 246 -447 l 399 -100 l 354 -83 z "},"U":{"ha":821,"x_min":114,"x_max":707,"o":"m 114 972 l 114 310 q 133 178 114 238 q 190 76 151 118 q 283 10 228 33 q 410 -14 338 -14 q 538 10 482 -14 q 631 76 593 33 q 688 178 668 118 q 707 310 707 238 l 707 972 l 661 972 l 661 310 q 595 105 661 181 q 410 29 529 29 q 226 105 292 29 q 160 310 160 181 l 160 972 l 114 972 z "},"Ù":{"ha":821,"x_min":114,"x_max":707,"o":"m 114 972 l 114 310 q 133 178 114 238 q 190 76 151 118 q 283 10 228 33 q 410 -14 338 -14 q 538 10 482 -14 q 631 76 593 33 q 688 178 668 118 q 707 310 707 238 l 707 972 l 661 972 l 661 310 q 595 105 661 181 q 410 29 529 29 q 226 105 292 29 q 160 310 160 181 l 160 972 l 114 972 m 224 1283 l 468 1068 l 490 1085 l 263 1307 l 224 1283 z "},"Ú":{"ha":821,"x_min":114,"x_max":707,"o":"m 114 972 l 114 310 q 133 178 114 238 q 190 76 151 118 q 283 10 228 33 q 410 -14 338 -14 q 538 10 482 -14 q 631 76 593 33 q 688 178 668 118 q 707 310 707 238 l 707 972 l 661 972 l 661 310 q 595 105 661 181 q 410 29 529 29 q 226 105 292 29 q 160 310 160 181 l 160 972 l 114 972 m 597 1283 l 558 1307 l 331 1085 l 353 1068 l 597 1283 z "},"Û":{"ha":821,"x_min":114,"x_max":707,"o":"m 114 972 l 114 310 q 133 178 114 238 q 190 76 151 118 q 283 10 228 33 q 410 -14 338 -14 q 538 10 482 -14 q 631 76 593 33 q 688 178 668 118 q 707 310 707 238 l 707 972 l 661 972 l 661 310 q 595 105 661 181 q 410 29 529 29 q 226 105 292 29 q 160 310 160 181 l 160 972 l 114 972 m 410 1239 l 606 1068 l 632 1090 l 410 1285 l 188 1090 l 215 1068 l 410 1239 z "},"Ü":{"ha":821,"x_min":114,"x_max":707,"o":"m 114 972 l 114 310 q 133 178 114 238 q 190 76 151 118 q 283 10 228 33 q 410 -14 338 -14 q 538 10 482 -14 q 631 76 593 33 q 688 178 668 118 q 707 310 707 238 l 707 972 l 661 972 l 661 310 q 595 105 661 181 q 410 29 529 29 q 226 105 292 29 q 160 310 160 181 l 160 972 l 114 972 m 506 1100 q 516 1078 506 1088 q 539 1068 526 1068 q 563 1078 554 1068 q 572 1100 572 1088 q 563 1124 572 1115 q 539 1133 553 1133 q 516 1124 526 1133 q 506 1100 506 1114 m 247 1100 q 258 1078 247 1088 q 282 1068 268 1068 q 305 1078 296 1068 q 314 1100 314 1088 q 305 1124 314 1115 q 282 1133 296 1133 q 258 1124 268 1133 q 247 1100 247 1114 z "},"Ũ":{"ha":821,"x_min":114,"x_max":707,"o":"m 114 972 l 114 310 q 133 178 114 238 q 190 76 151 118 q 283 10 228 33 q 410 -14 338 -14 q 538 10 482 -14 q 631 76 593 33 q 688 178 668 118 q 707 310 707 238 l 707 972 l 661 972 l 661 310 q 595 105 661 181 q 410 29 529 29 q 226 105 292 29 q 160 310 160 181 l 160 972 l 114 972 m 221 1083 l 251 1068 q 258 1099 251 1083 q 281 1127 264 1115 q 325 1139 297 1139 q 380 1123 357 1139 q 429 1090 403 1107 q 493 1074 456 1074 q 538 1083 518 1074 q 574 1111 558 1093 q 601 1154 590 1129 l 574 1175 q 540 1125 557 1142 q 496 1108 524 1108 q 449 1118 468 1108 q 412 1141 429 1128 q 374 1164 394 1154 q 324 1174 354 1174 q 270 1161 293 1174 q 235 1128 247 1149 q 221 1083 222 1108 z "},"Ū":{"ha":821,"x_min":114,"x_max":707,"o":"m 114 972 l 114 310 q 133 178 114 238 q 190 76 151 118 q 283 10 228 33 q 410 -14 338 -14 q 538 10 482 -14 q 631 76 593 33 q 688 178 668 118 q 707 310 707 238 l 707 972 l 661 972 l 661 310 q 595 105 661 181 q 410 29 529 29 q 226 105 292 29 q 160 310 160 181 l 160 972 l 114 972 m 167 1068 l 653 1068 l 653 1108 l 167 1108 l 167 1068 z "},"Ŭ":{"ha":821,"x_min":114,"x_max":707,"o":"m 114 972 l 114 310 q 133 178 114 238 q 190 76 151 118 q 283 10 228 33 q 410 -14 338 -14 q 538 10 482 -14 q 631 76 593 33 q 688 178 668 118 q 707 310 707 238 l 707 972 l 661 972 l 661 310 q 595 105 661 181 q 410 29 529 29 q 226 105 292 29 q 160 310 160 181 l 160 972 l 114 972 m 190 1263 q 215 1170 190 1215 q 288 1097 239 1125 q 410 1068 338 1068 q 532 1097 483 1068 q 605 1170 581 1125 q 629 1263 629 1215 l 590 1263 q 570 1188 590 1224 q 510 1128 550 1151 q 410 1104 469 1104 q 311 1128 351 1104 q 250 1188 271 1151 q 229 1263 229 1224 l 190 1263 z "},"Ů":{"ha":821,"x_min":114,"x_max":707,"o":"m 114 972 l 114 310 q 133 178 114 238 q 190 76 151 118 q 283 10 228 33 q 410 -14 338 -14 q 538 10 482 -14 q 631 76 593 33 q 688 178 668 118 q 707 310 707 238 l 707 972 l 661 972 l 661 310 q 595 105 661 181 q 410 29 529 29 q 226 105 292 29 q 160 310 160 181 l 160 972 l 114 972 m 268 1207 q 312 1106 268 1144 q 410 1068 356 1068 q 508 1106 464 1068 q 551 1207 551 1144 q 508 1308 551 1269 q 410 1346 464 1346 q 312 1308 356 1346 q 268 1207 268 1269 m 299 1207 q 333 1286 299 1256 q 410 1317 367 1317 q 487 1286 453 1317 q 521 1207 521 1256 q 487 1126 521 1157 q 410 1096 453 1096 q 333 1126 367 1096 q 299 1207 299 1157 z "},"Ű":{"ha":821,"x_min":114,"x_max":707,"o":"m 331 1068 l 493 1347 l 450 1361 l 304 1078 l 331 1068 m 496 1068 l 658 1347 l 614 1361 l 469 1078 l 496 1068 m 114 972 l 114 310 q 133 178 114 238 q 190 76 151 118 q 283 10 228 33 q 410 -14 338 -14 q 538 10 482 -14 q 631 76 593 33 q 688 178 668 118 q 707 310 707 238 l 707 972 l 661 972 l 661 310 q 595 105 661 181 q 410 29 529 29 q 226 105 292 29 q 160 310 160 181 l 160 972 l 114 972 z "},"Ų":{"ha":821,"x_min":114,"x_max":707,"o":"m 476 -233 q 433 -265 463 -251 q 367 -278 404 -278 q 290 -256 322 -278 q 257 -189 257 -233 q 285 -120 257 -153 q 355 -60 313 -87 q 442 -11 397 -32 l 418 8 q 322 -47 369 -17 q 244 -114 275 -76 q 214 -197 214 -151 q 232 -260 214 -233 q 283 -302 250 -287 q 365 -317 317 -317 q 446 -299 410 -317 q 497 -261 482 -282 l 476 -233 m 114 972 l 114 310 q 133 178 114 238 q 190 76 151 118 q 283 10 228 33 q 410 -14 338 -14 q 538 10 482 -14 q 631 76 593 33 q 688 178 668 118 q 707 310 707 238 l 707 972 l 661 972 l 661 310 q 595 105 661 181 q 410 29 529 29 q 226 105 292 29 q 160 310 160 181 l 160 972 l 114 972 z "},"V":{"ha":858,"x_min":17,"x_max":842,"o":"m 429 79 l 68 972 l 17 972 l 429 -29 l 842 972 l 789 972 l 429 79 z "},"W":{"ha":1336,"x_min":24,"x_max":1313,"o":"m 968 101 l 668 1001 l 369 101 l 74 972 l 24 972 l 367 -29 l 668 872 l 969 -29 l 1313 972 l 1263 972 l 968 101 z "},"Ŵ":{"ha":1336,"x_min":24,"x_max":1313,"o":"m 967 97 l 668 1001 l 368 97 l 74 972 l 24 972 l 367 -29 l 668 872 l 969 -29 l 1313 972 l 1263 972 l 967 97 m 668 1256 l 863 1085 l 890 1108 l 668 1303 l 446 1108 l 472 1085 l 668 1256 z "},"Ẁ":{"ha":1336,"x_min":24,"x_max":1313,"o":"m 665 1085 l 689 1101 l 461 1324 l 422 1300 l 665 1085 m 968 101 l 668 1001 l 369 101 l 74 972 l 24 972 l 367 -29 l 668 872 l 969 -29 l 1313 972 l 1263 972 l 968 101 z "},"Ẃ":{"ha":1336,"x_min":24,"x_max":1313,"o":"m 671 1085 l 914 1300 l 875 1324 l 647 1101 l 671 1085 m 968 101 l 668 1001 l 369 101 l 74 972 l 24 972 l 367 -29 l 668 872 l 969 -29 l 1313 972 l 1263 972 l 968 101 z "},"Ẅ":{"ha":1336,"x_min":24,"x_max":1313,"o":"m 774 1117 q 784 1094 774 1104 q 807 1085 794 1085 q 831 1094 821 1085 q 840 1117 840 1104 q 831 1141 840 1132 q 807 1150 821 1150 q 784 1140 794 1150 q 774 1117 774 1131 m 496 1117 q 506 1094 496 1104 q 529 1085 517 1085 q 553 1094 543 1085 q 563 1117 563 1104 q 553 1141 563 1132 q 529 1150 543 1150 q 506 1140 517 1150 q 496 1117 496 1131 m 968 101 l 668 1001 l 369 101 l 74 972 l 24 972 l 367 -29 l 668 872 l 969 -29 l 1313 972 l 1263 972 l 968 101 z "},"Ẇ":{"ha":1336,"x_min":24,"x_max":1313,"o":"m 635 1117 q 644 1094 635 1103 q 668 1085 654 1085 q 691 1094 682 1085 q 700 1117 700 1103 q 691 1141 700 1132 q 668 1150 682 1150 q 644 1140 654 1150 q 635 1117 635 1131 m 968 101 l 668 1001 l 369 101 l 74 972 l 24 972 l 367 -29 l 668 872 l 969 -29 l 1313 972 l 1263 972 l 968 101 z "},"Ẉ":{"ha":1336,"x_min":24,"x_max":1313,"o":"m 635 -146 q 644 -169 635 -160 q 668 -178 654 -178 q 691 -169 682 -178 q 700 -146 700 -160 q 691 -122 700 -131 q 668 -112 682 -112 q 644 -122 654 -112 q 635 -146 635 -132 m 968 101 l 668 1001 l 369 101 l 74 972 l 24 972 l 367 -29 l 668 872 l 969 -29 l 1313 972 l 1263 972 l 968 101 z "},"X":{"ha":717,"x_min":24,"x_max":693,"o":"m 618 972 l 363 550 l 113 972 l 58 972 l 339 510 l 24 0 l 78 0 l 361 469 l 639 0 l 693 0 l 386 510 l 672 972 l 618 972 z "},"Y":{"ha":726,"x_min":17,"x_max":710,"o":"m 658 972 l 357 429 l 68 972 l 17 972 l 336 383 l 336 0 l 381 0 l 381 385 l 710 972 l 658 972 z "},"Ý":{"ha":726,"x_min":17,"x_max":710,"o":"m 568 1283 l 531 1307 l 303 1085 l 325 1068 l 568 1283 m 658 972 l 357 429 l 68 972 l 17 972 l 336 383 l 336 0 l 381 0 l 381 385 l 710 972 l 658 972 z "},"Ŷ":{"ha":726,"x_min":17,"x_max":710,"o":"m 658 972 l 357 429 l 68 972 l 17 972 l 336 383 l 336 0 l 381 0 l 381 385 l 710 972 l 658 972 m 364 1239 l 558 1068 l 586 1090 l 364 1285 l 142 1090 l 169 1068 l 364 1239 z "},"Ÿ":{"ha":726,"x_min":17,"x_max":710,"o":"m 200 1100 q 210 1078 200 1088 q 235 1068 221 1068 q 258 1078 249 1068 q 268 1100 268 1088 q 258 1124 268 1115 q 235 1133 249 1133 q 210 1124 221 1133 q 200 1100 200 1114 m 458 1100 q 469 1078 458 1088 q 493 1068 479 1068 q 517 1078 507 1068 q 526 1100 526 1088 q 517 1124 526 1115 q 493 1133 507 1133 q 469 1124 479 1133 q 458 1100 458 1114 m 658 972 l 357 429 l 68 972 l 17 972 l 336 383 l 336 0 l 381 0 l 381 385 l 710 972 l 658 972 z "},"Ỳ":{"ha":726,"x_min":17,"x_max":710,"o":"m 361 1068 l 385 1085 l 157 1307 l 118 1283 l 361 1068 m 658 972 l 357 429 l 68 972 l 17 972 l 336 383 l 336 0 l 381 0 l 381 385 l 710 972 l 658 972 z "},"Z":{"ha":747,"x_min":26,"x_max":724,"o":"m 54 929 l 644 929 l 26 0 l 707 0 l 707 43 l 106 43 l 724 972 l 54 972 l 54 929 z "},"Ź":{"ha":747,"x_min":26,"x_max":724,"o":"m 54 929 l 644 929 l 26 0 l 707 0 l 707 43 l 106 43 l 724 972 l 54 972 l 54 929 m 597 1283 l 558 1307 l 331 1085 l 353 1068 l 597 1283 z "},"Ż":{"ha":747,"x_min":26,"x_max":724,"o":"m 54 929 l 644 929 l 26 0 l 707 0 l 707 43 l 106 43 l 724 972 l 54 972 l 54 929 m 356 1100 q 366 1078 356 1088 q 389 1068 376 1068 q 413 1078 403 1068 q 422 1100 422 1088 q 413 1124 422 1115 q 389 1133 403 1133 q 366 1124 376 1133 q 356 1100 356 1114 z "},"Ž":{"ha":747,"x_min":26,"x_max":724,"o":"m 54 929 l 644 929 l 26 0 l 707 0 l 707 43 l 106 43 l 724 972 l 54 972 l 54 929 m 389 1114 l 194 1286 l 167 1263 l 389 1068 l 611 1263 l 583 1286 l 389 1114 z "},"Æ":{"ha":1271,"x_min":7,"x_max":1164,"o":"m 292 360 l 699 360 l 699 403 l 292 403 l 292 360 m 653 972 l 7 0 l 58 0 l 694 956 l 653 972 m 707 0 l 1164 0 l 1164 43 l 707 43 l 707 0 m 713 929 l 1164 929 l 1164 972 l 653 972 l 713 929 m 707 515 l 1136 515 l 1136 558 l 707 558 l 707 515 m 681 972 l 681 0 l 726 0 l 726 972 l 681 972 z "},"Ð":{"ha":944,"x_min":7,"x_max":835,"o":"m 7 465 l 424 465 l 424 506 l 7 506 l 7 465 m 121 972 l 121 0 l 167 0 l 167 972 l 121 972 m 364 0 q 612 61 506 0 q 776 231 718 122 q 835 486 835 340 q 776 741 835 632 q 612 911 718 850 q 364 972 506 972 l 144 972 l 144 926 l 364 926 q 539 896 460 926 q 674 807 618 865 q 759 667 729 749 q 789 486 789 586 q 759 305 789 386 q 674 165 729 224 q 539 76 618 107 q 364 46 460 46 l 144 46 l 144 0 l 364 0 z "},"Ø":{"ha":1097,"x_min":65,"x_max":1017,"o":"m 113 486 q 167 719 113 618 q 319 880 222 821 q 540 939 417 939 q 763 880 667 939 q 914 719 860 821 q 968 486 968 618 q 914 253 968 356 q 763 92 860 151 q 540 33 667 33 q 319 92 417 33 q 167 253 222 151 q 113 486 113 356 m 65 486 q 101 288 65 379 q 200 129 136 196 q 351 25 264 63 q 540 -12 438 -12 q 731 25 644 -12 q 881 129 817 63 q 981 288 946 196 q 1017 486 1017 379 q 981 685 1017 594 q 881 843 946 776 q 731 947 817 910 q 540 985 644 985 q 351 947 438 985 q 200 843 264 910 q 101 685 136 776 q 65 486 65 594 m 979 1025 l 79 -31 l 113 -53 l 1014 1003 l 979 1025 z "},"Þ":{"ha":735,"x_min":111,"x_max":676,"o":"m 111 972 l 111 0 l 156 0 l 156 972 l 111 972 m 135 735 l 346 735 q 491 706 426 735 q 593 622 556 678 q 631 486 631 565 q 593 356 631 411 q 491 269 556 300 q 346 238 426 238 l 135 238 l 135 194 l 346 194 q 515 230 440 194 q 633 331 589 265 q 676 486 676 397 q 633 642 676 576 q 515 742 589 707 q 346 778 440 778 l 135 778 l 135 735 z "},"Đ":{"ha":944,"x_min":7,"x_max":835,"o":"m 7 465 l 424 465 l 424 506 l 7 506 l 7 465 m 121 972 l 121 0 l 167 0 l 167 972 l 121 972 m 364 0 q 612 61 506 0 q 776 231 718 122 q 835 486 835 340 q 776 741 835 632 q 612 911 718 850 q 364 972 506 972 l 144 972 l 144 926 l 364 926 q 539 896 460 926 q 674 807 618 865 q 759 667 729 749 q 789 486 789 586 q 759 305 789 386 q 674 165 729 224 q 539 76 618 107 q 364 46 460 46 l 144 46 l 144 0 l 364 0 z "},"Ħ":{"ha":926,"x_min":7,"x_max":919,"o":"m 143 508 l 790 508 l 790 551 l 143 551 l 143 508 m 760 972 l 760 0 l 806 0 l 806 972 l 760 972 m 121 972 l 121 0 l 167 0 l 167 972 l 121 972 m 7 814 l 919 814 l 919 854 l 7 854 l 7 814 z "},"Ĳ":{"ha":681,"x_min":117,"x_max":518,"o":"m 196 -197 l 171 -231 q 206 -262 182 -244 q 265 -293 231 -281 q 335 -306 299 -306 q 418 -292 383 -306 q 475 -251 453 -279 q 508 -182 497 -224 q 518 -83 518 -140 l 518 972 l 474 972 l 474 -69 q 442 -219 474 -175 q 336 -262 411 -262 q 255 -242 292 -262 q 196 -197 218 -222 m 117 972 l 117 0 l 161 0 l 161 972 l 117 972 z "},"Ŀ":{"ha":606,"x_min":121,"x_max":582,"o":"m 121 972 l 121 0 l 582 0 l 582 43 l 165 43 l 165 972 l 121 972 m 368 575 q 378 551 368 561 q 401 542 388 542 q 425 551 415 542 q 435 575 435 561 q 425 599 435 590 q 401 608 415 608 q 378 599 389 608 q 368 575 368 589 z "},"Ł":{"ha":551,"x_min":-21,"x_max":538,"o":"m -7 518 l 368 754 l 354 785 l -21 549 l -7 518 m 111 972 l 111 0 l 538 0 l 538 43 l 157 43 l 157 972 l 111 972 z "},"Ŋ":{"ha":1028,"x_min":121,"x_max":907,"o":"m 746 -306 q 840 -278 804 -306 q 891 -205 875 -251 q 907 -106 907 -158 l 907 972 l 861 972 l 861 90 l 121 1001 l 121 0 l 167 0 l 167 878 l 864 18 l 864 -101 q 854 -178 864 -142 q 819 -239 844 -215 q 749 -262 794 -262 q 690 -245 714 -262 q 651 -208 667 -228 l 626 -242 q 674 -285 644 -265 q 746 -306 703 -306 z "},"Œ":{"ha":1335,"x_min":56,"x_max":1228,"o":"m 736 517 l 1199 517 l 1199 558 l 736 558 l 736 517 m 715 956 l 715 17 l 761 17 l 761 956 l 715 956 m 1228 43 l 750 43 l 717 43 l 542 43 q 367 75 447 43 q 226 166 286 107 q 133 307 167 225 q 100 486 100 389 q 133 665 100 583 q 225 806 165 747 q 366 897 285 865 q 542 929 447 929 l 721 929 l 744 929 l 1226 929 l 1226 972 l 542 972 q 347 938 436 972 q 192 838 257 903 q 92 684 128 774 q 56 486 56 594 q 92 288 56 378 q 193 134 128 199 q 347 35 258 69 q 542 0 436 0 l 1228 0 l 1228 43 z "},"Ŧ":{"ha":613,"x_min":24,"x_max":589,"o":"m 85 592 l 522 592 l 522 632 l 85 632 l 85 592 m 24 929 l 283 929 l 283 0 l 329 0 l 329 929 l 589 929 l 589 972 l 24 972 l 24 929 z "},"ẞ":{"ha":946,"x_min":111,"x_max":899,"o":"m 586 -15 q 437 10 504 -15 q 318 76 369 35 l 342 113 q 461 50 399 69 q 589 31 524 31 q 726 56 667 31 q 817 128 785 82 q 850 235 850 175 q 822 328 850 294 q 751 383 793 363 q 666 418 708 403 q 595 452 624 433 q 567 506 567 471 q 586 553 567 533 q 635 590 606 572 q 694 627 664 607 q 743 676 724 647 q 763 750 763 706 q 735 842 763 799 q 651 912 708 885 q 501 939 593 939 q 327 903 406 939 q 203 790 249 867 q 157 596 157 714 l 158 -1 l 111 -1 l 111 604 q 143 776 111 704 q 231 894 175 847 q 357 962 286 940 q 507 983 428 983 q 672 953 604 983 q 775 873 739 924 q 811 758 811 822 q 792 672 811 706 q 743 614 772 638 q 685 574 714 590 q 638 542 657 557 q 618 507 618 526 q 647 469 618 483 q 717 441 675 456 q 800 403 758 426 q 870 341 842 381 q 899 238 899 301 q 859 106 899 163 q 749 17 819 50 q 586 -15 679 -15 z "},"Δ":{"ha":833,"x_min":43,"x_max":786,"o":"m 43 0 l 415 1039 l 786 0 l 43 0 m 107 40 l 724 40 l 415 918 l 107 40 z "},"Ω":{"ha":833,"x_min":92,"x_max":742,"o":"m 92 0 l 92 36 l 292 36 q 190 148 235 82 q 121 289 146 214 q 96 435 96 364 q 138 610 96 533 q 253 731 181 686 q 417 775 325 775 q 581 731 508 775 q 694 610 653 686 q 736 435 736 533 q 711 289 736 364 q 642 148 686 214 q 540 36 597 82 l 742 36 l 742 0 l 471 0 l 471 33 q 583 133 533 68 q 661 277 632 199 q 690 433 690 356 q 656 588 690 521 q 559 692 621 654 q 417 729 497 729 q 274 692 336 729 q 176 588 211 654 q 140 433 140 521 q 170 278 140 357 q 251 134 200 199 q 363 33 301 69 l 363 0 l 92 0 z "},"А":{"ha":917,"x_min":17,"x_max":842,"o":"m 186 353 l 674 353 l 661 394 l 199 394 l 186 353 m 429 896 l 640 376 l 644 365 l 790 0 l 842 0 l 429 1001 l 17 0 l 67 0 l 215 368 l 219 379 l 429 896 z "},"Б":{"ha":722,"x_min":111,"x_max":667,"o":"m 138 540 l 336 540 q 483 510 418 540 q 585 425 547 481 q 622 292 622 369 q 585 159 622 215 q 483 73 547 103 q 336 43 418 43 l 138 43 l 138 0 l 336 0 q 505 35 431 0 q 623 137 579 71 q 667 292 667 203 q 623 447 667 382 q 505 548 579 513 q 336 583 431 583 l 138 583 l 138 540 m 111 972 l 111 0 l 156 0 l 156 929 l 593 929 l 593 972 l 111 972 z "},"В":{"ha":775,"x_min":121,"x_max":633,"o":"m 156 529 l 313 529 q 451 552 390 529 q 547 623 511 575 q 582 744 582 671 q 548 868 582 818 q 452 945 514 918 q 303 972 390 972 l 121 972 l 121 0 l 317 0 q 482 30 411 0 q 593 122 553 60 q 633 279 633 183 q 606 396 633 346 q 532 478 578 446 q 432 527 486 511 q 326 543 378 543 l 156 543 l 156 517 l 317 517 q 415 501 367 517 q 503 455 464 485 q 565 381 542 425 q 589 282 589 338 q 555 147 589 200 q 460 67 521 93 q 317 42 399 42 l 165 42 l 165 931 l 303 931 q 474 881 413 931 q 536 742 536 832 q 504 635 536 676 q 419 576 472 594 q 303 557 365 557 l 156 557 l 156 529 z "},"Г":{"ha":604,"x_min":111,"x_max":590,"o":"m 111 972 l 111 0 l 156 0 l 156 929 l 590 929 l 590 972 l 111 972 z "},"Ѓ":{"ha":604,"x_min":111,"x_max":590,"o":"m 111 972 l 111 0 l 156 0 l 156 929 l 590 929 l 590 972 l 111 972 m 556 1310 l 517 1333 l 289 1111 l 313 1094 l 556 1310 z "},"Д":{"ha":1104,"x_min":56,"x_max":1042,"o":"m 549 913 l 896 22 l 944 22 l 549 1021 l 153 22 l 201 22 l 549 913 m 1001 0 l 1001 -153 l 1042 -153 l 1042 43 l 56 43 l 56 -153 l 96 -153 l 96 0 l 1001 0 z "},"Е":{"ha":764,"x_min":121,"x_max":618,"o":"m 142 0 l 618 0 l 618 43 l 142 43 l 142 0 m 142 929 l 618 929 l 618 972 l 142 972 l 142 929 m 142 515 l 590 515 l 590 558 l 142 558 l 142 515 m 121 972 l 121 0 l 167 0 l 167 972 l 121 972 z "},"Ѐ":{"ha":764,"x_min":121,"x_max":618,"o":"m 142 0 l 618 0 l 618 43 l 142 43 l 142 0 m 142 929 l 618 929 l 618 972 l 142 972 l 142 929 m 142 515 l 590 515 l 590 558 l 142 558 l 142 515 m 121 972 l 121 0 l 167 0 l 167 972 l 121 972 m 164 1310 l 407 1094 l 429 1111 l 201 1333 l 164 1310 z "},"Ё":{"ha":764,"x_min":121,"x_max":618,"o":"m 142 0 l 618 0 l 618 43 l 142 43 l 142 0 m 142 929 l 618 929 l 618 972 l 142 972 l 142 929 m 142 515 l 590 515 l 590 558 l 142 558 l 142 515 m 121 972 l 121 0 l 167 0 l 167 972 l 121 972 m 471 1174 q 481 1151 471 1161 q 504 1142 492 1142 q 528 1151 518 1142 q 538 1174 538 1161 q 528 1198 538 1189 q 504 1207 518 1207 q 481 1197 492 1207 q 471 1174 471 1188 m 193 1174 q 203 1151 193 1161 q 226 1142 214 1142 q 250 1151 240 1142 q 260 1174 260 1161 q 250 1198 260 1189 q 226 1207 240 1207 q 203 1197 214 1207 q 193 1174 193 1188 z "},"Ж":{"ha":993,"x_min":7,"x_max":986,"o":"m 85 972 l 28 972 l 435 515 l 7 0 l 64 0 l 490 514 l 85 972 m 481 972 l 481 0 l 525 0 l 525 972 l 481 972 m 907 972 l 517 514 l 928 0 l 986 0 l 568 515 l 965 972 l 907 972 z "},"З":{"ha":842,"x_min":83,"x_max":779,"o":"m 393 494 q 540 511 474 494 q 653 560 606 528 q 726 634 700 592 q 751 728 751 676 q 714 856 751 797 q 607 950 676 914 q 440 986 538 986 q 276 953 347 986 q 165 864 204 921 q 125 731 125 807 l 168 731 q 202 841 168 793 q 297 917 236 889 q 440 944 358 944 q 582 915 522 944 q 674 837 642 886 q 706 726 706 788 q 666 621 706 667 q 556 549 626 575 q 393 524 485 524 l 393 494 m 435 -14 q 620 19 543 -14 q 738 114 697 53 q 779 257 779 175 q 728 410 779 354 q 589 489 676 465 q 393 513 501 513 l 393 483 q 563 463 485 483 q 687 394 640 442 q 733 261 733 346 q 656 93 733 157 q 435 29 579 29 q 269 58 336 29 q 165 140 201 88 q 128 257 129 192 l 83 257 q 106 151 83 200 q 174 65 129 101 q 283 7 218 28 q 435 -14 349 -14 z "},"И":{"ha":1028,"x_min":121,"x_max":907,"o":"m 904 950 l 907 1021 l 124 22 l 121 -49 l 904 950 m 165 972 l 121 972 l 121 -49 l 165 18 l 165 972 m 907 1021 l 863 957 l 863 0 l 907 0 l 907 1021 z "},"Ѝ":{"ha":1028,"x_min":121,"x_max":907,"o":"m 904 950 l 907 1021 l 124 22 l 121 -49 l 904 950 m 165 972 l 121 972 l 121 -49 l 165 18 l 165 972 m 907 1021 l 863 957 l 863 0 l 907 0 l 907 1021 m 290 1275 l 533 1060 l 557 1076 l 329 1299 l 290 1275 z "},"Й":{"ha":1028,"x_min":121,"x_max":907,"o":"m 904 950 l 907 1021 l 124 22 l 121 -49 l 904 950 m 165 972 l 121 972 l 121 -49 l 165 18 l 165 972 m 907 1021 l 863 957 l 863 0 l 907 0 l 907 1021 m 315 1251 q 340 1159 315 1204 q 413 1085 364 1114 q 535 1057 463 1057 q 657 1085 608 1057 q 730 1159 706 1114 q 754 1251 754 1204 l 715 1251 q 695 1178 715 1214 q 635 1118 675 1142 q 535 1094 594 1094 q 436 1118 476 1094 q 375 1178 396 1142 q 354 1251 354 1214 l 315 1251 z "},"К":{"ha":785,"x_min":117,"x_max":658,"o":"m 117 972 l 117 0 l 161 0 l 161 972 l 117 972 m 579 972 l 149 515 l 600 0 l 658 0 l 206 517 l 638 972 l 579 972 z "},"Ќ":{"ha":785,"x_min":117,"x_max":658,"o":"m 117 972 l 117 0 l 161 0 l 161 972 l 117 972 m 579 972 l 149 515 l 600 0 l 658 0 l 206 517 l 638 972 l 579 972 m 639 1310 l 600 1333 l 372 1111 l 396 1094 l 639 1310 z "},"Л":{"ha":869,"x_min":14,"x_max":758,"o":"m 758 972 l 143 972 l 143 342 q 135 233 143 286 q 110 135 126 179 q 69 65 93 92 q 14 39 46 39 l 14 0 q 106 46 68 0 q 165 168 144 92 q 186 333 186 244 l 186 929 l 714 929 l 714 0 l 758 0 l 758 972 z "},"М":{"ha":1125,"x_min":75,"x_max":1069,"o":"m 211 856 l 572 129 l 933 856 l 1024 0 l 1069 0 l 961 1001 l 572 221 l 183 1001 l 75 0 l 121 0 l 211 856 z "},"Н":{"ha":993,"x_min":121,"x_max":806,"o":"m 143 508 l 790 508 l 790 551 l 143 551 l 143 508 m 760 972 l 760 0 l 806 0 l 806 972 l 760 972 m 121 972 l 121 0 l 167 0 l 167 972 l 121 972 z "},"О":{"ha":1097,"x_min":65,"x_max":1017,"o":"m 113 486 q 167 719 113 618 q 319 880 222 821 q 540 939 417 939 q 763 880 667 939 q 914 719 860 821 q 968 486 968 618 q 914 253 968 356 q 763 92 860 151 q 540 33 667 33 q 319 92 417 33 q 167 253 222 151 q 113 486 113 356 m 65 486 q 101 288 65 379 q 200 129 136 196 q 351 25 264 63 q 540 -12 438 -12 q 731 25 644 -12 q 881 129 817 63 q 981 288 946 196 q 1017 486 1017 379 q 981 685 1017 594 q 881 843 946 776 q 731 947 817 910 q 540 985 644 985 q 351 947 438 985 q 200 843 264 910 q 101 685 136 776 q 65 486 65 594 z "},"П":{"ha":919,"x_min":111,"x_max":808,"o":"m 764 929 l 764 0 l 808 0 l 808 972 l 111 972 l 111 0 l 156 0 l 156 929 l 764 929 z "},"Р":{"ha":761,"x_min":121,"x_max":629,"o":"m 121 972 l 121 0 l 167 0 l 167 972 l 121 972 m 147 929 l 321 929 q 510 867 438 929 q 583 688 583 804 q 510 508 583 571 q 321 444 438 444 l 147 444 l 147 403 l 321 403 q 481 437 411 403 q 590 535 550 471 q 629 688 629 599 q 590 841 629 778 q 481 938 550 904 q 321 972 411 972 l 147 972 l 147 929 z "},"С":{"ha":951,"x_min":65,"x_max":844,"o":"m 114 486 q 169 721 114 619 q 318 880 224 822 q 532 938 413 938 q 655 924 599 938 q 759 882 711 910 q 844 814 807 854 l 844 874 q 711 956 783 928 q 532 985 639 985 q 345 948 431 985 q 197 844 260 911 q 100 685 135 776 q 65 486 65 594 q 100 287 65 378 q 197 128 135 196 q 345 24 260 61 q 532 -12 431 -12 q 711 16 639 -12 q 844 99 783 44 l 844 160 q 760 91 806 119 q 658 49 714 63 q 532 35 601 35 q 318 93 413 35 q 169 253 224 151 q 114 486 114 356 z "},"Т":{"ha":646,"x_min":24,"x_max":589,"o":"m 24 929 l 283 929 l 283 0 l 329 0 l 329 929 l 589 929 l 589 972 l 24 972 l 24 929 z "},"У":{"ha":701,"x_min":0,"x_max":701,"o":"m 701 972 l 653 972 l 350 321 l 375 319 l 53 972 l 0 972 l 336 304 l 196 0 l 244 0 l 701 972 z "},"Ў":{"ha":701,"x_min":0,"x_max":701,"o":"m 701 972 l 653 972 l 350 321 l 375 319 l 53 972 l 0 972 l 336 304 l 196 0 l 244 0 l 701 972 m 132 1263 q 156 1170 132 1215 q 230 1097 181 1125 q 351 1068 279 1068 q 474 1097 425 1068 q 547 1170 522 1125 q 571 1263 571 1215 l 532 1263 q 512 1188 532 1224 q 451 1128 492 1151 q 351 1104 411 1104 q 252 1128 292 1104 q 192 1188 213 1151 q 171 1263 171 1224 l 132 1263 z "},"Ф":{"ha":1036,"x_min":56,"x_max":981,"o":"m 496 972 l 496 0 l 540 0 l 540 972 l 496 972 m 936 486 q 884 308 936 382 q 742 194 832 233 q 536 154 651 154 l 500 154 q 294 194 385 154 q 152 308 204 233 q 100 486 100 382 q 152 665 100 592 q 294 776 204 738 q 500 815 385 815 l 536 815 q 742 776 651 815 q 884 665 832 738 q 936 486 936 592 m 981 486 q 923 688 981 604 q 765 816 865 771 q 536 861 664 861 l 500 861 q 272 816 372 861 q 113 688 171 771 q 56 486 56 604 q 113 285 56 369 q 272 156 171 201 q 500 111 372 111 l 536 111 q 765 156 664 111 q 923 285 865 201 q 981 486 981 369 z "},"Х":{"ha":771,"x_min":24,"x_max":693,"o":"m 618 972 l 363 550 l 113 972 l 58 972 l 339 510 l 24 0 l 78 0 l 361 469 l 639 0 l 693 0 l 386 510 l 672 972 l 618 972 z "},"Ц":{"ha":982,"x_min":111,"x_max":926,"o":"m 156 43 l 156 972 l 111 972 l 111 0 l 886 0 l 886 -153 l 926 -153 l 926 43 l 808 43 l 808 972 l 764 972 l 764 43 l 156 43 z "},"Ч":{"ha":781,"x_min":111,"x_max":669,"o":"m 403 389 l 656 389 l 656 429 l 403 429 l 403 389 m 625 972 l 625 0 l 669 0 l 669 972 l 625 972 m 154 972 l 111 972 l 111 719 q 144 551 111 626 q 242 433 176 476 q 403 389 307 389 l 403 429 q 266 467 321 429 q 183 572 211 506 q 154 719 154 638 l 154 972 z "},"Ш":{"ha":1293,"x_min":111,"x_max":1183,"o":"m 1139 43 l 669 43 l 669 972 l 625 972 l 625 43 l 156 43 l 156 972 l 111 972 l 111 0 l 1183 0 l 1183 972 l 1139 972 l 1139 43 z "},"Щ":{"ha":1357,"x_min":111,"x_max":1301,"o":"m 1139 43 l 669 43 l 669 972 l 625 972 l 625 43 l 156 43 l 156 972 l 111 972 l 111 0 l 1261 0 l 1261 -153 l 1301 -153 l 1301 43 l 1183 43 l 1183 972 l 1139 972 l 1139 43 z "},"Ъ":{"ha":872,"x_min":14,"x_max":817,"o":"m 288 540 l 486 540 q 633 510 568 540 q 735 425 697 481 q 772 292 772 369 q 735 159 772 215 q 633 73 697 103 q 486 43 568 43 l 288 43 l 288 0 l 486 0 q 655 35 581 0 q 773 137 729 71 q 817 292 817 203 q 773 447 817 382 q 655 548 729 513 q 486 583 581 583 l 288 583 l 288 540 m 264 929 l 264 0 l 308 0 l 308 972 l 14 972 l 14 929 l 264 929 z "},"Ы":{"ha":983,"x_min":106,"x_max":868,"o":"m 824 972 l 824 0 l 868 0 l 868 972 l 824 972 m 106 972 l 106 0 l 150 0 l 150 972 l 106 972 m 131 540 l 329 540 q 476 510 411 540 q 578 425 540 481 q 615 292 615 369 q 578 159 615 215 q 476 73 540 103 q 329 43 411 43 l 131 43 l 131 0 l 329 0 q 498 35 424 0 q 616 137 572 71 q 660 292 660 203 q 616 447 660 382 q 498 548 572 513 q 329 583 424 583 l 131 583 l 131 540 z "},"Ь":{"ha":715,"x_min":106,"x_max":660,"o":"m 106 972 l 106 0 l 150 0 l 150 972 l 106 972 m 131 540 l 329 540 q 476 510 411 540 q 578 425 540 481 q 615 292 615 369 q 578 159 615 215 q 476 73 540 103 q 329 43 411 43 l 131 43 l 131 0 l 329 0 q 498 35 424 0 q 616 137 572 71 q 660 292 660 203 q 616 447 660 382 q 498 548 572 513 q 329 583 424 583 l 131 583 l 131 540 z "},"Э":{"ha":951,"x_min":107,"x_max":886,"o":"m 213 465 l 838 465 l 838 507 l 213 507 l 213 465 m 838 486 q 783 253 838 356 q 635 93 729 151 q 419 35 540 35 q 294 49 351 35 q 192 91 238 63 q 107 160 146 119 l 107 99 q 241 16 168 44 q 419 -12 314 -12 q 606 24 521 -12 q 754 128 692 61 q 851 287 817 196 q 886 486 886 378 q 851 685 886 594 q 754 844 817 776 q 606 948 692 911 q 419 985 521 985 q 241 956 314 985 q 107 874 168 928 l 107 814 q 192 882 144 854 q 297 924 240 910 q 419 938 353 938 q 634 880 539 938 q 783 721 729 822 q 838 486 838 619 z "},"Ю":{"ha":1425,"x_min":111,"x_max":1360,"o":"m 138 507 l 443 507 l 443 549 l 138 549 l 138 507 m 111 972 l 111 0 l 156 0 l 156 972 l 111 972 m 456 488 q 510 722 456 619 q 663 882 565 824 q 883 940 760 940 q 1106 882 1010 940 q 1258 722 1203 824 q 1313 488 1313 619 q 1258 256 1313 358 q 1106 93 1203 153 q 883 33 1010 33 q 663 93 760 33 q 510 256 565 153 q 456 488 456 358 m 408 488 q 444 289 408 381 q 543 130 479 197 q 694 25 607 63 q 883 -12 782 -12 q 1074 25 988 -12 q 1224 130 1160 63 q 1324 289 1289 197 q 1360 488 1360 381 q 1324 687 1360 596 q 1224 844 1289 778 q 1074 949 1160 911 q 883 986 988 986 q 694 949 782 986 q 543 844 607 911 q 444 687 479 778 q 408 488 408 596 z "},"Я":{"ha":688,"x_min":39,"x_max":567,"o":"m 408 451 l 358 451 l 39 0 l 94 0 l 408 451 m 567 972 l 521 972 l 521 0 l 567 0 l 567 972 m 546 931 l 546 972 l 376 972 q 209 941 283 972 q 91 849 135 910 q 47 697 47 788 q 91 547 47 608 q 209 453 135 485 q 376 422 283 422 l 546 422 l 546 463 l 376 463 q 229 489 293 463 q 129 567 165 515 q 93 697 93 619 q 129 827 93 775 q 230 905 165 879 q 376 931 294 931 l 546 931 z "},"a":{"ha":622,"x_min":51,"x_max":529,"o":"m 94 189 q 121 281 94 246 q 192 333 147 317 q 289 349 236 349 q 404 332 350 349 q 504 281 458 315 l 504 313 q 461 342 492 325 q 387 372 431 358 q 283 385 343 385 q 115 332 178 385 q 51 186 51 279 q 83 74 51 118 q 163 8 114 29 q 263 -14 211 -14 q 375 13 321 -14 q 465 96 429 40 q 500 235 500 151 l 488 279 q 457 136 488 193 q 378 51 426 79 q 274 24 331 24 q 187 41 228 24 q 120 94 146 58 q 94 189 94 131 m 113 546 q 161 576 133 561 q 226 603 189 592 q 311 614 264 614 q 405 597 369 614 q 458 552 440 579 q 482 497 476 525 q 488 444 488 468 l 488 0 l 529 0 l 529 449 q 505 560 529 514 q 433 629 481 606 q 314 653 385 653 q 181 628 235 653 q 92 578 126 603 l 113 546 z "},"à":{"ha":625,"x_min":51,"x_max":532,"o":"m 94 188 q 125 282 94 244 q 205 339 156 319 q 311 358 254 358 q 426 339 379 358 q 506 293 474 319 l 506 322 q 468 351 493 335 q 404 380 443 368 q 308 392 365 392 q 184 369 243 392 q 88 300 125 346 q 51 183 51 254 q 81 72 51 115 q 161 7 111 28 q 267 -14 211 -14 q 389 17 336 -14 q 471 98 442 47 q 500 210 500 149 l 489 231 q 460 124 489 171 q 383 51 432 78 q 274 25 335 25 q 185 42 226 25 q 119 94 144 58 q 94 188 94 129 m 128 531 q 180 571 151 551 q 246 602 208 590 q 329 614 283 614 q 447 570 406 614 q 489 449 489 526 l 489 0 l 532 0 l 532 449 q 509 556 532 511 q 441 627 486 601 q 329 653 396 653 q 195 624 250 653 q 106 564 140 594 l 128 531 m 132 971 l 374 756 l 399 772 l 171 994 l 132 971 z "},"á":{"ha":625,"x_min":51,"x_max":532,"o":"m 94 188 q 125 282 94 244 q 205 339 156 319 q 311 358 254 358 q 426 339 379 358 q 506 293 474 319 l 506 322 q 468 351 493 335 q 404 380 443 368 q 308 392 365 392 q 184 369 243 392 q 88 300 125 346 q 51 183 51 254 q 81 72 51 115 q 161 7 111 28 q 267 -14 211 -14 q 389 17 336 -14 q 471 98 442 47 q 500 210 500 149 l 489 231 q 460 124 489 171 q 383 51 432 78 q 274 25 335 25 q 185 42 226 25 q 119 94 144 58 q 94 188 94 129 m 128 531 q 180 571 151 551 q 246 602 208 590 q 329 614 283 614 q 447 570 406 614 q 489 449 489 526 l 489 0 l 532 0 l 532 449 q 509 556 532 511 q 441 627 486 601 q 329 653 396 653 q 195 624 250 653 q 106 564 140 594 l 128 531 m 508 971 l 469 994 l 242 772 l 265 756 l 508 971 z "},"â":{"ha":625,"x_min":51,"x_max":551,"o":"m 94 188 q 125 282 94 244 q 205 339 156 319 q 311 358 254 358 q 426 339 379 358 q 506 293 474 319 l 506 322 q 468 351 493 335 q 404 380 443 368 q 308 392 365 392 q 184 369 243 392 q 88 300 125 346 q 51 183 51 254 q 81 72 51 115 q 161 7 111 28 q 267 -14 211 -14 q 389 17 336 -14 q 471 98 442 47 q 500 210 500 149 l 489 231 q 460 124 489 171 q 383 51 432 78 q 274 25 335 25 q 185 42 226 25 q 119 94 144 58 q 94 188 94 129 m 128 531 q 180 571 151 551 q 246 602 208 590 q 329 614 283 614 q 447 570 406 614 q 489 449 489 526 l 489 0 l 532 0 l 532 449 q 509 556 532 511 q 441 627 486 601 q 329 653 396 653 q 195 624 250 653 q 106 564 140 594 l 128 531 m 329 917 l 525 746 l 551 769 l 329 964 l 107 769 l 135 746 l 329 917 z "},"ã":{"ha":625,"x_min":51,"x_max":532,"o":"m 94 188 q 125 282 94 244 q 205 339 156 319 q 311 358 254 358 q 426 339 379 358 q 506 293 474 319 l 506 322 q 468 351 493 335 q 404 380 443 368 q 308 392 365 392 q 184 369 243 392 q 88 300 125 346 q 51 183 51 254 q 81 72 51 115 q 161 7 111 28 q 267 -14 211 -14 q 389 17 336 -14 q 471 98 442 47 q 500 210 500 149 l 489 231 q 460 124 489 171 q 383 51 432 78 q 274 25 335 25 q 185 42 226 25 q 119 94 144 58 q 94 188 94 129 m 128 531 q 180 571 151 551 q 246 602 208 590 q 329 614 283 614 q 447 570 406 614 q 489 449 489 526 l 489 0 l 532 0 l 532 449 q 509 556 532 511 q 441 627 486 601 q 329 653 396 653 q 195 624 250 653 q 106 564 140 594 l 128 531 m 131 801 l 160 785 q 167 817 160 801 q 190 844 174 833 q 235 856 207 856 q 290 840 267 856 q 338 807 313 824 q 401 790 364 790 q 447 800 426 790 q 483 828 468 810 q 510 872 499 847 l 483 893 q 450 843 467 860 q 406 826 433 826 q 358 836 378 826 q 322 859 339 846 q 284 882 304 872 q 233 892 264 892 q 180 879 203 892 q 144 847 157 867 q 131 801 132 826 z "},"ä":{"ha":625,"x_min":51,"x_max":532,"o":"m 94 188 q 125 282 94 244 q 205 339 156 319 q 311 358 254 358 q 426 339 379 358 q 506 293 474 319 l 506 322 q 468 351 493 335 q 404 380 443 368 q 308 392 365 392 q 184 369 243 392 q 88 300 125 346 q 51 183 51 254 q 81 72 51 115 q 161 7 111 28 q 267 -14 211 -14 q 389 17 336 -14 q 471 98 442 47 q 500 210 500 149 l 489 231 q 460 124 489 171 q 383 51 432 78 q 274 25 335 25 q 185 42 226 25 q 119 94 144 58 q 94 188 94 129 m 128 531 q 180 571 151 551 q 246 602 208 590 q 329 614 283 614 q 447 570 406 614 q 489 449 489 526 l 489 0 l 532 0 l 532 449 q 509 556 532 511 q 441 627 486 601 q 329 653 396 653 q 195 624 250 653 q 106 564 140 594 l 128 531 m 406 789 q 416 765 406 775 q 439 756 426 756 q 463 765 453 756 q 472 789 472 775 q 463 813 472 803 q 439 822 453 822 q 416 813 426 822 q 406 789 406 803 m 168 789 q 178 765 168 775 q 200 756 188 756 q 224 765 215 756 q 233 789 233 775 q 224 813 233 803 q 200 822 215 822 q 178 813 188 822 q 168 789 168 803 z "},"å":{"ha":625,"x_min":51,"x_max":532,"o":"m 94 188 q 125 282 94 244 q 205 339 156 319 q 311 358 254 358 q 426 339 379 358 q 506 293 474 319 l 506 322 q 468 351 493 335 q 404 380 443 368 q 308 392 365 392 q 184 369 243 392 q 88 300 125 346 q 51 183 51 254 q 81 72 51 115 q 161 7 111 28 q 267 -14 211 -14 q 389 17 336 -14 q 471 98 442 47 q 500 210 500 149 l 489 231 q 460 124 489 171 q 383 51 432 78 q 274 25 335 25 q 185 42 226 25 q 119 94 144 58 q 94 188 94 129 m 128 531 q 180 571 151 551 q 246 602 208 590 q 329 614 283 614 q 447 570 406 614 q 489 449 489 526 l 489 0 l 532 0 l 532 449 q 509 556 532 511 q 441 627 486 601 q 329 653 396 653 q 195 624 250 653 q 106 564 140 594 l 128 531 m 188 875 q 231 774 188 813 q 329 736 275 736 q 427 774 383 736 q 471 875 471 813 q 427 976 471 938 q 329 1014 383 1014 q 231 976 275 1014 q 188 875 188 938 m 218 875 q 252 955 218 925 q 329 985 286 985 q 406 955 372 985 q 440 875 440 925 q 406 795 440 825 q 329 765 372 765 q 252 795 286 765 q 218 875 218 825 z "},"ā":{"ha":625,"x_min":51,"x_max":572,"o":"m 94 188 q 125 282 94 244 q 205 339 156 319 q 311 358 254 358 q 426 339 379 358 q 506 293 474 319 l 506 322 q 468 351 493 335 q 404 380 443 368 q 308 392 365 392 q 184 369 243 392 q 88 300 125 346 q 51 183 51 254 q 81 72 51 115 q 161 7 111 28 q 267 -14 211 -14 q 389 17 336 -14 q 471 98 442 47 q 500 210 500 149 l 489 231 q 460 124 489 171 q 383 51 432 78 q 274 25 335 25 q 185 42 226 25 q 119 94 144 58 q 94 188 94 129 m 128 531 q 180 571 151 551 q 246 602 208 590 q 329 614 283 614 q 447 570 406 614 q 489 449 489 526 l 489 0 l 532 0 l 532 449 q 509 556 532 511 q 441 627 486 601 q 329 653 396 653 q 195 624 250 653 q 106 564 140 594 l 128 531 m 86 764 l 572 764 l 572 804 l 86 804 l 86 764 z "},"ă":{"ha":625,"x_min":51,"x_max":539,"o":"m 94 188 q 125 282 94 244 q 205 339 156 319 q 311 358 254 358 q 426 339 379 358 q 506 293 474 319 l 506 322 q 468 351 493 335 q 404 380 443 368 q 308 392 365 392 q 184 369 243 392 q 88 300 125 346 q 51 183 51 254 q 81 72 51 115 q 161 7 111 28 q 267 -14 211 -14 q 389 17 336 -14 q 471 98 442 47 q 500 210 500 149 l 489 231 q 460 124 489 171 q 383 51 432 78 q 274 25 335 25 q 185 42 226 25 q 119 94 144 58 q 94 188 94 129 m 128 531 q 180 571 151 551 q 246 602 208 590 q 329 614 283 614 q 447 570 406 614 q 489 449 489 526 l 489 0 l 532 0 l 532 449 q 509 556 532 511 q 441 627 486 601 q 329 653 396 653 q 195 624 250 653 q 106 564 140 594 l 128 531 m 100 940 q 124 848 100 893 q 198 774 149 803 q 319 746 247 746 q 442 774 393 746 q 515 848 490 803 q 539 940 539 893 l 500 940 q 480 867 500 903 q 419 806 460 831 q 319 782 379 782 q 221 806 261 782 q 160 867 181 831 q 139 940 139 903 l 100 940 z "},"ą":{"ha":625,"x_min":51,"x_max":588,"o":"m 94 188 q 125 282 94 244 q 205 339 156 319 q 311 358 254 358 q 426 339 379 358 q 506 293 474 319 l 506 322 q 468 351 493 335 q 404 380 443 368 q 308 392 365 392 q 182 368 240 392 q 88 299 124 344 q 51 186 51 254 q 82 72 51 117 q 163 7 113 28 q 267 -14 213 -14 q 389 17 336 -14 q 471 98 442 47 q 500 210 500 149 l 489 231 q 460 124 489 171 q 383 51 432 78 q 274 25 335 25 q 188 42 229 25 q 120 94 146 58 q 94 188 94 129 m 128 531 q 180 571 151 551 q 246 602 208 590 q 329 614 283 614 q 447 570 406 614 q 489 449 489 526 l 489 0 l 532 0 l 532 449 q 509 556 532 511 q 441 627 486 601 q 329 653 396 653 q 195 624 250 653 q 106 564 140 594 l 128 531 m 567 -222 q 523 -253 551 -240 q 457 -267 494 -267 q 379 -244 413 -267 q 346 -178 346 -222 q 374 -109 346 -142 q 445 -49 403 -76 q 532 0 488 -21 l 508 19 q 413 -35 460 -6 q 335 -103 365 -65 q 304 -186 304 -140 q 322 -249 304 -222 q 373 -291 339 -276 q 456 -306 407 -306 q 536 -288 500 -306 q 588 -250 572 -271 l 567 -222 z "},"b":{"ha":764,"x_min":107,"x_max":704,"o":"m 150 1083 l 107 1083 l 107 0 l 150 0 l 150 1083 m 704 319 q 665 497 704 422 q 556 612 625 571 q 403 653 488 653 q 258 607 319 653 q 164 485 197 561 q 131 319 131 408 q 164 155 131 232 q 258 32 197 78 q 403 -14 319 -14 q 556 27 488 -14 q 665 143 625 68 q 704 319 704 218 m 663 319 q 626 163 663 229 q 531 62 590 97 q 396 26 471 26 q 273 67 329 26 q 183 174 217 108 q 150 319 150 240 q 183 465 150 399 q 273 572 217 531 q 396 613 329 613 q 531 577 471 613 q 626 476 590 542 q 663 319 663 411 z "},"c":{"ha":674,"x_min":51,"x_max":594,"o":"m 94 319 q 132 471 94 404 q 234 575 169 538 q 378 613 299 613 q 473 597 429 613 q 549 560 517 582 q 594 518 581 539 l 594 572 q 510 627 569 601 q 378 653 450 653 q 211 610 285 653 q 94 492 138 567 q 51 319 51 417 q 94 148 51 224 q 211 29 138 72 q 378 -14 285 -14 q 510 12 450 -14 q 594 67 569 38 l 594 121 q 549 78 581 100 q 473 42 517 57 q 378 26 429 26 q 234 64 299 26 q 132 168 169 101 q 94 319 94 235 z "},"ç":{"ha":674,"x_min":51,"x_max":594,"o":"m 94 319 q 132 471 94 404 q 234 575 169 538 q 378 613 299 613 q 473 597 429 613 q 549 560 517 582 q 594 518 581 539 l 594 572 q 510 627 569 601 q 378 653 450 653 q 211 610 285 653 q 94 492 138 567 q 51 319 51 417 q 94 148 51 224 q 211 29 138 72 q 378 -14 285 -14 q 510 12 450 -14 q 594 67 569 38 l 594 121 q 549 78 581 100 q 473 42 517 57 q 378 26 429 26 q 234 64 299 26 q 132 168 169 101 q 94 319 94 235 m 367 21 l 278 -133 q 329 -110 301 -118 q 382 -101 357 -101 q 439 -120 414 -101 q 464 -178 464 -139 q 428 -252 464 -226 q 347 -278 393 -278 q 293 -267 315 -278 q 244 -233 271 -257 l 224 -256 q 281 -297 253 -285 q 347 -308 308 -308 q 419 -293 386 -308 q 474 -249 453 -278 q 496 -178 496 -219 q 480 -121 496 -143 q 441 -87 464 -99 q 394 -75 418 -75 q 356 -81 369 -75 q 322 -99 343 -87 l 403 21 l 367 21 z "},"ć":{"ha":674,"x_min":51,"x_max":594,"o":"m 94 319 q 132 471 94 404 q 234 575 169 538 q 378 613 299 613 q 473 597 429 613 q 549 560 517 582 q 594 518 581 539 l 594 572 q 510 627 569 601 q 378 653 450 653 q 211 610 285 653 q 94 492 138 567 q 51 319 51 417 q 94 148 51 224 q 211 29 138 72 q 378 -14 285 -14 q 510 12 450 -14 q 594 67 569 38 l 594 121 q 549 78 581 100 q 473 42 517 57 q 378 26 429 26 q 234 64 299 26 q 132 168 169 101 q 94 319 94 235 m 572 961 l 533 985 l 306 763 l 331 746 l 572 961 z "},"ĉ":{"ha":674,"x_min":51,"x_max":600,"o":"m 94 319 q 132 471 94 404 q 234 575 169 538 q 378 613 299 613 q 473 597 429 613 q 549 560 517 582 q 594 518 581 539 l 594 572 q 510 627 569 601 q 378 653 450 653 q 211 610 285 653 q 94 492 138 567 q 51 319 51 417 q 94 148 51 224 q 211 29 138 72 q 378 -14 285 -14 q 510 12 450 -14 q 594 67 569 38 l 594 121 q 549 78 581 100 q 473 42 517 57 q 378 26 429 26 q 234 64 299 26 q 132 168 169 101 q 94 319 94 235 m 378 907 l 572 736 l 600 760 l 378 954 l 156 760 l 182 736 l 378 907 z "},"ċ":{"ha":674,"x_min":51,"x_max":594,"o":"m 94 319 q 132 471 94 404 q 234 575 169 538 q 378 613 299 613 q 473 597 429 613 q 549 560 517 582 q 594 518 581 539 l 594 572 q 510 627 569 601 q 378 653 450 653 q 211 610 285 653 q 94 492 138 567 q 51 319 51 417 q 94 148 51 224 q 211 29 138 72 q 378 -14 285 -14 q 510 12 450 -14 q 594 67 569 38 l 594 121 q 549 78 581 100 q 473 42 517 57 q 378 26 429 26 q 234 64 299 26 q 132 168 169 101 q 94 319 94 235 m 344 779 q 354 756 344 765 q 378 746 364 746 q 401 756 392 746 q 410 779 410 765 q 401 803 410 793 q 378 813 392 813 q 354 803 364 813 q 344 779 344 793 z "},"č":{"ha":674,"x_min":51,"x_max":600,"o":"m 94 319 q 132 471 94 404 q 234 575 169 538 q 378 613 299 613 q 473 597 429 613 q 549 560 517 582 q 594 518 581 539 l 594 572 q 510 627 569 601 q 378 653 450 653 q 211 610 285 653 q 94 492 138 567 q 51 319 51 417 q 94 148 51 224 q 211 29 138 72 q 378 -14 285 -14 q 510 12 450 -14 q 594 67 569 38 l 594 121 q 549 78 581 100 q 473 42 517 57 q 378 26 429 26 q 234 64 299 26 q 132 168 169 101 q 94 319 94 235 m 378 803 l 183 975 l 156 950 l 378 756 l 600 950 l 571 975 l 378 803 z "},"d":{"ha":764,"x_min":58,"x_max":656,"o":"m 614 1083 l 614 0 l 656 0 l 656 1083 l 614 1083 m 58 319 q 99 143 58 218 q 208 27 139 68 q 360 -14 276 -14 q 506 32 444 -14 q 600 155 567 78 q 633 319 633 232 q 600 485 633 408 q 506 607 567 561 q 360 653 444 653 q 208 612 276 653 q 99 497 139 571 q 58 319 58 422 m 101 319 q 137 476 101 411 q 233 577 172 542 q 368 613 293 613 q 492 572 436 613 q 581 465 547 531 q 614 319 614 399 q 581 174 614 240 q 492 67 547 108 q 368 26 436 26 q 233 62 293 26 q 137 163 172 97 q 101 319 101 229 z "},"ď":{"ha":792,"x_min":58,"x_max":938,"o":"m 614 1083 l 614 0 l 656 0 l 656 1083 l 614 1083 m 58 319 q 99 143 58 218 q 208 27 139 68 q 360 -14 276 -14 q 506 32 444 -14 q 600 155 567 78 q 633 319 633 232 q 600 485 633 408 q 506 607 567 561 q 360 653 444 653 q 208 612 276 653 q 99 497 139 571 q 58 319 58 422 m 101 319 q 137 476 101 411 q 233 577 172 542 q 368 613 293 613 q 492 572 436 613 q 581 465 547 531 q 614 319 614 399 q 581 174 614 240 q 492 67 547 108 q 368 26 436 26 q 233 62 293 26 q 137 163 172 97 q 101 319 101 229 m 894 1068 l 756 714 l 785 703 l 938 1050 l 894 1068 z "},"e":{"ha":703,"x_min":58,"x_max":644,"o":"m 349 -14 q 508 25 440 -14 q 633 149 576 64 l 599 171 q 490 61 549 96 q 353 26 432 26 q 223 65 279 26 q 134 170 167 103 q 101 324 101 238 q 135 474 101 408 q 226 577 168 540 q 357 614 283 614 q 480 581 425 614 q 567 489 535 547 q 599 358 599 431 q 597 337 599 347 q 592 319 594 326 l 611 347 l 86 347 l 86 310 l 642 310 q 644 328 643 318 q 644 344 644 338 q 607 502 644 432 q 505 613 569 572 q 357 653 440 653 q 203 610 271 653 q 97 493 136 568 q 58 321 58 418 q 96 149 58 225 q 199 30 133 74 q 349 -14 265 -14 z "},"è":{"ha":703,"x_min":58,"x_max":644,"o":"m 86 310 l 642 310 q 644 327 643 318 q 644 344 644 336 q 606 505 644 436 q 501 613 567 574 q 357 653 436 653 q 226 623 285 653 q 127 540 167 593 q 69 415 88 486 q 61 369 64 393 q 58 321 58 346 q 97 149 58 225 q 201 30 136 74 q 349 -14 267 -14 q 488 11 435 -14 q 575 74 542 36 q 633 149 608 111 l 599 171 q 548 104 578 138 q 471 49 518 71 q 353 26 424 26 q 224 64 281 26 q 134 168 167 101 q 101 321 101 235 l 101 333 q 138 485 101 422 q 233 581 175 547 q 357 614 292 614 q 481 579 425 614 q 569 485 536 544 q 597 347 601 425 l 86 347 l 86 310 m 158 956 l 400 740 l 425 757 l 196 979 l 158 956 z "},"é":{"ha":703,"x_min":58,"x_max":644,"o":"m 86 310 l 642 310 q 644 327 643 318 q 644 344 644 336 q 606 505 644 436 q 501 613 567 574 q 357 653 436 653 q 226 623 285 653 q 127 540 167 593 q 69 415 88 486 q 61 369 64 393 q 58 321 58 346 q 97 149 58 225 q 201 30 136 74 q 349 -14 267 -14 q 488 11 435 -14 q 575 74 542 36 q 633 149 608 111 l 599 171 q 548 104 578 138 q 471 49 518 71 q 353 26 424 26 q 224 64 281 26 q 134 168 167 101 q 101 321 101 235 l 101 333 q 138 485 101 422 q 233 581 175 547 q 357 614 292 614 q 481 579 425 614 q 569 485 536 544 q 597 347 601 425 l 86 347 l 86 310 m 565 956 l 526 979 l 299 757 l 322 740 l 565 956 z "},"ê":{"ha":703,"x_min":58,"x_max":644,"o":"m 86 310 l 642 310 q 644 327 643 318 q 644 344 644 336 q 606 505 644 436 q 501 613 567 574 q 357 653 436 653 q 226 623 285 653 q 127 540 167 593 q 69 415 88 486 q 61 369 64 393 q 58 321 58 346 q 97 149 58 225 q 201 30 136 74 q 349 -14 267 -14 q 488 11 435 -14 q 575 74 542 36 q 633 149 608 111 l 599 171 q 548 104 578 138 q 471 49 518 71 q 353 26 424 26 q 224 64 281 26 q 134 168 167 101 q 101 321 101 235 l 101 333 q 138 485 101 422 q 233 581 175 547 q 357 614 292 614 q 481 579 425 614 q 569 485 536 544 q 597 347 601 425 l 86 347 l 86 310 m 357 907 l 553 736 l 579 760 l 357 954 l 135 760 l 163 736 l 357 907 z "},"ë":{"ha":703,"x_min":58,"x_max":644,"o":"m 86 310 l 642 310 q 644 327 643 318 q 644 344 644 336 q 606 505 644 436 q 501 613 567 574 q 357 653 436 653 q 226 623 285 653 q 127 540 167 593 q 69 415 88 486 q 61 369 64 393 q 58 321 58 346 q 97 149 58 225 q 201 30 136 74 q 349 -14 267 -14 q 488 11 435 -14 q 575 74 542 36 q 633 149 608 111 l 599 171 q 548 104 578 138 q 471 49 518 71 q 353 26 424 26 q 224 64 281 26 q 134 168 167 101 q 101 321 101 235 l 101 333 q 138 485 101 422 q 233 581 175 547 q 357 614 292 614 q 481 579 425 614 q 569 485 536 544 q 597 347 601 425 l 86 347 l 86 310 m 463 769 q 473 746 463 756 q 496 736 483 736 q 520 746 511 736 q 529 769 529 756 q 520 793 529 783 q 496 803 511 803 q 473 793 483 803 q 463 769 463 783 m 185 769 q 195 746 185 756 q 218 736 206 736 q 242 746 233 736 q 251 769 251 756 q 242 793 251 783 q 218 803 233 803 q 195 793 206 803 q 185 769 185 783 z "},"ē":{"ha":703,"x_min":58,"x_max":644,"o":"m 86 310 l 642 310 q 644 327 643 318 q 644 344 644 336 q 606 505 644 436 q 501 613 567 574 q 357 653 436 653 q 226 623 285 653 q 127 540 167 593 q 69 415 88 486 q 61 369 64 393 q 58 321 58 346 q 97 149 58 225 q 201 30 136 74 q 349 -14 267 -14 q 488 11 435 -14 q 575 74 542 36 q 633 149 608 111 l 599 171 q 548 104 578 138 q 471 49 518 71 q 353 26 424 26 q 224 64 281 26 q 134 168 167 101 q 101 321 101 235 l 101 333 q 138 485 101 422 q 233 581 175 547 q 357 614 292 614 q 481 579 425 614 q 569 485 536 544 q 597 347 601 425 l 86 347 l 86 310 m 114 736 l 600 736 l 600 776 l 114 776 l 114 736 z "},"ĕ":{"ha":703,"x_min":58,"x_max":644,"o":"m 86 310 l 642 310 q 644 327 643 318 q 644 344 644 336 q 606 505 644 436 q 501 613 567 574 q 357 653 436 653 q 226 623 285 653 q 127 540 167 593 q 69 415 88 486 q 61 369 64 393 q 58 321 58 346 q 97 149 58 225 q 201 30 136 74 q 349 -14 267 -14 q 488 11 435 -14 q 575 74 542 36 q 633 149 608 111 l 599 171 q 548 104 578 138 q 471 49 518 71 q 353 26 424 26 q 224 64 281 26 q 134 168 167 101 q 101 321 101 235 l 101 333 q 138 485 101 422 q 233 581 175 547 q 357 614 292 614 q 481 579 425 614 q 569 485 536 544 q 597 347 601 425 l 86 347 l 86 310 m 138 931 q 162 838 138 883 q 235 765 186 793 q 357 736 285 736 q 479 765 431 736 q 552 838 528 793 q 576 931 576 883 l 538 931 q 517 857 538 893 q 457 797 497 821 q 357 772 417 772 q 258 797 299 772 q 197 857 218 821 q 176 931 176 893 l 138 931 z "},"ė":{"ha":703,"x_min":58,"x_max":644,"o":"m 86 310 l 642 310 q 644 327 643 318 q 644 344 644 336 q 606 505 644 436 q 501 613 567 574 q 357 653 436 653 q 226 623 285 653 q 127 540 167 593 q 69 415 88 486 q 61 369 64 393 q 58 321 58 346 q 97 149 58 225 q 201 30 136 74 q 349 -14 267 -14 q 488 11 435 -14 q 575 74 542 36 q 633 149 608 111 l 599 171 q 548 104 578 138 q 471 49 518 71 q 353 26 424 26 q 224 64 281 26 q 134 168 167 101 q 101 321 101 235 l 101 333 q 138 485 101 422 q 233 581 175 547 q 357 614 292 614 q 481 579 425 614 q 569 485 536 544 q 597 347 601 425 l 86 347 l 86 310 m 324 769 q 334 746 324 756 q 357 736 344 736 q 381 746 372 736 q 390 769 390 756 q 381 793 390 783 q 357 803 372 803 q 334 793 344 803 q 324 769 324 783 z "},"ę":{"ha":703,"x_min":58,"x_max":694,"o":"m 86 310 l 642 310 q 644 327 643 318 q 644 344 644 336 q 606 505 644 436 q 501 613 567 574 q 357 653 436 653 q 226 623 285 653 q 127 540 167 593 q 69 415 88 486 q 61 369 64 393 q 58 321 58 346 q 97 149 58 225 q 201 30 136 74 q 349 -14 267 -14 q 458 1 413 -14 q 534 41 503 17 q 589 94 565 65 q 633 149 613 122 l 599 171 q 548 104 578 138 q 471 49 518 71 q 353 26 424 26 q 224 64 281 26 q 134 168 167 101 q 101 321 101 235 l 101 333 q 138 485 101 422 q 233 581 175 547 q 357 614 292 614 q 481 579 425 614 q 569 485 536 544 q 597 347 601 425 l 86 347 l 86 310 m 675 -151 q 631 -182 660 -168 q 564 -196 601 -196 q 486 -174 518 -196 q 454 -111 454 -151 q 481 -37 454 -74 q 549 44 507 0 q 633 149 590 89 l 599 144 q 539 70 571 104 q 478 6 507 36 q 430 -56 449 -25 q 411 -122 411 -87 q 430 -183 411 -157 q 481 -221 449 -208 q 558 -233 514 -233 q 641 -216 603 -233 q 694 -178 679 -199 l 675 -151 z "},"ě":{"ha":703,"x_min":58,"x_max":644,"o":"m 86 310 l 642 310 q 644 327 643 318 q 644 344 644 336 q 606 505 644 436 q 501 613 567 574 q 357 653 436 653 q 226 623 285 653 q 127 540 167 593 q 69 415 88 486 q 61 369 64 393 q 58 321 58 346 q 97 149 58 225 q 201 30 136 74 q 349 -14 267 -14 q 488 11 435 -14 q 575 74 542 36 q 633 149 608 111 l 599 171 q 548 104 578 138 q 471 49 518 71 q 353 26 424 26 q 224 64 281 26 q 134 168 167 101 q 101 321 101 235 l 101 333 q 138 485 101 422 q 233 581 175 547 q 357 614 292 614 q 481 579 425 614 q 569 485 536 544 q 597 347 601 425 l 86 347 l 86 310 m 357 782 l 164 954 l 135 931 l 357 736 l 579 931 l 551 954 l 357 782 z "},"f":{"ha":389,"x_min":65,"x_max":407,"o":"m 65 639 l 65 599 l 350 599 l 350 639 l 65 639 m 382 999 l 407 1032 q 381 1060 397 1046 q 341 1085 364 1075 q 288 1096 318 1096 q 194 1069 229 1096 q 144 997 160 1042 q 128 894 128 951 l 128 0 l 171 0 l 171 890 q 181 969 171 932 q 215 1029 190 1006 q 286 1053 240 1053 q 342 1036 318 1053 q 382 999 367 1019 z "},"g":{"ha":764,"x_min":58,"x_max":656,"o":"m 76 -42 q 112 -187 76 -124 q 211 -285 147 -250 q 358 -319 275 -319 q 506 -282 439 -319 q 615 -170 574 -244 q 656 14 656 -96 l 656 639 l 614 639 l 614 14 q 578 -151 614 -85 q 483 -248 542 -217 q 358 -279 425 -279 q 233 -249 288 -279 q 149 -165 179 -218 q 119 -42 119 -112 l 76 -42 m 58 319 q 99 143 58 218 q 208 27 139 68 q 360 -14 276 -14 q 506 32 444 -14 q 600 155 567 78 q 633 319 633 232 q 600 485 633 408 q 506 607 567 561 q 360 653 444 653 q 208 612 276 653 q 99 497 139 571 q 58 319 58 422 m 101 319 q 137 476 101 411 q 233 577 172 542 q 368 613 293 613 q 463 588 418 613 q 542 523 508 564 q 594 431 575 482 q 614 325 614 381 q 581 176 614 244 q 492 67 547 108 q 368 26 436 26 q 233 62 293 26 q 137 163 172 97 q 101 319 101 229 z "},"ĝ":{"ha":764,"x_min":58,"x_max":656,"o":"m 76 -42 q 112 -187 76 -124 q 211 -285 147 -250 q 358 -319 275 -319 q 506 -282 439 -319 q 615 -170 574 -244 q 656 14 656 -96 l 656 639 l 614 639 l 614 14 q 578 -151 614 -85 q 483 -248 542 -217 q 358 -279 425 -279 q 233 -249 288 -279 q 149 -165 179 -218 q 119 -42 119 -112 l 76 -42 m 58 319 q 99 143 58 218 q 208 27 139 68 q 360 -14 276 -14 q 506 32 444 -14 q 600 155 567 78 q 633 319 633 232 q 600 485 633 408 q 506 607 567 561 q 360 653 444 653 q 208 612 276 653 q 99 497 139 571 q 58 319 58 422 m 101 319 q 137 476 101 411 q 233 577 172 542 q 368 613 293 613 q 463 588 418 613 q 542 523 508 564 q 594 431 575 482 q 614 325 614 381 q 581 176 614 244 q 492 67 547 108 q 368 26 436 26 q 233 62 293 26 q 137 163 172 97 q 101 319 101 229 m 360 907 l 556 736 l 582 760 l 360 954 l 138 760 l 165 736 l 360 907 z "},"ğ":{"ha":764,"x_min":58,"x_max":656,"o":"m 76 -42 q 112 -187 76 -124 q 211 -285 147 -250 q 358 -319 275 -319 q 506 -282 439 -319 q 615 -170 574 -244 q 656 14 656 -96 l 656 639 l 614 639 l 614 14 q 578 -151 614 -85 q 483 -248 542 -217 q 358 -279 425 -279 q 233 -249 288 -279 q 149 -165 179 -218 q 119 -42 119 -112 l 76 -42 m 58 319 q 99 143 58 218 q 208 27 139 68 q 360 -14 276 -14 q 506 32 444 -14 q 600 155 567 78 q 633 319 633 232 q 600 485 633 408 q 506 607 567 561 q 360 653 444 653 q 208 612 276 653 q 99 497 139 571 q 58 319 58 422 m 101 319 q 137 476 101 411 q 233 577 172 542 q 368 613 293 613 q 463 588 418 613 q 542 523 508 564 q 594 431 575 482 q 614 325 614 381 q 581 176 614 244 q 492 67 547 108 q 368 26 436 26 q 233 62 293 26 q 137 163 172 97 q 101 319 101 229 m 140 931 q 165 838 140 883 q 238 765 189 793 q 360 736 288 736 q 482 765 433 736 q 555 838 531 793 q 579 931 579 883 l 542 931 q 521 857 542 893 q 460 797 500 821 q 360 772 419 772 q 261 797 301 772 q 200 857 221 821 q 179 931 179 893 l 140 931 z "},"ġ":{"ha":764,"x_min":58,"x_max":656,"o":"m 76 -42 q 112 -187 76 -124 q 211 -285 147 -250 q 358 -319 275 -319 q 506 -282 439 -319 q 615 -170 574 -244 q 656 14 656 -96 l 656 639 l 614 639 l 614 14 q 578 -151 614 -85 q 483 -248 542 -217 q 358 -279 425 -279 q 233 -249 288 -279 q 149 -165 179 -218 q 119 -42 119 -112 l 76 -42 m 58 319 q 99 143 58 218 q 208 27 139 68 q 360 -14 276 -14 q 506 32 444 -14 q 600 155 567 78 q 633 319 633 232 q 600 485 633 408 q 506 607 567 561 q 360 653 444 653 q 208 612 276 653 q 99 497 139 571 q 58 319 58 422 m 101 319 q 137 476 101 411 q 233 577 172 542 q 368 613 293 613 q 463 588 418 613 q 542 523 508 564 q 594 431 575 482 q 614 325 614 381 q 581 176 614 244 q 492 67 547 108 q 368 26 436 26 q 233 62 293 26 q 137 163 172 97 q 101 319 101 229 m 335 786 q 345 763 335 772 q 368 753 356 753 q 392 763 383 753 q 401 786 401 772 q 392 810 401 800 q 368 819 383 819 q 345 810 356 819 q 335 786 335 800 z "},"ģ":{"ha":792,"x_min":58,"x_max":656,"o":"m 76 -42 q 112 -187 76 -124 q 211 -285 147 -250 q 358 -319 275 -319 q 506 -282 439 -319 q 615 -170 574 -244 q 656 14 656 -96 l 656 639 l 614 639 l 614 14 q 578 -151 614 -85 q 483 -248 542 -217 q 358 -279 425 -279 q 233 -249 288 -279 q 149 -165 179 -218 q 119 -42 119 -112 l 76 -42 m 58 319 q 99 143 58 218 q 208 27 139 68 q 360 -14 276 -14 q 506 32 444 -14 q 600 155 567 78 q 633 319 633 232 q 600 485 633 408 q 506 607 567 561 q 360 653 444 653 q 208 612 276 653 q 99 497 139 571 q 58 319 58 422 m 101 319 q 137 476 101 411 q 233 577 172 542 q 368 613 293 613 q 463 588 418 613 q 542 523 508 564 q 594 431 575 482 q 614 325 614 381 q 581 176 614 244 q 492 67 547 108 q 368 26 436 26 q 233 62 293 26 q 137 163 172 97 q 101 319 101 229 m 368 778 l 560 1106 l 532 1121 l 328 801 l 368 778 z "},"h":{"ha":681,"x_min":114,"x_max":567,"o":"m 157 1083 l 114 1083 l 114 0 l 157 0 l 157 1083 m 524 428 l 524 0 l 567 0 l 567 432 q 545 550 567 501 q 481 626 524 599 q 371 653 438 653 q 253 618 306 653 q 171 524 201 583 q 140 389 140 465 l 157 389 q 183 501 157 450 q 257 582 210 551 q 363 613 304 613 q 487 562 450 613 q 524 428 524 511 z "},"ĥ":{"ha":681,"x_min":-76,"x_max":567,"o":"m 157 1083 l 114 1083 l 114 0 l 157 0 l 157 1083 m 524 428 l 524 0 l 567 0 l 567 432 q 545 550 567 501 q 481 626 524 599 q 371 653 438 653 q 252 618 306 653 q 168 524 199 583 q 138 389 138 465 l 157 389 q 183 501 157 450 q 257 582 210 551 q 363 613 304 613 q 487 562 450 613 q 524 428 524 511 m 146 1338 l 340 1167 l 368 1190 l 146 1385 l -76 1190 l -50 1167 l 146 1338 z "},"i":{"ha":293,"x_min":114,"x_max":178,"o":"m 114 947 q 123 925 114 935 q 146 915 132 915 q 169 925 161 915 q 178 947 178 935 q 169 970 178 961 q 146 979 161 979 q 123 970 132 979 q 114 947 114 961 m 125 639 l 125 0 l 168 0 l 168 639 l 125 639 z "},"ì":{"ha":293,"x_min":-71,"x_max":196,"o":"m 125 639 l 125 0 l 168 0 l 168 639 l 125 639 m -71 960 l 171 744 l 196 761 l -33 983 l -71 960 z "},"í":{"ha":293,"x_min":97,"x_max":364,"o":"m 125 639 l 125 0 l 168 0 l 168 639 l 125 639 m 364 960 l 325 983 l 97 761 l 121 744 l 364 960 z "},"î":{"ha":293,"x_min":-76,"x_max":368,"o":"m 125 639 l 125 0 l 168 0 l 168 639 l 125 639 m 146 911 l 342 740 l 368 764 l 146 958 l -76 764 l -49 740 l 146 911 z "},"ï":{"ha":293,"x_min":-7,"x_max":299,"o":"m 125 639 l 125 0 l 168 0 l 168 639 l 125 639 m 232 782 q 242 758 232 768 q 265 749 253 749 q 289 758 279 749 q 299 782 299 768 q 289 806 299 796 q 265 815 279 815 q 242 806 253 815 q 232 782 232 796 m -7 782 q 3 758 -7 768 q 28 749 14 749 q 51 758 42 749 q 60 782 60 768 q 51 806 60 796 q 28 815 42 815 q 3 806 14 815 q -7 782 -7 796 z "},"ĩ":{"ha":293,"x_min":-32,"x_max":349,"o":"m 125 639 l 125 0 l 168 0 l 168 639 l 125 639 m -32 811 l -1 794 q 5 827 -1 811 q 28 854 11 843 q 72 865 44 865 q 127 849 104 865 q 176 817 150 833 q 240 800 203 800 q 286 810 265 800 q 322 838 307 819 q 349 882 338 857 l 321 903 q 288 853 304 869 q 243 836 271 836 q 196 846 215 836 q 160 869 176 856 q 122 892 143 882 q 71 901 101 901 q 17 889 40 901 q -18 856 -6 876 q -32 811 -31 836 z "},"ī":{"ha":293,"x_min":-62,"x_max":424,"o":"m 125 639 l 125 0 l 168 0 l 168 639 l 125 639 m -62 800 l 424 800 l 424 840 l -62 840 l -62 800 z "},"ĭ":{"ha":293,"x_min":-74,"x_max":365,"o":"m 125 639 l 125 0 l 168 0 l 168 639 l 125 639 m -74 931 q -49 838 -74 883 q 24 765 -25 793 q 146 736 74 736 q 268 765 219 736 q 341 838 317 793 q 365 931 365 883 l 326 931 q 306 857 326 893 q 246 797 286 821 q 146 772 206 772 q 47 797 86 772 q -14 857 7 821 q -35 931 -35 893 l -74 931 z "},"į":{"ha":293,"x_min":-60,"x_max":224,"o":"m 114 947 q 123 925 114 935 q 146 915 132 915 q 169 925 161 915 q 178 947 178 935 q 169 970 178 961 q 146 979 161 979 q 123 970 132 979 q 114 947 114 961 m 125 639 l 125 0 l 168 0 l 168 639 l 125 639 m 203 -222 q 159 -253 188 -240 q 93 -267 131 -267 q 15 -244 47 -267 q -18 -178 -18 -222 q 10 -109 -18 -142 q 81 -49 39 -76 q 168 0 124 -21 l 144 19 q 49 -35 96 -6 q -29 -103 1 -65 q -60 -186 -60 -140 q -42 -249 -60 -222 q 9 -291 -25 -276 q 92 -306 43 -306 q 172 -288 136 -306 q 224 -250 208 -271 l 203 -222 z "},"j":{"ha":279,"x_min":-126,"x_max":163,"o":"m 99 947 q 108 925 99 935 q 131 915 117 915 q 153 925 144 915 q 163 947 163 935 q 153 970 163 961 q 131 979 144 979 q 108 970 117 979 q 99 947 99 961 m -101 -208 l -126 -242 q -97 -272 -114 -257 q -58 -296 -81 -286 q -7 -306 -36 -306 q 87 -278 51 -306 q 138 -205 122 -251 q 154 -106 154 -158 l 154 639 l 111 639 l 111 -101 q 101 -178 111 -142 q 67 -239 92 -215 q -4 -262 42 -262 q -62 -245 -39 -262 q -101 -208 -86 -228 z "},"ĵ":{"ha":279,"x_min":-126,"x_max":354,"o":"m -101 -208 l -126 -242 q -99 -270 -115 -256 q -59 -295 -82 -285 q -7 -306 -36 -306 q 87 -278 51 -306 q 138 -206 122 -251 q 154 -106 154 -160 l 154 639 l 111 639 l 111 -101 q 101 -178 111 -142 q 65 -239 90 -215 q -4 -262 40 -262 q -61 -247 -37 -262 q -101 -208 -85 -231 m 132 907 l 328 736 l 354 760 l 132 954 l -90 760 l -62 736 l 132 907 z "},"k":{"ha":544,"x_min":107,"x_max":535,"o":"m 107 1083 l 107 0 l 150 0 l 150 1083 l 107 1083 m 453 639 l 135 375 l 481 0 l 535 0 l 190 375 l 508 639 l 453 639 z "},"ķ":{"ha":544,"x_min":107,"x_max":535,"o":"m 107 1083 l 107 0 l 150 0 l 150 1083 l 107 1083 m 453 639 l 135 375 l 481 0 l 535 0 l 190 375 l 508 639 l 453 639 m 368 -83 l 229 -437 l 260 -447 l 413 -100 l 368 -83 z "},"l":{"ha":271,"x_min":114,"x_max":157,"o":"m 114 1083 l 114 0 l 157 0 l 157 1083 l 114 1083 z "},"ĺ":{"ha":271,"x_min":94,"x_max":361,"o":"m 114 1083 l 114 0 l 157 0 l 157 1083 l 114 1083 m 361 1382 l 322 1406 l 94 1183 l 117 1167 l 361 1382 z "},"ļ":{"ha":271,"x_min":25,"x_max":207,"o":"m 114 1083 l 114 0 l 157 0 l 157 1083 l 114 1083 m 164 -83 l 25 -437 l 54 -447 l 207 -100 l 164 -83 z "},"ľ":{"ha":319,"x_min":114,"x_max":476,"o":"m 114 1083 l 114 0 l 157 0 l 157 1083 l 114 1083 m 433 1068 l 294 714 l 324 703 l 476 1050 l 433 1068 z "},"m":{"ha":994,"x_min":114,"x_max":881,"o":"m 881 432 q 861 549 881 500 q 804 626 842 599 q 710 653 767 653 q 592 607 646 653 q 513 485 538 561 q 461 608 503 563 q 347 653 419 653 q 231 607 283 653 q 157 483 179 561 l 157 639 l 114 639 l 114 0 l 157 0 l 157 389 q 183 501 157 450 q 250 583 208 553 q 339 613 292 613 q 443 563 410 613 q 476 428 476 513 l 476 0 l 518 0 l 518 389 q 544 501 518 450 q 612 583 569 553 q 701 613 654 613 q 806 563 772 613 q 839 428 839 513 l 839 0 l 881 0 l 881 432 z "},"n":{"ha":681,"x_min":114,"x_max":567,"o":"m 524 428 l 524 0 l 567 0 l 567 432 q 519 592 567 532 q 371 653 471 653 q 237 606 294 653 q 157 481 179 558 l 157 639 l 114 639 l 114 0 l 157 0 l 157 389 q 183 501 157 450 q 257 582 210 551 q 363 613 304 613 q 487 562 450 613 q 524 428 524 511 z "},"ñ":{"ha":681,"x_min":114,"x_max":567,"o":"m 157 639 l 114 639 l 114 0 l 157 0 l 157 639 m 524 428 l 524 0 l 567 0 l 567 432 q 518 594 567 535 q 371 653 469 653 q 252 618 306 653 q 168 524 199 583 q 138 389 138 465 l 157 389 q 183 501 157 450 q 257 582 210 551 q 363 613 304 613 q 487 562 450 613 q 524 428 524 511 m 150 772 l 181 756 q 187 788 181 772 q 210 815 193 804 q 254 826 226 826 q 309 810 286 826 q 358 778 332 794 q 422 761 385 761 q 468 771 447 761 q 504 799 489 781 q 531 843 519 818 l 503 864 q 469 814 486 831 q 425 797 453 797 q 378 807 397 797 q 342 830 358 817 q 304 853 325 843 q 253 863 283 863 q 199 850 222 863 q 164 817 176 838 q 150 772 151 797 z "},"ń":{"ha":681,"x_min":114,"x_max":567,"o":"m 157 639 l 114 639 l 114 0 l 157 0 l 157 639 m 524 428 l 524 0 l 567 0 l 567 432 q 518 594 567 535 q 371 653 469 653 q 253 618 306 653 q 171 524 201 583 q 140 389 140 465 l 157 389 q 183 501 157 450 q 257 582 210 551 q 363 613 304 613 q 487 562 450 613 q 524 428 524 511 m 540 961 l 501 985 l 274 763 l 297 746 l 540 961 z "},"ņ":{"ha":681,"x_min":114,"x_max":567,"o":"m 157 639 l 114 639 l 114 0 l 157 0 l 157 639 m 524 428 l 524 0 l 567 0 l 567 432 q 518 594 567 535 q 371 653 469 653 q 252 618 306 653 q 168 524 199 583 q 138 389 138 465 l 157 389 q 183 501 157 450 q 257 582 210 551 q 363 613 304 613 q 487 562 450 613 q 524 428 524 511 m 358 -64 l 219 -418 l 249 -428 l 401 -81 l 358 -64 z "},"ň":{"ha":681,"x_min":114,"x_max":567,"o":"m 157 639 l 114 639 l 114 0 l 157 0 l 157 639 m 524 428 l 524 0 l 567 0 l 567 432 q 518 594 567 535 q 371 653 469 653 q 252 618 306 653 q 168 524 199 583 q 138 389 138 465 l 157 389 q 183 501 157 450 q 257 582 210 551 q 363 613 304 613 q 487 562 450 613 q 524 428 524 511 m 340 782 l 146 954 l 118 931 l 340 736 l 563 931 l 535 954 l 340 782 z "},"o":{"ha":768,"x_min":58,"x_max":710,"o":"m 58 319 q 101 148 58 224 q 218 29 144 72 q 383 -14 292 -14 q 550 29 476 -14 q 667 148 624 72 q 710 319 710 224 q 667 492 710 417 q 550 610 624 567 q 383 653 476 653 q 218 610 292 653 q 101 492 144 567 q 58 319 58 417 m 101 319 q 139 471 101 404 q 241 575 176 538 q 385 613 306 613 q 528 575 464 613 q 629 471 592 538 q 667 319 667 404 q 629 168 667 235 q 528 64 592 101 q 385 26 464 26 q 241 64 306 26 q 139 167 176 101 q 101 319 101 233 z "},"ò":{"ha":768,"x_min":58,"x_max":710,"o":"m 58 319 q 101 148 58 224 q 218 29 144 72 q 383 -14 292 -14 q 550 29 476 -14 q 667 148 624 72 q 710 319 710 224 q 667 492 710 417 q 550 610 624 567 q 383 653 476 653 q 218 610 292 653 q 101 492 144 567 q 58 319 58 417 m 101 319 q 139 471 101 404 q 241 575 176 538 q 385 613 306 613 q 528 575 464 613 q 629 471 592 538 q 667 319 667 404 q 629 168 667 235 q 528 64 592 101 q 385 26 464 26 q 241 64 306 26 q 139 167 176 101 q 101 319 101 233 m 185 960 l 429 744 l 451 761 l 224 983 l 185 960 z "},"ó":{"ha":768,"x_min":58,"x_max":710,"o":"m 58 319 q 101 148 58 224 q 218 29 144 72 q 383 -14 292 -14 q 550 29 476 -14 q 667 148 624 72 q 710 319 710 224 q 667 492 710 417 q 550 610 624 567 q 383 653 476 653 q 218 610 292 653 q 101 492 144 567 q 58 319 58 417 m 101 319 q 139 471 101 404 q 241 575 176 538 q 385 613 306 613 q 528 575 464 613 q 629 471 592 538 q 667 319 667 404 q 629 168 667 235 q 528 64 592 101 q 385 26 464 26 q 241 64 306 26 q 139 167 176 101 q 101 319 101 233 m 583 960 l 544 983 l 317 761 l 339 744 l 583 960 z "},"ô":{"ha":768,"x_min":58,"x_max":710,"o":"m 58 319 q 101 148 58 224 q 218 29 144 72 q 383 -14 292 -14 q 550 29 476 -14 q 667 148 624 72 q 710 319 710 224 q 667 492 710 417 q 550 610 624 567 q 383 653 476 653 q 218 610 292 653 q 101 492 144 567 q 58 319 58 417 m 101 319 q 139 471 101 404 q 241 575 176 538 q 385 613 306 613 q 528 575 464 613 q 629 471 592 538 q 667 319 667 404 q 629 168 667 235 q 528 64 592 101 q 385 26 464 26 q 241 64 306 26 q 139 167 176 101 q 101 319 101 233 m 385 935 l 579 764 l 607 788 l 385 982 l 163 788 l 189 764 l 385 935 z "},"õ":{"ha":768,"x_min":58,"x_max":710,"o":"m 58 319 q 101 148 58 224 q 218 29 144 72 q 385 -14 292 -14 q 550 29 476 -14 q 667 148 624 72 q 710 319 710 224 q 667 492 710 417 q 550 610 624 567 q 385 653 476 653 q 218 610 292 653 q 101 492 144 567 q 58 319 58 417 m 101 319 q 139 471 101 404 q 241 575 176 538 q 385 613 306 613 q 528 575 464 613 q 629 471 592 538 q 667 319 667 404 q 629 168 667 235 q 528 64 592 101 q 385 26 464 26 q 241 64 306 26 q 139 168 176 101 q 101 319 101 235 m 193 772 l 225 756 q 231 788 225 772 q 254 815 238 804 q 299 826 271 826 q 353 810 331 826 q 403 778 376 794 q 467 761 429 761 q 512 771 492 761 q 548 799 532 781 q 575 843 564 818 l 546 864 q 513 814 529 831 q 468 797 496 797 q 421 807 440 797 q 385 830 401 817 q 347 853 368 843 q 296 863 326 863 q 242 850 265 863 q 208 817 219 838 q 193 772 196 797 z "},"ö":{"ha":768,"x_min":58,"x_max":710,"o":"m 58 319 q 101 148 58 224 q 218 29 144 72 q 383 -14 292 -14 q 550 29 476 -14 q 667 148 624 72 q 710 319 710 224 q 667 492 710 417 q 550 610 624 567 q 383 653 476 653 q 218 610 292 653 q 101 492 144 567 q 58 319 58 417 m 101 319 q 139 471 101 404 q 241 575 176 538 q 385 613 306 613 q 528 575 464 613 q 629 471 592 538 q 667 319 667 404 q 629 168 667 235 q 528 64 592 101 q 385 26 464 26 q 241 64 306 26 q 139 167 176 101 q 101 319 101 233 m 490 801 q 500 778 490 788 q 524 768 510 768 q 547 778 538 768 q 556 801 556 788 q 547 825 556 815 q 524 835 538 835 q 500 825 510 835 q 490 801 490 815 m 213 801 q 222 778 213 788 q 246 768 232 768 q 269 778 260 768 q 278 801 278 788 q 269 825 278 815 q 246 835 260 835 q 222 825 232 835 q 213 801 213 815 z "},"ō":{"ha":768,"x_min":58,"x_max":710,"o":"m 58 319 q 101 148 58 224 q 218 29 144 72 q 383 -14 292 -14 q 550 29 476 -14 q 667 148 624 72 q 710 319 710 224 q 667 492 710 417 q 550 610 624 567 q 383 653 476 653 q 218 610 292 653 q 101 492 144 567 q 58 319 58 417 m 101 319 q 139 471 101 404 q 241 575 176 538 q 385 613 306 613 q 528 575 464 613 q 629 471 592 538 q 667 319 667 404 q 629 168 667 235 q 528 64 592 101 q 385 26 464 26 q 241 64 306 26 q 139 167 176 101 q 101 319 101 233 m 142 756 l 628 756 l 628 796 l 142 796 l 142 756 z "},"ŏ":{"ha":768,"x_min":58,"x_max":710,"o":"m 58 319 q 101 148 58 224 q 218 29 144 72 q 383 -14 292 -14 q 550 29 476 -14 q 667 148 624 72 q 710 319 710 224 q 667 492 710 417 q 550 610 624 567 q 383 653 476 653 q 218 610 292 653 q 101 492 144 567 q 58 319 58 417 m 101 319 q 139 471 101 404 q 241 575 176 538 q 385 613 306 613 q 528 575 464 613 q 629 471 592 538 q 667 319 667 404 q 629 168 667 235 q 528 64 592 101 q 385 26 464 26 q 241 64 306 26 q 139 167 176 101 q 101 319 101 233 m 165 931 q 190 838 165 883 q 263 765 214 793 q 385 736 313 736 q 507 765 458 736 q 580 838 556 793 q 604 931 604 883 l 565 931 q 544 857 565 893 q 483 797 524 821 q 385 772 443 772 q 285 797 325 772 q 224 857 244 821 q 203 931 203 893 l 165 931 z "},"ő":{"ha":768,"x_min":58,"x_max":710,"o":"m 304 736 l 467 1015 l 424 1029 l 278 746 l 304 736 m 469 736 l 632 1015 l 588 1029 l 443 746 l 469 736 m 58 319 q 101 148 58 224 q 218 29 144 72 q 383 -14 292 -14 q 550 29 476 -14 q 667 148 624 72 q 710 319 710 224 q 667 492 710 417 q 550 610 624 567 q 383 653 476 653 q 218 610 292 653 q 101 492 144 567 q 58 319 58 417 m 101 319 q 139 471 101 404 q 241 575 176 538 q 385 613 306 613 q 528 575 464 613 q 629 471 592 538 q 667 319 667 404 q 629 168 667 235 q 528 64 592 101 q 385 26 464 26 q 241 64 306 26 q 139 167 176 101 q 101 319 101 233 z "},"p":{"ha":764,"x_min":107,"x_max":704,"o":"m 150 -306 l 150 639 l 107 639 l 107 -306 l 150 -306 m 704 319 q 665 497 704 422 q 556 612 625 571 q 403 653 488 653 q 258 607 319 653 q 164 485 197 561 q 131 319 131 408 q 164 155 131 232 q 258 32 197 78 q 403 -14 319 -14 q 556 27 488 -14 q 665 143 625 68 q 704 319 704 218 m 663 319 q 626 163 663 229 q 531 62 590 97 q 396 26 471 26 q 273 67 329 26 q 183 174 217 108 q 150 319 150 240 q 183 465 150 399 q 273 572 217 531 q 396 613 329 613 q 531 577 471 613 q 626 476 590 542 q 663 319 663 411 z "},"q":{"ha":764,"x_min":58,"x_max":656,"o":"m 614 -306 l 656 -306 l 656 639 l 614 639 l 614 -306 m 58 319 q 99 143 58 218 q 208 27 139 68 q 360 -14 276 -14 q 506 32 444 -14 q 600 155 567 78 q 633 319 633 232 q 600 485 633 408 q 506 607 567 561 q 360 653 444 653 q 208 612 276 653 q 99 497 139 571 q 58 319 58 422 m 101 319 q 137 476 101 411 q 233 577 172 542 q 368 613 293 613 q 492 572 436 613 q 581 465 547 531 q 614 319 614 399 q 581 174 614 240 q 492 67 547 108 q 368 26 436 26 q 233 62 293 26 q 137 163 172 97 q 101 319 101 229 z "},"r":{"ha":425,"x_min":114,"x_max":407,"o":"m 157 639 l 114 639 l 114 0 l 157 0 l 157 639 m 383 583 l 407 618 q 363 644 388 635 q 311 653 338 653 q 217 618 257 653 q 158 524 178 583 q 138 389 138 465 l 157 389 q 172 501 157 450 q 219 582 186 551 q 303 613 251 613 q 344 605 325 613 q 383 583 364 597 z "},"ŕ":{"ha":425,"x_min":114,"x_max":447,"o":"m 157 639 l 114 639 l 114 0 l 157 0 l 157 639 m 383 583 l 407 618 q 363 644 388 635 q 311 653 338 653 q 217 618 257 653 q 158 524 178 583 q 138 389 138 465 l 157 389 q 172 501 157 450 q 219 582 186 551 q 303 613 251 613 q 344 605 325 613 q 383 583 364 597 m 447 951 l 410 975 l 181 753 l 203 736 l 447 951 z "},"ŗ":{"ha":425,"x_min":4,"x_max":407,"o":"m 157 639 l 114 639 l 114 0 l 157 0 l 157 639 m 383 583 l 407 618 q 363 644 388 635 q 311 653 338 653 q 217 618 257 653 q 158 524 178 583 q 138 389 138 465 l 157 389 q 172 501 157 450 q 219 582 186 551 q 303 613 251 613 q 344 605 325 613 q 383 583 364 597 m 143 -83 l 4 -437 l 35 -447 l 188 -100 l 143 -83 z "},"ř":{"ha":425,"x_min":39,"x_max":483,"o":"m 157 639 l 114 639 l 114 0 l 157 0 l 157 639 m 383 583 l 407 618 q 363 644 388 635 q 311 653 338 653 q 217 618 257 653 q 158 524 178 583 q 138 389 138 465 l 157 389 q 172 501 157 450 q 219 582 186 551 q 303 613 251 613 q 344 605 325 613 q 383 583 364 597 m 261 782 l 67 954 l 39 931 l 261 736 l 483 931 l 454 954 l 261 782 z "},"ȓ":{"ha":425,"x_min":42,"x_max":481,"o":"m 157 639 l 114 639 l 114 0 l 157 0 l 157 639 m 383 583 l 407 618 q 363 644 388 635 q 311 653 338 653 q 217 618 257 653 q 158 524 178 583 q 138 389 138 465 l 157 389 q 172 501 157 450 q 219 582 186 551 q 303 613 251 613 q 344 605 325 613 q 383 583 364 597 m 42 756 q 66 849 42 804 q 140 922 90 893 q 261 950 189 950 q 383 922 335 950 q 456 849 432 893 q 481 756 481 804 l 442 756 q 421 829 442 793 q 360 890 400 865 q 261 914 321 914 q 161 890 201 914 q 101 829 121 865 q 81 756 81 793 l 42 756 z "},"s":{"ha":560,"x_min":56,"x_max":478,"o":"m 92 171 l 56 154 q 92 74 65 113 q 165 10 118 35 q 282 -14 213 -14 q 424 36 369 -14 q 478 168 478 86 q 451 253 478 219 q 383 310 425 288 q 292 349 340 333 q 211 378 249 363 q 151 421 174 393 q 129 497 129 449 q 168 583 129 554 q 263 613 207 613 q 378 577 336 613 q 439 496 419 542 l 475 517 q 433 583 461 553 q 365 632 406 613 q 267 651 324 651 q 178 633 219 651 q 113 581 138 615 q 88 494 88 547 q 113 401 88 436 q 181 347 139 367 q 269 313 222 328 q 351 281 314 299 q 412 235 389 263 q 435 164 435 207 q 392 62 435 99 q 283 25 350 25 q 187 46 226 25 q 124 100 147 67 q 92 171 101 133 z "},"ś":{"ha":560,"x_min":50,"x_max":501,"o":"m 86 210 l 50 192 q 87 93 60 140 q 162 16 114 46 q 278 -14 210 -14 q 422 33 365 -14 q 478 168 478 79 q 452 251 478 217 q 386 307 426 285 q 300 344 346 329 q 217 374 256 358 q 154 418 178 390 q 131 493 131 446 q 174 581 131 551 q 276 610 217 610 q 351 594 319 610 q 405 552 383 578 q 439 496 426 526 l 475 517 q 437 583 463 553 q 371 632 411 613 q 276 651 331 651 q 183 633 225 651 q 114 580 140 614 q 88 494 88 546 q 113 403 88 438 q 180 350 139 369 q 269 314 221 331 q 351 281 314 300 q 412 235 389 263 q 435 165 435 207 q 392 63 435 100 q 281 26 349 26 q 181 53 221 26 q 119 122 142 79 q 86 210 96 164 m 501 951 l 463 975 l 235 753 l 260 736 l 501 951 z "},"ŝ":{"ha":560,"x_min":50,"x_max":499,"o":"m 86 210 l 50 192 q 87 93 60 140 q 162 16 114 46 q 278 -14 210 -14 q 422 33 365 -14 q 478 168 478 79 q 452 251 478 217 q 386 307 426 285 q 300 344 346 329 q 217 374 256 358 q 154 418 178 390 q 131 493 131 446 q 174 581 131 551 q 276 610 217 610 q 351 594 319 610 q 405 552 383 578 q 439 496 426 526 l 475 517 q 437 583 463 553 q 371 632 411 613 q 276 651 331 651 q 183 633 225 651 q 114 580 140 614 q 88 494 88 546 q 113 403 88 438 q 180 350 139 369 q 269 314 221 331 q 351 281 314 300 q 412 235 389 263 q 435 165 435 207 q 392 63 435 100 q 281 26 349 26 q 181 53 221 26 q 119 122 142 79 q 86 210 96 164 m 276 907 l 471 736 l 499 760 l 276 954 l 54 760 l 81 736 l 276 907 z "},"ş":{"ha":560,"x_min":50,"x_max":478,"o":"m 85 211 l 50 192 q 92 93 64 140 q 167 16 119 46 q 282 -14 214 -14 q 422 33 367 -14 q 478 168 478 81 q 452 253 478 219 q 386 310 426 288 q 300 346 346 332 q 217 376 256 360 q 153 419 178 392 q 129 494 129 447 q 173 583 129 554 q 276 611 217 611 q 380 576 340 611 q 439 497 419 542 l 475 517 q 406 610 454 569 q 276 651 357 651 q 183 634 225 651 q 114 582 140 617 q 88 493 88 547 q 113 400 88 433 q 180 348 139 367 q 269 313 221 329 q 351 281 314 299 q 412 235 389 263 q 435 164 435 207 q 392 63 435 100 q 282 26 349 26 q 187 53 226 26 q 123 123 147 81 q 85 211 99 165 m 279 21 l 192 -133 q 242 -108 215 -117 q 294 -100 269 -100 q 351 -119 326 -100 q 376 -178 376 -139 q 341 -251 376 -226 q 261 -276 306 -276 q 206 -266 228 -276 q 157 -233 183 -256 l 138 -256 q 194 -297 167 -285 q 261 -308 222 -308 q 333 -293 300 -308 q 388 -249 367 -278 q 410 -178 410 -219 q 394 -121 410 -143 q 355 -87 378 -99 q 308 -75 332 -75 q 269 -81 282 -75 q 236 -99 256 -87 l 317 21 l 279 21 z "},"š":{"ha":560,"x_min":50,"x_max":499,"o":"m 86 210 l 50 192 q 87 93 60 140 q 162 16 114 46 q 278 -14 210 -14 q 422 33 365 -14 q 478 168 478 79 q 452 251 478 217 q 386 307 426 285 q 300 344 346 329 q 217 374 256 358 q 154 418 178 390 q 131 493 131 446 q 174 581 131 551 q 276 610 217 610 q 351 594 319 610 q 405 552 383 578 q 439 496 426 526 l 475 517 q 437 583 463 553 q 371 632 411 613 q 276 651 331 651 q 183 633 225 651 q 114 580 140 614 q 88 494 88 546 q 113 403 88 438 q 180 350 139 369 q 269 314 221 331 q 351 281 314 300 q 412 235 389 263 q 435 165 435 207 q 392 63 435 100 q 281 26 349 26 q 181 53 221 26 q 119 122 142 79 q 86 210 96 164 m 276 782 l 82 954 l 54 931 l 276 736 l 499 931 l 469 954 l 276 782 z "},"ș":{"ha":560,"x_min":50,"x_max":478,"o":"m 86 210 l 50 192 q 87 93 60 140 q 162 16 114 46 q 278 -14 210 -14 q 422 33 365 -14 q 478 168 478 79 q 452 251 478 217 q 386 307 426 285 q 300 344 346 329 q 217 374 256 358 q 154 418 178 390 q 131 493 131 446 q 174 581 131 551 q 276 610 217 610 q 351 594 319 610 q 405 552 383 578 q 439 496 426 526 l 475 517 q 437 583 463 553 q 371 632 411 613 q 276 651 331 651 q 183 633 225 651 q 114 580 140 614 q 88 494 88 546 q 113 403 88 438 q 180 350 139 369 q 269 314 221 331 q 351 281 314 300 q 412 235 389 263 q 435 165 435 207 q 392 63 435 100 q 281 26 349 26 q 181 53 221 26 q 119 122 142 79 q 86 210 96 164 m 325 -97 l 186 -451 l 217 -461 l 369 -114 l 325 -97 z "},"t":{"ha":285,"x_min":17,"x_max":268,"o":"m 17 639 l 17 599 l 268 599 l 268 639 l 17 639 m 121 861 l 121 0 l 164 0 l 164 861 l 121 861 z "},"ţ":{"ha":285,"x_min":-19,"x_max":268,"o":"m 124 11 l 35 -144 q 85 -119 58 -128 q 138 -111 113 -111 q 194 -130 169 -111 q 219 -189 219 -149 q 184 -262 219 -237 q 104 -287 149 -287 q 50 -277 72 -287 q 1 -244 28 -267 l -19 -267 q 38 -308 10 -296 q 104 -319 65 -319 q 176 -304 143 -319 q 231 -260 210 -289 q 253 -189 253 -231 q 237 -132 253 -154 q 198 -98 221 -110 q 151 -86 175 -86 q 113 -92 126 -86 q 79 -110 100 -97 l 160 11 l 124 11 m 17 639 l 17 599 l 268 599 l 268 639 l 17 639 m 121 861 l 121 0 l 164 0 l 164 861 l 121 861 z "},"ť":{"ha":418,"x_min":17,"x_max":432,"o":"m 17 639 l 17 599 l 268 599 l 268 639 l 17 639 m 121 861 l 121 0 l 164 0 l 164 861 l 121 861 m 389 1090 l 250 738 l 279 726 l 432 1074 l 389 1090 z "},"ț":{"ha":285,"x_min":17,"x_max":268,"o":"m 17 639 l 17 599 l 268 599 l 268 639 l 17 639 m 121 861 l 121 0 l 164 0 l 164 861 l 121 861 m 190 -83 l 51 -437 l 81 -447 l 233 -100 l 190 -83 z "},"u":{"ha":681,"x_min":114,"x_max":567,"o":"m 157 221 l 157 639 l 114 639 l 114 217 q 162 49 114 111 q 308 -14 210 -14 q 444 33 386 -14 q 524 158 501 81 l 524 0 l 567 0 l 567 639 l 524 639 l 524 250 q 497 140 524 190 q 423 58 469 89 q 317 28 376 28 q 194 80 232 28 q 157 221 157 132 z "},"ù":{"ha":681,"x_min":114,"x_max":567,"o":"m 524 0 l 567 0 l 567 639 l 524 639 l 524 0 m 157 221 l 157 639 l 114 639 l 114 217 q 162 47 114 107 q 308 -14 210 -14 q 428 21 375 -14 q 512 115 481 56 q 543 250 543 174 l 524 250 q 497 139 524 190 q 423 57 469 88 q 317 26 376 26 q 194 78 232 26 q 157 221 157 131 m 139 969 l 382 754 l 406 771 l 178 993 l 139 969 z "},"ú":{"ha":681,"x_min":114,"x_max":567,"o":"m 524 0 l 567 0 l 567 639 l 524 639 l 524 0 m 157 221 l 157 639 l 114 639 l 114 217 q 162 47 114 107 q 308 -14 210 -14 q 428 21 375 -14 q 512 115 481 56 q 543 250 543 174 l 524 250 q 497 139 524 190 q 423 57 469 88 q 317 26 376 26 q 194 78 232 26 q 157 221 157 131 m 542 969 l 503 993 l 275 771 l 299 754 l 542 969 z "},"û":{"ha":681,"x_min":114,"x_max":567,"o":"m 524 0 l 567 0 l 567 639 l 524 639 l 524 0 m 157 221 l 157 639 l 114 639 l 114 217 q 162 47 114 107 q 308 -14 210 -14 q 428 21 375 -14 q 512 115 481 56 q 543 250 543 174 l 524 250 q 497 139 524 190 q 423 57 469 88 q 317 26 376 26 q 194 78 232 26 q 157 221 157 131 m 340 925 l 535 754 l 563 778 l 340 972 l 118 778 l 144 754 l 340 925 z "},"ü":{"ha":681,"x_min":114,"x_max":567,"o":"m 524 0 l 567 0 l 567 639 l 524 639 l 524 0 m 157 221 l 157 639 l 114 639 l 114 217 q 162 47 114 107 q 308 -14 210 -14 q 428 21 375 -14 q 512 115 481 56 q 543 250 543 174 l 524 250 q 497 139 524 190 q 423 57 469 88 q 317 26 376 26 q 194 78 232 26 q 157 221 157 131 m 426 797 q 437 774 426 783 q 460 764 447 764 q 483 774 474 764 q 492 797 492 783 q 483 821 492 811 q 460 831 474 831 q 437 821 447 831 q 426 797 426 811 m 188 797 q 198 774 188 783 q 221 764 208 764 q 244 774 235 764 q 254 797 254 783 q 244 821 254 811 q 221 831 235 831 q 198 821 208 831 q 188 797 188 811 z "},"ũ":{"ha":681,"x_min":114,"x_max":567,"o":"m 524 0 l 567 0 l 567 639 l 524 639 l 524 0 m 157 221 l 157 639 l 114 639 l 114 217 q 162 47 114 107 q 308 -14 210 -14 q 427 21 375 -14 q 509 115 479 56 q 539 250 539 174 l 524 250 q 497 139 524 190 q 423 57 469 88 q 317 26 376 26 q 194 78 232 26 q 157 221 157 131 m 150 753 l 181 736 q 187 769 181 753 q 210 796 193 785 q 254 807 226 807 q 309 791 286 807 q 358 758 332 775 q 422 742 385 742 q 468 751 447 742 q 504 780 489 761 q 531 824 519 799 l 503 844 q 469 794 486 811 q 425 778 453 778 q 378 788 397 778 q 342 810 358 797 q 304 833 325 824 q 253 843 283 843 q 199 830 222 843 q 164 797 176 817 q 150 753 151 776 z "},"ū":{"ha":681,"x_min":97,"x_max":583,"o":"m 524 0 l 567 0 l 567 639 l 524 639 l 524 0 m 157 221 l 157 639 l 114 639 l 114 217 q 162 47 114 107 q 308 -14 210 -14 q 427 21 375 -14 q 509 115 479 56 q 539 250 539 174 l 524 250 q 497 139 524 190 q 423 57 469 88 q 317 26 376 26 q 194 78 232 26 q 157 221 157 131 m 97 736 l 583 736 l 583 776 l 97 776 l 97 736 z "},"ŭ":{"ha":681,"x_min":114,"x_max":567,"o":"m 524 0 l 567 0 l 567 639 l 524 639 l 524 0 m 157 221 l 157 639 l 114 639 l 114 217 q 162 47 114 107 q 308 -14 210 -14 q 427 21 375 -14 q 509 115 479 56 q 539 250 539 174 l 524 250 q 497 139 524 190 q 423 57 469 88 q 317 26 376 26 q 194 78 232 26 q 157 221 157 131 m 121 931 q 145 838 121 883 q 219 765 169 793 q 340 736 268 736 q 463 765 414 736 q 535 838 511 793 q 560 931 560 883 l 521 931 q 501 857 521 893 q 440 797 481 821 q 340 772 400 772 q 242 797 282 772 q 181 857 201 821 q 160 931 160 893 l 121 931 z "},"ů":{"ha":681,"x_min":114,"x_max":567,"o":"m 524 0 l 567 0 l 567 639 l 524 639 l 524 0 m 157 221 l 157 639 l 114 639 l 114 217 q 162 47 114 107 q 308 -14 210 -14 q 427 21 375 -14 q 509 115 479 56 q 539 250 539 174 l 524 250 q 497 139 524 190 q 423 57 469 88 q 317 26 376 26 q 194 78 232 26 q 157 221 157 131 m 199 875 q 242 774 199 813 q 340 736 286 736 q 438 774 394 736 q 482 875 482 813 q 438 976 482 938 q 340 1014 394 1014 q 242 976 286 1014 q 199 875 199 938 m 229 875 q 263 955 229 925 q 340 985 297 985 q 417 955 383 985 q 451 875 451 925 q 417 795 451 825 q 340 765 383 765 q 263 795 297 765 q 229 875 229 825 z "},"ű":{"ha":681,"x_min":114,"x_max":589,"o":"m 261 736 l 424 1015 l 381 1029 l 235 746 l 261 736 m 426 736 l 589 1015 l 544 1029 l 400 746 l 426 736 m 157 221 l 157 639 l 114 639 l 114 217 q 162 49 114 111 q 308 -14 210 -14 q 444 33 386 -14 q 524 158 501 81 l 524 0 l 567 0 l 567 639 l 524 639 l 524 250 q 497 140 524 190 q 423 58 469 89 q 317 28 376 28 q 194 80 232 28 q 157 221 157 132 z "},"ų":{"ha":681,"x_min":114,"x_max":622,"o":"m 601 -222 q 558 -253 588 -240 q 492 -267 529 -267 q 415 -244 447 -267 q 382 -178 382 -222 q 410 -109 382 -142 q 480 -49 438 -76 q 567 0 522 -21 l 543 19 q 447 -35 494 -6 q 369 -103 400 -65 q 339 -186 339 -140 q 357 -249 339 -222 q 408 -291 375 -276 q 490 -306 442 -306 q 571 -288 535 -306 q 622 -250 607 -271 l 601 -222 m 157 221 l 157 639 l 114 639 l 114 217 q 162 49 114 111 q 308 -14 210 -14 q 444 33 386 -14 q 524 158 501 81 l 524 0 l 567 0 l 567 639 l 524 639 l 524 250 q 497 140 524 190 q 423 58 469 89 q 317 28 376 28 q 194 80 232 28 q 157 221 157 132 z "},"v":{"ha":592,"x_min":10,"x_max":582,"o":"m 10 639 l 296 -29 l 582 639 l 533 639 l 296 65 l 58 639 l 10 639 z "},"w":{"ha":886,"x_min":17,"x_max":869,"o":"m 17 639 l 243 -29 l 436 556 l 643 -29 l 869 639 l 822 639 l 640 82 l 436 668 l 244 83 l 64 639 l 17 639 z "},"ŵ":{"ha":886,"x_min":17,"x_max":869,"o":"m 17 639 l 243 -29 l 436 556 l 643 -29 l 869 639 l 822 639 l 640 82 l 436 668 l 244 83 l 64 639 l 17 639 m 436 922 l 631 751 l 658 775 l 436 969 l 214 775 l 240 751 l 436 922 z "},"ẁ":{"ha":886,"x_min":17,"x_max":869,"o":"m 433 751 l 457 768 l 229 990 l 190 967 l 433 751 m 17 639 l 243 -29 l 436 556 l 643 -29 l 869 639 l 822 639 l 640 82 l 436 668 l 244 83 l 64 639 l 17 639 z "},"ẃ":{"ha":886,"x_min":17,"x_max":869,"o":"m 439 751 l 682 967 l 643 990 l 415 768 l 439 751 m 17 639 l 243 -29 l 436 556 l 643 -29 l 869 639 l 822 639 l 640 82 l 436 668 l 244 83 l 64 639 l 17 639 z "},"ẅ":{"ha":886,"x_min":17,"x_max":869,"o":"m 542 783 q 552 761 542 771 q 575 751 563 751 q 599 761 589 751 q 608 783 608 771 q 599 808 608 799 q 575 817 589 817 q 552 807 563 817 q 542 783 542 797 m 264 783 q 274 761 264 771 q 297 751 285 751 q 321 761 311 751 q 331 783 331 771 q 321 808 331 799 q 297 817 311 817 q 274 807 285 817 q 264 783 264 797 m 17 639 l 243 -29 l 436 556 l 643 -29 l 869 639 l 822 639 l 640 82 l 436 668 l 244 83 l 64 639 l 17 639 z "},"ẇ":{"ha":886,"x_min":17,"x_max":869,"o":"m 403 783 q 413 760 403 769 q 436 751 422 751 q 459 760 450 751 q 468 783 468 769 q 459 808 468 799 q 436 817 450 817 q 413 807 422 817 q 403 783 403 797 m 17 639 l 243 -29 l 436 556 l 643 -29 l 869 639 l 822 639 l 640 82 l 436 668 l 244 83 l 64 639 l 17 639 z "},"ẉ":{"ha":886,"x_min":17,"x_max":869,"o":"m 410 -146 q 419 -169 410 -160 q 443 -178 429 -178 q 466 -169 457 -178 q 475 -146 475 -160 q 466 -122 475 -131 q 443 -112 457 -112 q 419 -122 429 -112 q 410 -146 410 -132 m 17 639 l 243 -29 l 436 556 l 643 -29 l 869 639 l 822 639 l 640 82 l 436 668 l 244 83 l 64 639 l 17 639 z "},"x":{"ha":544,"x_min":10,"x_max":535,"o":"m 469 639 l 272 363 l 75 639 l 24 639 l 247 329 l 10 0 l 61 0 l 272 296 l 483 0 l 535 0 l 296 329 l 519 639 l 469 639 z "},"y":{"ha":596,"x_min":10,"x_max":586,"o":"m 586 639 l 539 639 l 290 63 l 315 60 l 60 639 l 10 639 l 278 46 l 122 -306 l 169 -306 l 586 639 z "},"ý":{"ha":596,"x_min":10,"x_max":586,"o":"m 586 639 l 539 639 l 290 63 l 315 60 l 60 639 l 10 639 l 278 46 l 122 -306 l 169 -306 l 586 639 m 504 960 l 465 983 l 238 761 l 261 744 l 504 960 z "},"ÿ":{"ha":596,"x_min":10,"x_max":586,"o":"m 586 639 l 539 639 l 290 63 l 315 60 l 60 639 l 10 639 l 278 46 l 122 -306 l 169 -306 l 586 639 m 385 789 q 394 765 385 775 q 417 756 404 756 q 442 765 432 756 q 451 789 451 775 q 442 813 451 803 q 417 822 432 822 q 394 813 404 822 q 385 789 385 803 m 146 789 q 156 765 146 775 q 178 756 165 756 q 203 765 193 756 q 213 789 213 775 q 203 813 213 803 q 178 822 193 822 q 156 813 165 822 q 146 789 146 803 z "},"ŷ":{"ha":596,"x_min":10,"x_max":586,"o":"m 586 639 l 539 639 l 290 63 l 315 60 l 60 639 l 10 639 l 278 46 l 122 -306 l 169 -306 l 586 639 m 299 907 l 493 736 l 521 760 l 299 954 l 76 760 l 104 736 l 299 907 z "},"ỳ":{"ha":596,"x_min":10,"x_max":586,"o":"m 296 736 l 319 753 l 92 975 l 53 951 l 296 736 m 586 639 l 539 639 l 290 63 l 315 60 l 60 639 l 10 639 l 278 46 l 122 -306 l 169 -306 l 586 639 z "},"z":{"ha":610,"x_min":26,"x_max":575,"o":"m 494 599 l 26 0 l 575 0 l 575 40 l 106 40 l 574 639 l 57 639 l 57 599 l 494 599 z "},"ź":{"ha":610,"x_min":26,"x_max":575,"o":"m 494 599 l 26 0 l 575 0 l 575 40 l 106 40 l 574 639 l 57 639 l 57 599 l 494 599 m 524 960 l 486 983 l 258 761 l 281 744 l 524 960 z "},"ż":{"ha":610,"x_min":26,"x_max":575,"o":"m 494 599 l 26 0 l 575 0 l 575 40 l 106 40 l 574 639 l 57 639 l 57 599 l 494 599 m 282 811 q 292 788 282 797 q 317 778 303 778 q 340 788 331 778 q 349 811 349 797 q 339 835 349 825 q 317 844 329 844 q 292 835 303 844 q 282 811 282 825 z "},"ž":{"ha":610,"x_min":26,"x_max":575,"o":"m 315 782 l 122 954 l 93 931 l 315 736 l 538 931 l 510 954 l 315 782 m 496 599 l 26 0 l 575 0 l 575 40 l 104 40 l 574 639 l 57 639 l 57 599 l 496 599 z "},"ß":{"ha":750,"x_min":108,"x_max":696,"o":"m 433 -15 q 540 6 492 -15 q 622 67 588 28 q 676 158 657 106 q 696 272 696 211 q 676 376 696 336 q 625 442 656 417 q 560 483 594 467 q 496 510 526 499 q 445 538 465 522 q 425 581 425 554 q 442 632 425 608 q 485 679 460 656 q 538 731 511 703 q 581 797 564 760 q 599 888 599 835 q 567 1002 599 954 q 485 1076 536 1050 q 369 1103 433 1103 q 233 1065 292 1103 q 141 962 174 1028 q 108 813 108 896 l 108 -1 l 150 -1 l 150 808 q 178 942 150 885 q 253 1031 206 999 q 364 1064 301 1064 q 459 1041 417 1064 q 528 978 501 1018 q 554 885 554 939 q 537 803 554 839 q 493 740 519 768 q 441 686 467 711 q 398 635 415 661 q 381 581 381 610 q 400 527 381 547 q 450 492 419 507 q 515 462 481 478 q 581 423 550 446 q 631 363 611 400 q 651 265 651 325 q 624 144 651 199 q 549 58 597 90 q 436 26 500 26 q 364 35 401 26 q 294 60 326 44 q 239 99 261 76 l 213 68 q 272 24 235 43 q 351 -5 310 6 q 433 -15 393 -15 z "},"æ":{"ha":1146,"x_min":51,"x_max":1094,"o":"m 275 -14 q 441 48 376 -14 q 518 219 506 110 l 510 219 q 603 46 533 106 q 782 -14 672 -14 q 956 28 878 -14 q 1083 149 1035 71 l 1049 171 q 935 64 1004 101 q 786 26 867 26 q 651 63 708 26 q 564 164 594 99 q 533 319 533 229 l 519 310 l 1090 310 q 1094 327 1093 321 q 1094 343 1094 333 q 1057 501 1094 432 q 955 612 1019 571 q 810 653 890 653 q 678 623 740 653 q 574 542 617 593 q 514 422 531 490 l 522 422 q 477 595 524 538 q 335 653 431 653 q 213 630 272 653 q 106 564 153 607 l 128 531 q 190 577 157 558 q 260 605 224 596 q 332 614 296 614 q 449 568 408 614 q 489 436 489 522 l 489 322 l 511 324 q 421 375 469 358 q 313 392 372 392 q 176 365 235 392 q 84 292 117 339 q 51 181 51 244 q 114 41 51 96 q 275 -14 176 -14 m 275 25 q 144 69 194 25 q 94 185 94 113 q 154 311 94 264 q 314 358 214 358 q 417 342 369 358 q 496 299 465 326 l 489 315 l 496 224 l 497 272 q 430 89 488 153 q 275 25 372 25 m 532 329 q 567 474 532 410 q 664 576 603 539 q 801 614 725 614 q 928 580 872 614 q 1016 488 983 546 q 1049 356 1049 429 q 1049 342 1049 347 q 1046 332 1049 336 l 1063 347 l 519 347 l 532 329 z "},"ð":{"ha":761,"x_min":69,"x_max":692,"o":"m 381 -14 q 544 27 474 -14 q 653 141 614 68 q 692 310 692 214 q 681 399 692 356 q 643 494 669 443 q 572 611 617 544 q 458 769 526 678 q 292 982 389 860 l 265 954 q 381 810 333 869 q 463 702 428 750 q 529 608 499 654 q 592 504 560 561 l 611 506 q 357 615 506 615 q 211 574 276 615 q 108 465 146 533 q 69 310 69 396 q 108 141 69 214 q 218 27 147 68 q 381 -14 289 -14 m 381 28 q 241 64 301 28 q 147 164 181 100 q 113 310 113 228 q 147 446 113 385 q 240 544 182 507 q 369 581 299 581 q 513 545 450 581 q 613 449 576 510 q 649 310 649 388 q 615 164 649 228 q 519 64 581 100 q 381 28 458 28 m 250 715 l 607 867 l 596 896 l 239 744 l 250 715 z "},"ø":{"ha":758,"x_min":58,"x_max":710,"o":"m 58 319 q 101 148 58 224 q 218 29 144 72 q 383 -14 292 -14 q 550 29 476 -14 q 667 148 624 72 q 710 319 710 224 q 667 492 710 417 q 550 610 624 567 q 383 653 476 653 q 218 610 292 653 q 101 492 144 567 q 58 319 58 417 m 101 319 q 139 471 101 404 q 241 575 176 538 q 385 613 306 613 q 528 575 464 613 q 629 471 592 538 q 667 319 667 404 q 629 168 667 235 q 528 64 592 101 q 385 26 464 26 q 241 64 306 26 q 139 167 176 101 q 101 319 101 233 m 629 688 l 88 -40 l 114 -54 l 656 674 l 629 688 z "},"þ":{"ha":764,"x_min":107,"x_max":704,"o":"m 150 -306 l 150 1083 l 107 1083 l 107 -306 l 150 -306 m 704 319 q 665 497 704 422 q 556 612 625 571 q 403 653 488 653 q 258 607 319 653 q 164 485 197 561 q 131 319 131 408 q 164 155 131 232 q 258 32 197 78 q 403 -14 319 -14 q 556 27 488 -14 q 665 143 625 68 q 704 319 704 218 m 663 319 q 626 163 663 229 q 531 62 590 97 q 396 26 471 26 q 273 67 329 26 q 183 174 217 108 q 150 319 150 240 q 183 465 150 399 q 273 572 217 531 q 396 613 329 613 q 531 577 471 613 q 626 476 590 542 q 663 319 663 411 z "},"đ":{"ha":764,"x_min":58,"x_max":826,"o":"m 410 883 l 826 883 l 826 924 l 410 924 l 410 883 m 614 1083 l 614 0 l 656 0 l 656 1083 l 614 1083 m 58 319 q 99 142 58 217 q 208 26 139 67 q 360 -14 276 -14 q 502 31 440 -14 q 599 151 564 75 q 633 319 633 226 q 599 489 633 414 q 502 608 564 564 q 360 653 440 653 q 208 613 276 653 q 99 498 139 572 q 58 319 58 424 m 101 319 q 137 476 101 411 q 233 577 172 542 q 368 613 294 613 q 465 588 421 613 q 543 522 510 564 q 595 427 576 479 q 614 319 614 375 q 595 212 614 264 q 543 117 576 160 q 465 51 510 75 q 368 26 421 26 q 233 62 294 26 q 137 163 172 97 q 101 319 101 229 z "},"ħ":{"ha":729,"x_min":7,"x_max":567,"o":"m 157 1083 l 114 1083 l 114 0 l 157 0 l 157 1083 m 524 428 l 524 0 l 567 0 l 567 432 q 545 550 567 501 q 481 626 524 599 q 371 653 438 653 q 253 618 306 653 q 171 524 201 583 q 140 389 140 465 l 157 389 q 183 501 157 450 q 257 582 210 551 q 363 613 304 613 q 487 562 450 613 q 524 428 524 511 m 7 932 l 440 932 l 440 972 l 7 972 l 7 932 z "},"ı":{"ha":293,"x_min":125,"x_max":168,"o":"m 125 639 l 125 0 l 168 0 l 168 639 l 125 639 z "},"ĳ":{"ha":708,"x_min":114,"x_max":525,"o":"m 461 947 q 470 925 461 935 q 493 915 479 915 q 517 925 508 915 q 525 947 525 935 q 517 970 525 961 q 493 979 508 979 q 470 970 479 979 q 461 947 461 961 m 260 -208 l 235 -242 q 263 -270 246 -256 q 302 -295 279 -285 q 354 -306 325 -306 q 448 -278 413 -306 q 499 -206 483 -251 q 515 -106 515 -160 l 515 639 l 472 639 l 472 -101 q 462 -178 472 -142 q 426 -239 451 -215 q 357 -262 401 -262 q 300 -247 324 -262 q 260 -208 276 -231 m 114 947 q 123 925 114 935 q 146 915 132 915 q 169 925 161 915 q 178 947 178 935 q 169 970 178 961 q 146 979 161 979 q 123 970 132 979 q 114 947 114 961 m 125 639 l 125 0 l 168 0 l 168 639 l 125 639 z "},"ĸ":{"ha":544,"x_min":107,"x_max":535,"o":"m 107 639 l 107 0 l 150 0 l 150 639 l 107 639 m 453 639 l 135 375 l 481 0 l 535 0 l 190 375 l 508 639 l 453 639 z "},"ŀ":{"ha":514,"x_min":114,"x_max":379,"o":"m 114 1083 l 114 0 l 157 0 l 157 1083 l 114 1083 m 314 558 q 324 535 314 544 q 347 525 333 525 q 370 535 361 525 q 379 557 379 544 q 370 581 379 572 q 347 590 361 590 q 324 581 333 590 q 314 558 314 572 z "},"ł":{"ha":251,"x_min":-21,"x_max":272,"o":"m -6 518 l 272 726 l 258 757 l -21 549 l -6 518 m 104 1083 l 104 0 l 147 0 l 147 1083 l 104 1083 z "},"ŉ":{"ha":863,"x_min":107,"x_max":699,"o":"m 289 639 l 247 639 l 247 0 l 289 0 l 289 639 m 657 428 l 657 0 l 699 0 l 699 432 q 651 594 699 535 q 504 653 603 653 q 385 618 439 653 q 301 524 332 583 q 269 389 269 465 l 289 389 q 316 501 289 450 q 390 582 343 551 q 496 613 438 613 q 620 562 583 613 q 657 428 657 511 m 222 972 l 107 653 l 139 653 l 274 972 l 222 972 z "},"ŋ":{"ha":681,"x_min":114,"x_max":567,"o":"m 406 -306 q 525 -253 483 -306 q 567 -106 567 -201 l 567 432 q 516 597 567 540 q 371 653 465 653 q 238 606 296 653 q 157 481 179 558 l 157 639 l 114 639 l 114 0 l 157 0 l 157 389 q 184 502 157 451 q 258 583 211 553 q 363 613 306 613 q 483 566 443 613 q 524 428 524 519 l 524 -101 q 494 -221 524 -179 q 408 -262 464 -262 q 311 -208 353 -262 l 286 -242 q 340 -289 310 -272 q 406 -306 371 -306 z "},"œ":{"ha":1275,"x_min":58,"x_max":1217,"o":"m 1172 347 l 1171 318 l 1215 310 q 1217 326 1217 318 q 1217 343 1217 335 q 1175 504 1217 435 q 1067 613 1133 574 q 924 653 1000 653 q 784 619 847 653 q 680 526 721 586 q 625 388 639 467 q 621 354 622 371 q 619 319 619 338 q 656 153 619 229 q 761 31 693 76 q 919 -14 829 -14 q 1042 6 989 -14 q 1134 63 1094 26 q 1206 147 1174 99 l 1172 171 q 1072 67 1133 108 q 919 26 1010 26 q 783 63 843 26 q 688 167 722 100 q 654 321 654 233 l 654 333 q 688 472 654 408 q 780 575 721 536 q 919 614 839 614 q 1053 576 997 614 q 1141 478 1110 539 q 1172 347 1172 417 m 643 310 l 1215 310 l 1207 347 l 643 347 l 643 310 m 58 319 q 99 142 58 217 q 206 26 139 67 q 356 -14 274 -14 q 497 26 433 -14 q 600 142 561 67 q 639 319 639 217 q 600 498 639 424 q 497 613 561 572 q 356 653 433 653 q 206 613 274 653 q 99 498 139 572 q 58 319 58 424 m 101 319 q 136 476 101 411 q 230 577 171 542 q 363 613 289 613 q 483 576 426 613 q 574 474 539 540 q 610 319 610 408 q 574 165 610 231 q 483 63 539 99 q 363 26 426 26 q 230 62 289 26 q 136 163 171 97 q 101 319 101 229 z "},"ŧ":{"ha":333,"x_min":17,"x_max":306,"o":"m 28 349 l 306 349 l 306 389 l 28 389 l 28 349 m 17 639 l 17 599 l 268 599 l 268 639 l 17 639 m 121 861 l 121 0 l 164 0 l 164 861 l 121 861 z "},"ȷ":{"ha":279,"x_min":-126,"x_max":154,"o":"m -101 -208 l -126 -242 q -99 -270 -115 -256 q -59 -295 -82 -285 q -7 -306 -36 -306 q 87 -278 51 -306 q 138 -206 122 -251 q 154 -106 154 -160 l 154 639 l 111 639 l 111 -101 q 101 -178 111 -142 q 65 -239 90 -215 q -4 -262 40 -262 q -61 -247 -37 -262 q -101 -208 -85 -231 z "},"μ":{"ha":681,"x_min":114,"x_max":567,"o":"m 157 639 l 114 639 l 114 -444 l 157 -444 l 157 76 q 213 10 176 33 q 308 -14 250 -14 q 443 33 385 -14 q 524 154 501 79 l 524 0 l 567 0 l 567 639 l 524 639 l 524 250 q 497 139 524 190 q 423 57 469 88 q 317 26 376 26 q 194 78 232 26 q 157 221 157 131 l 157 639 z "},"π":{"ha":682,"x_min":42,"x_max":626,"o":"m 125 617 l 125 0 l 168 0 l 168 617 l 125 617 m 42 639 l 42 599 l 626 599 l 626 639 l 42 639 m 472 617 l 472 168 q 483 54 472 93 q 519 1 494 15 q 589 -12 544 -12 l 589 31 q 542 42 557 31 q 521 84 526 53 q 515 176 515 115 l 515 617 l 472 617 z "},"а":{"ha":674,"x_min":51,"x_max":532,"o":"m 94 188 q 125 282 94 244 q 205 339 156 319 q 311 358 254 358 q 426 339 379 358 q 506 293 474 319 l 506 322 q 468 351 493 335 q 404 380 443 368 q 308 392 365 392 q 182 368 240 392 q 88 299 124 344 q 51 186 51 254 q 82 72 51 117 q 163 7 113 28 q 267 -14 213 -14 q 389 17 336 -14 q 471 98 442 47 q 500 210 500 149 l 489 231 q 460 124 489 171 q 383 51 432 78 q 274 25 335 25 q 188 42 229 25 q 120 94 146 58 q 94 188 94 129 m 128 531 q 180 571 151 551 q 246 602 208 590 q 329 614 283 614 q 447 570 406 614 q 489 449 489 526 l 489 0 l 532 0 l 532 449 q 509 556 532 511 q 441 627 486 601 q 329 653 396 653 q 195 624 250 653 q 106 564 140 594 l 128 531 z "},"б":{"ha":758,"x_min":49,"x_max":710,"o":"m 379 613 q 525 576 460 613 q 628 472 590 539 q 667 319 667 406 q 627 167 667 233 q 522 64 588 101 q 379 26 457 26 q 239 64 301 26 q 138 167 176 101 q 100 319 100 233 l 49 403 q 92 172 49 265 q 211 33 136 79 q 379 -14 286 -14 q 548 29 474 -14 q 666 148 622 72 q 710 319 710 224 q 666 492 710 417 q 548 610 622 567 q 379 653 474 653 l 379 613 m 75 319 l 100 319 q 126 444 100 390 q 192 536 151 499 q 283 593 233 574 q 379 613 332 613 l 379 653 q 267 630 321 653 q 169 564 213 607 q 101 459 126 521 q 75 319 75 397 m 49 403 l 88 322 l 88 414 q 111 626 88 535 q 192 779 135 717 q 349 875 250 842 q 466 931 418 899 q 542 1001 514 963 q 575 1083 569 1040 l 533 1083 q 478 988 524 1033 q 338 911 432 943 q 163 803 226 874 q 74 633 100 733 q 49 403 49 533 z "},"в":{"ha":588,"x_min":104,"x_max":546,"o":"m 128 325 l 128 301 l 313 301 q 378 297 344 301 q 440 281 411 293 q 486 243 468 268 q 504 178 504 218 q 465 81 504 122 q 332 39 425 39 l 128 39 l 128 0 l 340 0 q 498 51 450 0 q 546 174 546 101 q 515 268 546 236 q 432 313 485 300 q 313 325 379 325 l 128 325 m 128 314 l 299 314 q 408 329 358 314 q 488 378 457 344 q 518 465 518 411 q 488 566 518 528 q 408 622 457 604 q 299 639 358 639 l 128 639 l 128 600 l 299 600 q 426 566 375 600 q 476 464 476 532 q 458 402 476 426 q 413 364 440 378 q 354 344 385 350 q 299 339 324 339 l 128 339 l 128 314 m 104 639 l 104 0 l 147 0 l 147 639 l 104 639 z "},"г":{"ha":429,"x_min":111,"x_max":422,"o":"m 111 639 l 111 0 l 154 0 l 154 599 l 422 599 l 422 639 l 111 639 z "},"ѓ":{"ha":429,"x_min":111,"x_max":453,"o":"m 111 639 l 111 0 l 154 0 l 154 599 l 422 599 l 422 639 l 111 639 m 453 951 l 415 975 l 188 753 l 210 736 l 453 951 z "},"д":{"ha":910,"x_min":56,"x_max":847,"o":"m 451 593 l 717 22 l 764 22 l 451 688 l 139 22 l 186 22 l 451 593 m 804 0 l 804 -125 l 847 -125 l 847 40 l 56 40 l 56 -125 l 100 -125 l 100 0 l 804 0 z "},"е":{"ha":715,"x_min":58,"x_max":644,"o":"m 86 310 l 642 310 q 644 327 643 318 q 644 344 644 336 q 606 505 644 436 q 501 613 567 574 q 357 653 436 653 q 226 623 285 653 q 127 540 167 593 q 69 415 88 486 q 61 369 64 393 q 58 321 58 346 q 97 149 58 225 q 201 30 136 74 q 349 -14 267 -14 q 488 11 435 -14 q 575 74 542 36 q 633 149 608 111 l 599 171 q 548 104 578 138 q 471 49 518 71 q 353 26 424 26 q 224 64 281 26 q 134 168 167 101 q 101 321 101 235 l 101 333 q 138 485 101 422 q 233 581 175 547 q 357 614 292 614 q 481 579 425 614 q 569 485 536 544 q 597 347 601 425 l 86 347 l 86 310 z "},"ѐ":{"ha":715,"x_min":58,"x_max":644,"o":"m 86 310 l 642 310 q 644 327 643 318 q 644 344 644 336 q 606 505 644 436 q 501 613 567 574 q 357 653 436 653 q 226 623 285 653 q 127 540 167 593 q 69 415 88 486 q 61 369 64 393 q 58 321 58 346 q 97 149 58 225 q 201 30 136 74 q 349 -14 267 -14 q 488 11 435 -14 q 575 74 542 36 q 633 149 608 111 l 599 171 q 548 104 578 138 q 471 49 518 71 q 353 26 424 26 q 224 64 281 26 q 134 168 167 101 q 101 321 101 235 l 101 333 q 138 485 101 422 q 233 581 175 547 q 357 614 292 614 q 481 579 425 614 q 569 485 536 544 q 597 347 601 425 l 86 347 l 86 310 m 182 976 l 425 761 l 447 778 l 219 1000 l 182 976 z "},"ё":{"ha":715,"x_min":58,"x_max":644,"o":"m 86 310 l 642 310 q 644 327 643 318 q 644 344 644 336 q 606 505 644 436 q 501 613 567 574 q 357 653 436 653 q 226 623 285 653 q 127 540 167 593 q 69 415 88 486 q 61 369 64 393 q 58 321 58 346 q 97 149 58 225 q 201 30 136 74 q 349 -14 267 -14 q 488 11 435 -14 q 575 74 542 36 q 633 149 608 111 l 599 171 q 548 104 578 138 q 471 49 518 71 q 353 26 424 26 q 224 64 281 26 q 134 168 167 101 q 101 321 101 235 l 101 333 q 138 485 101 422 q 233 581 175 547 q 357 614 292 614 q 481 579 425 614 q 569 485 536 544 q 597 347 601 425 l 86 347 l 86 310 m 447 840 q 458 818 447 828 q 481 808 468 808 q 504 818 494 808 q 514 840 514 828 q 504 865 514 856 q 481 874 494 874 q 458 865 468 874 q 447 840 447 856 m 169 840 q 180 818 169 828 q 203 808 190 808 q 226 818 217 808 q 236 840 236 828 q 226 865 236 856 q 203 874 217 874 q 180 865 190 874 q 169 840 169 856 z "},"ж":{"ha":721,"x_min":10,"x_max":711,"o":"m 629 639 l 371 375 l 657 0 l 711 0 l 419 369 l 683 639 l 629 639 m 381 639 l 340 639 l 340 0 l 381 0 l 381 639 m 92 639 l 38 639 l 301 369 l 10 0 l 64 0 l 350 375 l 92 639 z "},"з":{"ha":660,"x_min":86,"x_max":597,"o":"m 346 332 q 513 376 456 332 q 569 488 569 419 q 541 574 569 538 q 465 632 513 611 q 356 653 417 653 q 238 627 292 653 q 153 558 185 601 q 121 463 121 515 l 164 463 q 188 535 164 500 q 254 592 211 569 q 356 614 297 614 q 476 579 428 614 q 525 485 525 544 q 478 394 525 428 q 346 360 431 360 l 346 332 m 351 -14 q 472 8 415 -14 q 563 74 528 31 q 597 179 597 117 q 532 306 597 263 q 346 349 467 349 l 346 321 q 451 306 403 321 q 526 260 499 292 q 554 178 554 229 q 525 93 554 128 q 450 42 496 58 q 351 25 404 25 q 197 76 253 25 q 129 201 140 128 l 86 201 q 167 47 97 108 q 351 -14 238 -14 z "},"и":{"ha":689,"x_min":111,"x_max":578,"o":"m 571 613 l 578 688 l 118 26 l 111 -49 l 571 613 m 154 639 l 111 639 l 111 -49 l 154 15 l 154 639 m 578 688 l 535 624 l 535 0 l 578 0 l 578 688 z "},"й":{"ha":689,"x_min":111,"x_max":578,"o":"m 571 613 l 578 688 l 118 26 l 111 -49 l 571 613 m 154 639 l 111 639 l 111 -49 l 154 15 l 154 639 m 578 688 l 535 624 l 535 0 l 578 0 l 578 688 m 124 965 q 148 873 124 918 q 222 799 172 828 q 343 771 271 771 q 465 799 417 771 q 538 873 514 828 q 563 965 563 918 l 524 965 q 503 892 524 928 q 442 831 482 856 q 343 807 403 807 q 243 831 283 807 q 183 892 203 856 q 163 965 163 928 l 124 965 z "},"ѝ":{"ha":689,"x_min":111,"x_max":578,"o":"m 571 613 l 578 688 l 118 26 l 111 -49 l 571 613 m 154 639 l 111 639 l 111 -49 l 154 15 l 154 639 m 578 688 l 535 624 l 535 0 l 578 0 l 578 688 m 125 986 l 368 771 l 392 788 l 164 1010 l 125 986 z "},"к":{"ha":611,"x_min":107,"x_max":535,"o":"m 107 639 l 107 0 l 150 0 l 150 639 l 107 639 m 453 639 l 135 375 l 481 0 l 535 0 l 190 375 l 508 639 l 453 639 z "},"ќ":{"ha":611,"x_min":107,"x_max":544,"o":"m 107 639 l 107 0 l 150 0 l 150 639 l 107 639 m 453 639 l 135 375 l 481 0 l 535 0 l 190 375 l 508 639 l 453 639 m 544 976 l 506 1000 l 278 778 l 301 761 l 544 976 z "},"л":{"ha":707,"x_min":14,"x_max":596,"o":"m 596 639 l 115 639 l 115 222 q 85 85 115 132 q 14 39 56 39 l 14 0 q 90 24 57 0 q 140 98 122 49 q 158 222 158 147 l 158 599 l 553 599 l 553 0 l 596 0 l 596 639 z "},"м":{"ha":843,"x_min":7,"x_max":836,"o":"m 788 0 l 836 0 l 669 688 l 649 594 l 788 0 m 407 38 l 419 -43 l 672 582 l 669 688 l 407 38 m 419 -43 l 432 38 l 174 688 l 171 582 l 419 -43 m 7 0 l 57 0 l 194 594 l 174 688 l 7 0 z "},"н":{"ha":717,"x_min":104,"x_max":613,"o":"m 131 319 l 593 319 l 593 360 l 131 360 l 131 319 m 569 639 l 569 0 l 613 0 l 613 639 l 569 639 m 104 639 l 104 0 l 147 0 l 147 639 l 104 639 z "},"о":{"ha":758,"x_min":58,"x_max":710,"o":"m 58 319 q 101 148 58 224 q 218 29 144 72 q 383 -14 292 -14 q 550 29 476 -14 q 667 148 624 72 q 710 319 710 224 q 667 492 710 417 q 550 610 624 567 q 383 653 476 653 q 218 610 292 653 q 101 492 144 567 q 58 319 58 417 m 101 319 q 139 471 101 404 q 241 575 176 538 q 385 613 306 613 q 528 575 464 613 q 629 471 592 538 q 667 319 667 404 q 629 168 667 235 q 528 64 592 101 q 385 26 464 26 q 241 64 306 26 q 139 167 176 101 q 101 319 101 233 z "},"п":{"ha":661,"x_min":104,"x_max":557,"o":"m 557 639 l 104 639 l 104 0 l 147 0 l 147 599 l 514 599 l 514 0 l 557 0 l 557 639 z "},"р":{"ha":792,"x_min":107,"x_max":704,"o":"m 150 -306 l 150 639 l 107 639 l 107 -306 l 150 -306 m 704 319 q 665 497 704 422 q 556 612 625 571 q 403 653 488 653 q 258 607 319 653 q 164 485 197 561 q 131 319 131 408 q 164 155 131 232 q 258 32 197 78 q 403 -14 319 -14 q 556 27 488 -14 q 665 143 625 68 q 704 319 704 218 m 663 319 q 626 163 663 229 q 531 62 590 97 q 396 26 471 26 q 273 67 329 26 q 183 174 217 108 q 150 319 150 240 q 183 465 150 399 q 273 572 217 531 q 396 613 329 613 q 531 577 471 613 q 626 476 590 542 q 663 319 663 411 z "},"с":{"ha":664,"x_min":51,"x_max":594,"o":"m 94 319 q 132 471 94 404 q 234 575 169 538 q 378 613 299 613 q 473 597 429 613 q 549 560 517 582 q 594 518 581 539 l 594 572 q 510 627 569 601 q 378 653 450 653 q 211 610 285 653 q 94 492 138 567 q 51 319 51 417 q 94 148 51 224 q 211 29 138 72 q 378 -14 285 -14 q 510 12 450 -14 q 594 67 569 38 l 594 121 q 549 78 581 100 q 473 42 517 57 q 378 26 429 26 q 234 64 299 26 q 132 168 169 101 q 94 319 94 235 z "},"т":{"ha":389,"x_min":7,"x_max":382,"o":"m 7 639 l 7 599 l 382 599 l 382 639 l 7 639 m 174 626 l 174 0 l 215 0 l 215 626 l 174 626 z "},"у":{"ha":611,"x_min":10,"x_max":586,"o":"m 586 639 l 539 639 l 290 63 l 315 60 l 60 639 l 10 639 l 278 46 l 122 -306 l 169 -306 l 586 639 z "},"ў":{"ha":611,"x_min":10,"x_max":586,"o":"m 586 639 l 539 639 l 290 63 l 315 60 l 60 639 l 10 639 l 278 46 l 122 -306 l 169 -306 l 586 639 m 86 931 q 110 838 86 883 q 184 765 135 793 q 306 736 233 736 q 428 765 379 736 q 501 838 476 793 q 525 931 525 883 l 486 931 q 466 857 486 893 q 406 797 446 821 q 306 772 365 772 q 206 797 246 772 q 145 857 165 821 q 125 931 125 893 l 86 931 z "},"ф":{"ha":814,"x_min":49,"x_max":765,"o":"m 386 778 l 386 -139 l 428 -139 l 428 778 l 386 778 m 49 319 q 93 148 49 224 q 219 29 138 72 q 407 -14 300 -14 q 596 29 515 -14 q 721 148 676 72 q 765 319 765 224 q 721 492 765 417 q 596 610 676 567 q 407 653 515 653 q 219 610 300 653 q 93 492 138 567 q 49 319 49 417 m 92 319 q 129 468 92 401 q 238 574 167 535 q 407 613 308 613 q 576 574 506 613 q 685 468 647 535 q 722 319 722 401 q 685 172 722 238 q 576 66 647 106 q 407 26 506 26 q 238 66 308 26 q 129 172 167 106 q 92 319 92 238 z "},"х":{"ha":583,"x_min":10,"x_max":535,"o":"m 469 639 l 272 363 l 75 639 l 24 639 l 247 329 l 10 0 l 61 0 l 272 296 l 483 0 l 535 0 l 296 329 l 519 639 l 469 639 z "},"ц":{"ha":717,"x_min":104,"x_max":668,"o":"m 557 40 l 557 639 l 514 639 l 514 40 l 147 40 l 147 639 l 104 639 l 104 0 l 629 0 l 629 -125 l 668 -125 l 668 40 l 557 40 z "},"ч":{"ha":606,"x_min":69,"x_max":501,"o":"m 319 194 l 489 194 l 489 235 l 319 235 l 319 194 m 458 639 l 458 0 l 501 0 l 501 639 l 458 639 m 113 639 l 69 639 l 69 456 q 92 305 69 363 q 169 221 114 247 q 319 194 224 194 l 319 235 q 197 256 242 235 q 132 325 151 276 q 113 456 113 374 l 113 639 z "},"ш":{"ha":1015,"x_min":104,"x_max":911,"o":"m 529 40 l 529 639 l 486 639 l 486 40 l 147 40 l 147 639 l 104 639 l 104 0 l 911 0 l 911 639 l 868 639 l 868 40 l 529 40 z "},"щ":{"ha":1071,"x_min":104,"x_max":1022,"o":"m 529 40 l 529 639 l 486 639 l 486 40 l 147 40 l 147 639 l 104 639 l 104 0 l 983 0 l 983 -125 l 1022 -125 l 1022 40 l 911 40 l 911 639 l 868 639 l 868 40 l 529 40 z "},"ъ":{"ha":739,"x_min":7,"x_max":669,"o":"m 263 358 l 436 358 q 574 319 519 358 q 628 199 628 279 q 603 107 628 142 q 535 56 578 72 q 436 39 492 39 l 263 39 l 263 0 l 436 0 q 556 21 503 0 q 639 86 608 42 q 669 199 669 131 q 602 349 669 301 q 436 397 535 397 l 263 397 l 263 358 m 236 599 l 236 0 l 279 0 l 279 639 l 7 639 l 7 599 l 236 599 z "},"ы":{"ha":803,"x_min":104,"x_max":699,"o":"m 656 639 l 656 0 l 699 0 l 699 639 l 656 639 m 104 639 l 104 0 l 147 0 l 147 639 l 104 639 m 125 358 l 300 358 q 436 319 382 358 q 490 199 490 279 q 465 107 490 142 q 397 56 440 72 q 300 39 354 39 l 125 39 l 125 0 l 300 0 q 419 21 367 0 q 503 86 472 42 q 533 199 533 131 q 466 349 533 301 q 300 397 399 397 l 125 397 l 125 358 z "},"ь":{"ha":603,"x_min":104,"x_max":533,"o":"m 104 639 l 104 0 l 147 0 l 147 639 l 104 639 m 125 358 l 300 358 q 436 319 382 358 q 490 199 490 279 q 465 107 490 142 q 397 56 440 72 q 300 39 354 39 l 125 39 l 125 0 l 300 0 q 419 21 367 0 q 503 86 472 42 q 533 199 533 131 q 466 349 533 301 q 300 397 399 397 l 125 397 l 125 358 z "},"э":{"ha":674,"x_min":79,"x_max":622,"o":"m 190 339 l 190 300 l 582 300 l 611 339 l 190 339 m 579 319 q 542 168 579 235 q 440 64 504 101 q 297 26 376 26 q 201 42 246 26 q 126 78 157 57 q 79 121 94 100 l 79 67 q 165 12 106 38 q 297 -14 224 -14 q 463 29 389 -14 q 579 148 536 72 q 622 319 622 224 q 579 492 622 417 q 463 610 536 567 q 297 653 389 653 q 165 627 224 653 q 79 572 106 601 l 79 518 q 126 560 94 539 q 201 597 157 582 q 297 613 246 613 q 440 575 376 613 q 542 471 504 538 q 579 319 579 404 z "},"ю":{"ha":1046,"x_min":104,"x_max":988,"o":"m 131 314 l 367 314 l 367 354 l 131 354 l 131 314 m 104 639 l 104 0 l 147 0 l 147 639 l 104 639 m 336 319 q 379 148 336 224 q 496 29 422 72 q 661 -14 569 -14 q 828 29 754 -14 q 944 148 901 72 q 988 319 988 224 q 944 492 988 417 q 828 610 901 567 q 661 653 754 653 q 496 610 569 653 q 379 492 422 567 q 336 319 336 417 m 379 319 q 417 471 379 404 q 519 575 454 538 q 663 613 583 613 q 806 575 742 613 q 907 471 869 538 q 944 319 944 404 q 907 168 944 235 q 806 64 869 101 q 663 26 742 26 q 519 64 583 26 q 417 167 454 101 q 379 319 379 233 z "},"я":{"ha":603,"x_min":74,"x_max":533,"o":"m 122 0 l 335 288 l 286 288 l 74 0 l 122 0 m 533 0 l 533 639 l 490 639 l 490 0 l 533 0 m 507 294 l 338 294 q 239 310 282 294 q 172 359 196 325 q 147 447 147 393 q 172 536 147 503 q 239 585 196 569 q 338 600 282 600 l 507 600 l 507 639 l 338 639 q 219 619 272 639 q 135 558 165 600 q 104 447 104 517 q 135 337 104 379 q 219 275 165 294 q 338 256 272 256 l 507 256 l 507 294 z "},"ª":{"ha":331,"x_min":33,"x_max":274,"o":"m 54 735 q 88 800 54 778 q 163 822 121 822 q 221 812 197 822 q 260 789 244 801 l 260 804 q 228 826 251 814 q 163 839 204 839 q 74 812 114 839 q 33 735 33 785 q 67 657 33 682 q 140 632 101 632 q 226 665 193 632 q 258 744 258 699 l 253 754 q 221 681 253 710 q 144 651 189 651 q 81 672 108 651 q 54 735 54 692 m 72 913 q 113 942 89 929 q 172 956 138 956 q 233 933 213 956 q 253 872 253 911 l 253 639 l 274 639 l 274 872 q 248 946 274 918 q 172 974 222 974 q 106 959 133 974 q 60 929 78 944 l 72 913 z "},"º":{"ha":386,"x_min":28,"x_max":358,"o":"m 28 806 q 75 686 28 733 q 193 639 122 639 q 311 686 264 639 q 358 806 358 733 q 311 926 358 879 q 193 972 264 972 q 75 926 122 972 q 28 806 28 879 m 54 806 q 94 908 54 868 q 193 947 135 947 q 292 908 251 947 q 332 806 332 868 q 292 703 332 743 q 193 664 251 664 q 94 703 135 664 q 54 806 54 743 z "},"̀":{"ha":0,"x_min":0,"x_max":267,"o":"m 243 747 l 267 764 l 39 986 l 0 963 l 243 747 z "},"́":{"ha":0,"x_min":21,"x_max":288,"o":"m 44 747 l 288 963 l 249 986 l 21 764 l 44 747 z "},"̂":{"ha":0,"x_min":0,"x_max":438,"o":"m 24 794 l 228 974 l 210 974 l 414 794 l 438 822 l 218 1013 l 0 822 l 24 794 z "},"̃":{"ha":0,"x_min":0,"x_max":381,"o":"m 31 875 q 39 910 31 893 q 64 936 47 926 q 104 946 81 946 q 161 930 138 946 q 210 897 185 914 q 272 881 235 881 q 319 890 299 881 q 354 919 339 900 q 381 963 369 938 l 353 983 q 320 933 336 950 q 275 917 304 917 q 229 926 249 917 q 192 949 210 936 q 154 972 175 963 q 103 982 133 982 q 50 969 72 982 q 15 937 28 957 q 0 892 1 917 l 31 875 z "},"̄":{"ha":0,"x_min":0,"x_max":486,"o":"m 0 897 l 486 897 l 486 938 l 0 938 l 0 897 z "},"̆":{"ha":0,"x_min":0,"x_max":439,"o":"m 219 794 q 333 817 283 794 q 410 878 382 839 q 439 969 439 918 l 400 969 q 376 899 400 931 q 312 850 353 868 q 219 832 271 832 q 127 850 168 832 q 63 899 86 868 q 39 969 39 931 l 0 969 q 28 878 0 918 q 106 817 57 839 q 219 794 156 794 z "},"̇":{"ha":0,"x_min":0,"x_max":67,"o":"m 33 874 q 57 884 47 874 q 67 907 67 894 q 57 931 67 922 q 33 940 47 940 q 10 931 21 940 q 0 907 0 921 q 10 884 0 894 q 33 874 19 874 z "},"̈":{"ha":0,"x_min":0,"x_max":344,"o":"m 33 853 q 58 863 49 853 q 67 886 67 872 q 58 910 67 901 q 33 919 49 919 q 10 910 19 919 q 0 886 0 901 q 10 863 0 872 q 33 853 19 853 m 311 853 q 335 863 326 853 q 344 886 344 872 q 335 910 344 901 q 311 919 326 919 q 288 910 297 919 q 278 886 278 901 q 288 863 278 872 q 311 853 297 853 z "},"̊":{"ha":0,"x_min":0,"x_max":292,"o":"m 146 732 q 219 751 186 732 q 272 803 251 771 q 292 875 292 835 q 272 947 292 915 q 219 999 251 979 q 146 1018 186 1018 q 43 976 86 1018 q 0 875 0 935 q 43 774 0 815 q 146 732 86 732 m 146 763 q 65 796 99 763 q 32 875 32 829 q 66 955 32 922 q 146 988 100 988 q 226 955 193 988 q 258 875 258 922 q 225 796 258 829 q 146 763 192 763 z "},"̋":{"ha":0,"x_min":0,"x_max":354,"o":"m 26 728 l 189 1007 l 146 1021 l 0 738 l 26 728 m 192 728 l 354 1007 l 310 1021 l 165 738 l 192 728 z "},"̌":{"ha":0,"x_min":0,"x_max":438,"o":"m 218 794 l 438 986 l 414 1013 l 210 833 l 228 833 l 24 1013 l 0 986 l 218 794 z "},"̒":{"ha":0,"x_min":0,"x_max":182,"o":"m 43 713 l 182 1067 l 153 1078 l 0 731 l 43 713 z "},"̦":{"ha":0,"x_min":0,"x_max":149,"o":"m 21 -296 l 149 -43 l 118 -25 l 0 -285 l 21 -296 z "},"̧":{"ha":0,"x_min":0,"x_max":274,"o":"m 124 -306 q 231 -268 189 -306 q 274 -175 274 -231 q 245 -101 274 -132 q 171 -71 217 -71 q 120 -79 144 -71 q 83 -106 96 -87 l 103 -101 l 178 25 l 143 25 l 57 -124 q 105 -104 76 -111 q 157 -97 133 -97 q 217 -118 196 -97 q 239 -175 239 -139 q 207 -247 239 -219 q 124 -274 175 -274 q 67 -263 92 -274 q 17 -231 43 -253 l 0 -257 q 58 -294 28 -282 q 124 -306 88 -306 z "},"̨":{"ha":0,"x_min":0,"x_max":283,"o":"m 151 -306 q 232 -288 196 -306 q 283 -250 268 -271 l 263 -222 q 219 -253 249 -240 q 153 -267 190 -267 q 76 -244 108 -267 q 43 -178 43 -222 q 71 -109 43 -142 q 141 -49 99 -76 q 228 0 183 -21 l 204 19 q 108 -35 156 -6 q 31 -103 61 -65 q 0 -186 0 -140 q 18 -249 0 -222 q 69 -291 36 -276 q 151 -306 103 -306 z "},"０":{"ha":776,"x_min":67,"x_max":710,"o":"m 111 486 q 130 663 111 579 q 185 809 149 746 q 272 908 221 872 q 388 943 324 943 q 505 908 454 943 q 592 809 556 872 q 646 663 628 746 q 664 486 664 579 q 646 310 664 393 q 592 163 628 226 q 505 65 556 100 q 388 29 454 29 q 272 65 324 29 q 185 163 221 100 q 130 310 149 226 q 111 486 111 393 m 67 486 q 106 233 67 346 q 217 53 144 119 q 388 -14 289 -14 q 560 53 488 -14 q 671 233 632 119 q 710 486 710 346 q 671 740 710 626 q 560 919 632 853 q 388 986 488 986 q 217 919 289 986 q 106 740 144 853 q 67 486 67 626 z "},"１":{"ha":776,"x_min":208,"x_max":483,"o":"m 208 871 l 439 926 l 439 0 l 483 0 l 483 981 l 208 918 l 208 871 z "},"２":{"ha":776,"x_min":53,"x_max":700,"o":"m 53 0 l 700 0 l 700 43 l 149 43 l 538 447 q 631 567 592 503 q 671 713 671 631 q 656 806 671 758 q 607 895 640 854 q 522 962 574 936 q 397 988 471 988 q 240 944 308 988 q 135 822 172 900 q 99 639 99 743 l 143 639 q 174 799 143 731 q 263 906 206 868 q 397 944 321 944 q 502 924 458 944 q 573 869 546 903 q 613 794 600 835 q 625 715 625 754 q 608 621 625 663 q 563 543 590 579 q 501 472 535 507 l 53 0 z "},"３":{"ha":776,"x_min":94,"x_max":688,"o":"m 353 496 q 503 526 433 496 q 616 610 572 556 q 660 738 660 665 q 630 859 660 803 q 542 951 600 915 q 400 986 483 986 q 261 953 321 986 q 169 864 201 921 q 136 731 136 807 l 179 731 q 240 884 179 824 q 401 944 300 944 q 518 915 471 944 q 590 838 565 886 q 615 735 615 790 q 592 649 615 688 q 531 583 569 610 q 447 541 493 556 q 353 526 400 526 l 353 496 m 394 -14 q 548 19 482 -14 q 651 110 614 51 q 688 247 688 169 q 658 366 688 315 q 580 450 629 417 q 472 500 531 483 q 353 517 413 517 l 353 486 q 451 472 400 486 q 545 428 501 457 q 616 354 589 399 q 643 251 643 310 q 613 135 643 186 q 526 57 582 85 q 394 29 471 29 q 258 58 315 29 q 169 140 200 88 q 139 257 139 192 l 94 257 q 115 151 94 200 q 175 65 136 101 q 269 7 214 28 q 394 -14 324 -14 z "},"４":{"ha":776,"x_min":31,"x_max":731,"o":"m 31 194 l 731 194 l 731 235 l 563 235 l 551 235 l 69 235 l 31 194 m 79 194 l 535 863 l 535 221 l 535 211 l 535 0 l 581 0 l 581 972 l 564 972 l 31 194 l 79 194 z "},"５":{"ha":776,"x_min":67,"x_max":711,"o":"m 693 319 q 656 481 693 411 q 554 589 618 550 q 413 628 490 628 q 265 594 329 628 q 163 513 200 561 l 125 454 q 206 528 165 499 q 294 573 247 558 q 397 588 342 588 q 525 553 468 588 q 615 458 582 518 q 649 319 649 399 q 613 161 649 226 q 514 63 576 96 q 372 29 451 29 q 253 52 306 29 q 165 117 201 75 q 104 215 128 160 l 67 190 q 135 83 93 129 q 235 12 176 38 q 372 -14 293 -14 q 497 7 439 -14 q 600 69 556 28 q 669 174 644 111 q 693 319 693 236 m 285 932 l 711 932 l 711 972 l 253 972 l 125 454 l 185 522 l 285 932 z "},"６":{"ha":776,"x_min":78,"x_max":699,"o":"m 119 310 q 153 443 119 381 q 249 543 186 506 q 399 581 313 581 q 528 544 469 581 q 621 447 586 508 q 656 310 656 386 q 622 165 656 228 q 528 65 589 101 q 388 28 468 28 q 248 65 308 28 q 153 165 188 101 q 119 310 119 228 m 467 972 l 150 525 q 100 428 122 486 q 78 310 78 369 q 116 141 78 214 q 224 27 154 68 q 388 -14 294 -14 q 551 27 482 -14 q 660 141 621 68 q 699 310 699 214 q 676 428 699 374 q 615 526 654 483 q 523 592 575 568 q 411 615 471 615 q 288 591 343 615 q 192 518 232 567 l 194 515 l 521 972 l 467 972 z "},"７":{"ha":776,"x_min":75,"x_max":736,"o":"m 75 929 l 668 929 l 190 0 l 236 0 l 736 972 l 75 972 l 75 929 z "},"８":{"ha":776,"x_min":110,"x_max":667,"o":"m 140 747 q 160 650 140 694 q 215 574 181 606 q 294 524 250 542 q 388 506 339 506 q 482 524 438 506 q 561 574 526 542 q 616 650 596 606 q 636 747 636 694 q 604 867 636 813 q 516 953 572 921 q 388 986 460 986 q 260 953 317 986 q 172 867 204 921 q 140 747 140 813 m 182 743 q 209 844 182 799 q 283 918 236 890 q 388 946 329 946 q 494 918 449 946 q 567 844 540 890 q 593 743 593 799 q 562 636 593 683 q 483 562 531 589 q 388 535 435 535 q 294 562 342 535 q 214 636 246 589 q 182 743 182 683 m 110 258 q 128 152 110 201 q 183 65 147 103 q 271 7 219 28 q 388 -14 322 -14 q 504 7 453 -14 q 592 65 556 28 q 647 152 628 103 q 667 258 667 201 q 644 368 667 319 q 582 451 621 417 q 493 505 543 486 q 388 524 443 524 q 284 505 335 524 q 194 451 233 486 q 133 368 156 417 q 110 258 110 319 m 153 263 q 187 383 153 331 q 275 465 221 435 q 388 494 329 494 q 500 465 446 494 q 589 383 554 435 q 624 263 624 331 q 594 140 624 193 q 512 56 564 86 q 388 26 460 26 q 265 56 318 26 q 182 140 211 86 q 153 263 153 193 z "},"９":{"ha":776,"x_min":78,"x_max":699,"o":"m 656 663 q 622 530 656 592 q 526 430 589 468 q 378 392 464 392 q 249 428 308 392 q 155 525 190 464 q 119 663 119 586 q 153 808 119 744 q 248 908 188 872 q 388 944 308 944 q 528 908 468 944 q 622 808 589 872 q 656 663 656 744 m 310 0 l 626 447 q 676 544 654 486 q 699 663 699 603 q 660 831 699 758 q 551 945 621 904 q 388 986 482 986 q 224 945 294 986 q 116 831 154 904 q 78 663 78 758 q 100 544 78 599 q 162 447 122 489 q 253 381 201 404 q 365 357 306 357 q 490 381 433 357 q 583 454 546 406 l 582 457 l 254 0 l 310 0 z "},"¹":{"ha":653,"x_min":203,"x_max":367,"o":"m 203 903 l 340 936 l 340 381 l 367 381 l 367 969 l 203 931 l 203 903 z "},"²":{"ha":467,"x_min":40,"x_max":428,"o":"m 40 392 l 428 392 l 428 417 l 97 417 l 331 660 q 386 732 363 693 q 410 819 410 771 q 393 894 410 856 q 340 958 376 932 q 247 985 304 985 q 152 958 193 985 q 89 885 111 932 q 67 775 67 838 l 93 775 q 135 908 93 857 q 247 960 178 960 q 326 938 296 960 q 369 884 356 915 q 382 822 382 853 q 360 741 382 775 q 308 675 339 707 l 40 392 z "},"³":{"ha":429,"x_min":40,"x_max":396,"o":"m 194 686 q 285 704 243 686 q 353 755 326 722 q 379 831 379 788 q 339 934 379 888 q 224 981 299 981 q 108 938 151 981 q 65 828 65 896 l 90 828 q 127 920 90 885 q 224 956 164 956 q 319 918 286 956 q 353 831 353 881 q 328 763 353 792 q 268 719 304 735 q 194 704 232 704 l 194 686 m 219 381 q 347 424 297 381 q 396 538 396 468 q 365 628 396 593 q 289 681 335 664 q 194 699 243 699 l 194 681 q 272 665 232 681 q 341 619 313 650 q 369 540 369 588 q 328 443 369 481 q 219 406 288 406 q 108 444 149 406 q 67 543 67 483 l 40 543 q 61 461 40 499 q 123 402 82 424 q 219 381 164 381 z "},"¼":{"ha":1047,"x_min":33,"x_max":976,"o":"m 910 972 l 136 0 l 175 0 l 949 972 l 910 972 m 33 903 l 171 936 l 171 381 l 197 381 l 197 969 l 33 931 l 33 903 m 556 117 l 976 117 l 976 140 l 875 140 l 869 140 l 579 140 l 556 117 m 585 117 l 858 518 l 858 132 l 858 126 l 858 0 l 885 0 l 885 583 l 876 583 l 556 117 l 585 117 z "},"½":{"ha":1138,"x_min":33,"x_max":1075,"o":"m 910 972 l 136 0 l 175 0 l 949 972 l 910 972 m 33 903 l 171 936 l 171 381 l 197 381 l 197 969 l 33 931 l 33 903 m 688 3 l 1075 3 l 1075 28 l 746 28 l 978 271 q 1035 342 1011 304 q 1058 431 1058 381 q 1042 505 1058 467 q 989 569 1025 543 q 894 596 953 596 q 800 569 840 596 q 738 496 760 543 q 715 386 715 449 l 742 386 q 783 519 742 468 q 894 571 825 571 q 973 549 943 571 q 1017 494 1003 526 q 1031 432 1031 463 q 1009 351 1031 385 q 957 286 988 317 l 688 3 z "},"¾":{"ha":1139,"x_min":47,"x_max":1069,"o":"m 1003 972 l 229 0 l 268 0 l 1042 972 l 1003 972 m 201 686 q 292 704 250 686 q 360 755 333 722 q 386 831 386 788 q 346 934 386 888 q 231 981 306 981 q 115 938 158 981 q 72 828 72 896 l 97 828 q 134 920 97 885 q 231 956 171 956 q 326 918 293 956 q 360 831 360 881 q 335 763 360 792 q 275 719 311 735 q 201 704 239 704 l 201 686 m 226 381 q 353 424 304 381 q 403 538 403 468 q 372 628 403 593 q 296 681 342 664 q 201 699 250 699 l 201 681 q 279 665 239 681 q 348 619 319 650 q 376 540 376 588 q 335 443 376 481 q 226 406 294 406 q 115 444 156 406 q 74 543 74 483 l 47 543 q 68 461 47 499 q 130 402 89 424 q 226 381 171 381 m 649 117 l 1069 117 l 1069 140 l 968 140 l 963 140 l 672 140 l 649 117 m 678 117 l 951 518 l 951 132 l 951 126 l 951 0 l 978 0 l 978 583 l 969 583 l 649 117 l 678 117 z "},"⁰":{"ha":469,"x_min":47,"x_max":433,"o":"m 74 681 q 94 818 74 756 q 151 918 114 881 q 240 956 188 956 q 329 918 293 956 q 385 818 365 881 q 406 681 406 756 q 385 543 406 606 q 329 443 365 481 q 240 406 293 406 q 151 443 188 406 q 94 543 114 481 q 74 681 74 606 m 47 681 q 70 528 47 597 q 137 420 93 460 q 240 381 181 381 q 343 420 300 381 q 410 528 386 460 q 433 681 433 597 q 410 833 433 765 q 343 941 386 901 q 240 981 300 981 q 137 941 181 981 q 70 833 93 901 q 47 681 47 765 z "},"⁴":{"ha":521,"x_min":47,"x_max":468,"o":"m 47 506 l 468 506 l 468 529 l 365 529 l 360 529 l 69 529 l 47 506 m 75 506 l 349 907 l 349 521 l 349 515 l 349 389 l 376 389 l 376 972 l 367 972 l 47 506 l 75 506 z "},"⁵":{"ha":479,"x_min":47,"x_max":433,"o":"m 422 578 q 400 675 422 633 q 340 740 378 717 q 254 764 301 764 q 165 743 204 764 q 103 693 125 722 l 82 658 q 156 719 117 699 q 246 739 196 739 q 351 694 308 739 q 394 578 394 650 q 348 448 394 493 q 231 403 301 403 q 131 434 169 403 q 69 515 92 465 l 47 500 q 115 412 72 446 q 231 378 158 378 q 327 400 283 378 q 397 467 371 422 q 422 578 422 513 m 178 946 l 433 946 l 433 969 l 158 969 l 82 658 l 117 699 l 178 946 z "},"⁶":{"ha":467,"x_min":54,"x_max":428,"o":"m 79 572 q 100 652 79 615 q 158 711 121 689 q 247 733 196 733 q 325 713 290 733 q 381 655 360 692 q 401 572 401 618 q 357 451 401 499 q 240 403 313 403 q 124 451 169 403 q 79 572 79 499 m 288 969 l 99 700 q 68 643 82 678 q 54 572 54 608 q 78 472 54 515 q 143 403 101 428 q 240 378 185 378 q 339 403 297 378 q 404 472 381 428 q 428 572 428 515 q 404 665 428 624 q 342 731 381 706 q 256 756 303 756 q 181 741 214 756 q 124 697 147 726 l 125 696 l 322 969 l 288 969 z "},"⁷":{"ha":490,"x_min":47,"x_max":443,"o":"m 47 947 l 403 947 l 115 389 l 143 389 l 443 972 l 47 972 l 47 947 z "},"⁸":{"ha":428,"x_min":47,"x_max":381,"o":"m 64 838 q 85 763 64 796 q 141 711 107 729 q 214 693 175 693 q 288 711 254 693 q 342 763 321 729 q 363 838 363 796 q 343 909 363 876 q 290 961 324 942 q 214 981 257 981 q 137 961 171 981 q 83 909 103 942 q 64 838 64 876 m 90 835 q 125 922 90 886 q 214 957 160 957 q 303 922 268 957 q 338 835 338 886 q 319 771 338 799 q 271 726 300 743 q 214 710 242 710 q 158 726 186 710 q 110 771 129 743 q 90 835 90 799 m 47 544 q 67 463 47 500 q 125 403 88 425 q 214 381 163 381 q 303 403 267 381 q 360 463 340 425 q 381 544 381 500 q 367 609 381 579 q 331 660 354 639 q 277 692 307 681 q 214 703 247 703 q 151 692 182 703 q 97 660 121 681 q 60 609 74 639 q 47 544 47 579 m 72 547 q 94 619 72 588 q 147 668 115 650 q 214 686 179 686 q 281 668 249 686 q 335 619 314 650 q 356 547 356 588 q 317 444 356 483 q 214 404 278 404 q 111 444 150 404 q 72 547 72 483 z "},"⁹":{"ha":467,"x_min":47,"x_max":421,"o":"m 394 789 q 375 709 394 746 q 317 650 356 672 q 228 628 279 628 q 151 649 186 628 q 94 706 115 669 q 72 789 72 743 q 117 910 72 863 q 233 958 163 958 q 350 910 306 958 q 394 789 394 863 m 188 392 l 376 661 q 407 719 393 685 q 421 789 421 754 q 397 890 421 846 q 332 958 374 933 q 233 983 290 983 q 135 958 178 983 q 70 890 93 933 q 47 789 47 846 q 71 697 47 739 q 133 631 94 656 q 219 606 172 606 q 294 620 261 606 q 351 664 328 635 l 350 665 l 154 392 l 188 392 z "},"₀":{"ha":479,"x_min":47,"x_max":433,"o":"m 74 292 q 94 429 74 367 q 151 529 114 492 q 240 567 188 567 q 329 529 293 567 q 385 429 365 492 q 406 292 406 367 q 385 154 406 217 q 329 54 365 92 q 240 17 293 17 q 151 54 188 17 q 94 154 114 92 q 74 292 74 217 m 47 292 q 70 140 47 208 q 137 31 93 71 q 240 -8 181 -8 q 343 31 300 -8 q 410 140 386 71 q 433 292 433 208 q 410 444 433 376 q 343 552 386 513 q 240 592 300 592 q 137 552 181 592 q 70 444 93 513 q 47 292 47 376 z "},"₁":{"ha":411,"x_min":131,"x_max":294,"o":"m 131 524 l 268 557 l 268 1 l 294 1 l 294 590 l 131 551 l 131 524 z "},"₂":{"ha":467,"x_min":40,"x_max":428,"o":"m 40 3 l 428 3 l 428 28 l 97 28 l 331 271 q 386 343 363 304 q 410 431 410 382 q 393 505 410 467 q 340 569 376 543 q 247 596 304 596 q 152 569 193 596 q 89 496 111 543 q 67 386 67 449 l 93 386 q 135 519 93 468 q 247 571 178 571 q 326 549 296 571 q 369 495 356 526 q 382 433 382 464 q 360 352 382 386 q 308 286 339 318 l 40 3 z "},"₃":{"ha":439,"x_min":40,"x_max":396,"o":"m 194 297 q 285 315 243 297 q 353 366 326 333 q 379 442 379 399 q 339 545 379 499 q 224 592 299 592 q 108 549 151 592 q 65 439 65 507 l 90 439 q 127 531 90 496 q 224 567 164 567 q 319 529 286 567 q 353 442 353 492 q 328 374 353 403 q 268 331 304 346 q 194 315 232 315 l 194 297 m 219 -8 q 347 35 297 -8 q 396 149 396 79 q 365 240 396 204 q 289 292 335 275 q 194 310 243 310 l 194 292 q 272 276 232 292 q 341 230 313 261 q 369 151 369 199 q 328 54 369 92 q 219 17 288 17 q 108 56 149 17 q 67 154 67 94 l 40 154 q 61 72 40 110 q 123 13 82 35 q 219 -8 164 -8 z "},"₄":{"ha":521,"x_min":47,"x_max":468,"o":"m 47 117 l 468 117 l 468 140 l 365 140 l 360 140 l 69 140 l 47 117 m 75 117 l 349 518 l 349 132 l 349 126 l 349 0 l 376 0 l 376 583 l 367 583 l 47 117 l 75 117 z "},"₅":{"ha":479,"x_min":47,"x_max":433,"o":"m 422 189 q 400 286 422 244 q 340 351 378 328 q 254 375 301 375 q 165 354 204 375 q 103 304 125 333 l 82 269 q 156 330 117 310 q 246 350 196 350 q 351 306 308 350 q 394 189 394 261 q 348 59 394 104 q 231 14 301 14 q 131 45 169 14 q 69 126 92 76 l 47 111 q 115 23 72 57 q 231 -11 158 -11 q 327 11 283 -11 q 397 78 371 33 q 422 189 422 124 m 178 557 l 433 557 l 433 581 l 158 581 l 82 269 l 117 310 l 178 557 z "},"₆":{"ha":467,"x_min":54,"x_max":428,"o":"m 79 183 q 99 263 79 226 q 157 322 119 300 q 247 344 194 344 q 325 324 290 344 q 381 266 360 303 q 401 183 401 229 q 357 62 401 110 q 240 14 313 14 q 124 62 169 14 q 79 183 79 110 m 288 581 l 97 311 q 67 254 81 289 q 54 183 54 219 q 77 83 54 126 q 142 14 100 39 q 240 -11 185 -11 q 339 14 297 -11 q 404 83 381 39 q 428 183 428 126 q 404 276 428 235 q 342 342 381 317 q 256 367 303 367 q 180 352 214 367 q 122 308 146 338 l 124 307 l 321 581 l 288 581 z "},"₇":{"ha":490,"x_min":47,"x_max":443,"o":"m 47 558 l 403 558 l 115 0 l 143 0 l 443 583 l 47 583 l 47 558 z "},"₈":{"ha":428,"x_min":47,"x_max":381,"o":"m 64 449 q 85 374 64 407 q 141 322 107 340 q 214 304 175 304 q 288 322 254 304 q 342 374 321 340 q 363 449 363 407 q 343 520 363 488 q 290 572 324 553 q 214 592 257 592 q 137 572 171 592 q 83 520 103 553 q 64 449 64 488 m 90 446 q 125 533 90 497 q 214 568 160 568 q 303 533 268 568 q 338 446 338 497 q 319 382 338 410 q 271 338 300 354 q 214 321 242 321 q 158 338 186 321 q 110 382 129 354 q 90 446 90 410 m 47 156 q 67 74 47 111 q 125 14 88 36 q 214 -8 163 -8 q 303 14 267 -8 q 360 74 340 36 q 381 156 381 111 q 367 220 381 190 q 331 271 354 250 q 277 303 307 292 q 214 314 247 314 q 151 303 182 314 q 97 271 121 292 q 60 220 74 250 q 47 156 47 190 m 72 158 q 94 230 72 199 q 147 279 115 261 q 214 297 179 297 q 281 279 249 297 q 335 230 314 261 q 356 158 356 199 q 317 55 356 94 q 214 15 278 15 q 111 55 150 15 q 72 158 72 94 z "},"₉":{"ha":467,"x_min":40,"x_max":414,"o":"m 388 400 q 368 320 388 357 q 310 261 349 283 q 221 239 272 239 q 144 260 179 239 q 87 317 108 281 q 65 400 65 354 q 110 522 65 474 q 226 569 156 569 q 343 522 299 569 q 388 400 388 474 m 181 3 l 369 272 q 400 331 386 296 q 414 400 414 365 q 390 501 414 457 q 325 569 367 544 q 226 594 283 594 q 128 569 171 594 q 63 501 86 544 q 40 400 40 457 q 64 308 40 349 q 126 242 88 267 q 213 217 165 217 q 288 231 254 217 q 344 275 321 246 l 343 276 l 147 3 l 181 3 z "},"⅐":{"ha":1169,"x_min":33,"x_max":1121,"o":"m 840 972 l 67 0 l 106 0 l 879 972 l 840 972 m 33 903 l 171 936 l 171 381 l 197 381 l 197 969 l 33 931 l 33 903 m 725 558 l 1081 558 l 793 0 l 821 0 l 1121 583 l 725 583 l 725 558 z "},"⅑":{"ha":1089,"x_min":33,"x_max":1029,"o":"m 840 972 l 67 0 l 106 0 l 879 972 l 840 972 m 33 903 l 171 936 l 171 381 l 197 381 l 197 969 l 33 931 l 33 903 m 1003 400 q 983 320 1003 357 q 926 261 964 283 q 836 239 888 239 q 759 260 794 239 q 702 317 724 281 q 681 400 681 354 q 726 522 681 474 q 842 569 771 569 q 958 522 914 569 q 1003 400 1003 474 m 796 3 l 985 272 q 1015 331 1001 296 q 1029 400 1029 365 q 1006 501 1029 457 q 940 569 982 544 q 842 594 899 594 q 744 569 786 594 q 678 501 701 544 q 656 400 656 457 q 679 308 656 349 q 742 242 703 267 q 828 217 781 217 q 903 231 869 217 q 960 275 936 246 l 958 276 l 763 3 l 796 3 z "},"⅒":{"ha":1500,"x_min":33,"x_max":1417,"o":"m 840 972 l 67 0 l 106 0 l 879 972 l 840 972 m 33 903 l 171 936 l 171 381 l 197 381 l 197 969 l 33 931 l 33 903 m 624 524 l 761 557 l 761 1 l 789 1 l 789 590 l 624 551 l 624 524 m 1057 292 q 1077 429 1057 367 q 1135 529 1097 492 q 1224 567 1172 567 q 1313 529 1276 567 q 1369 429 1349 492 q 1389 292 1389 367 q 1369 154 1389 217 q 1313 54 1349 92 q 1224 17 1276 17 q 1135 54 1172 17 q 1077 154 1097 92 q 1057 292 1057 217 m 1031 292 q 1053 140 1031 208 q 1120 31 1076 71 q 1224 -8 1164 -8 q 1326 31 1283 -8 q 1393 140 1369 71 q 1417 292 1417 208 q 1393 444 1417 376 q 1326 552 1369 513 q 1224 592 1283 592 q 1120 552 1164 592 q 1053 444 1076 513 q 1031 292 1031 376 z "},"⅓":{"ha":1049,"x_min":33,"x_max":1004,"o":"m 840 972 l 67 0 l 106 0 l 879 972 l 840 972 m 33 903 l 171 936 l 171 381 l 197 381 l 197 969 l 33 931 l 33 903 m 803 297 q 893 315 851 297 q 961 366 935 333 q 988 442 988 399 q 947 545 988 499 q 832 592 907 592 q 717 549 760 592 q 674 439 674 507 l 699 439 q 735 531 699 496 q 832 567 772 567 q 928 529 894 567 q 961 442 961 492 q 937 374 961 403 q 876 331 913 346 q 803 315 840 315 l 803 297 m 828 -8 q 955 35 906 -8 q 1004 149 1004 79 q 974 240 1004 204 q 897 292 943 275 q 803 310 851 310 l 803 292 q 881 276 840 292 q 949 230 921 261 q 978 151 978 199 q 937 54 978 92 q 828 17 896 17 q 716 56 757 17 q 675 154 675 94 l 649 154 q 669 72 649 110 q 731 13 690 35 q 828 -8 772 -8 z "},"⅔":{"ha":1225,"x_min":44,"x_max":1181,"o":"m 1017 972 l 243 0 l 282 0 l 1056 972 l 1017 972 m 44 392 l 432 392 l 432 417 l 103 417 l 335 660 q 392 732 368 693 q 415 819 415 771 q 399 894 415 856 q 346 958 382 932 q 251 985 310 985 q 157 958 197 985 q 94 885 117 932 q 72 775 72 838 l 99 775 q 140 908 99 857 q 251 960 182 960 q 330 938 300 960 q 374 884 360 915 q 388 822 388 853 q 366 741 388 775 q 314 675 344 707 l 44 392 m 979 297 q 1069 315 1028 297 q 1138 366 1111 333 q 1164 442 1164 399 q 1124 545 1164 499 q 1008 592 1083 592 q 893 549 936 592 q 850 439 850 507 l 875 439 q 912 531 875 496 q 1008 567 949 567 q 1104 529 1071 567 q 1138 442 1138 492 q 1113 374 1138 403 q 1053 331 1089 346 q 979 315 1017 315 l 979 297 m 1004 -8 q 1131 35 1082 -8 q 1181 149 1181 79 q 1150 240 1181 204 q 1074 292 1119 275 q 979 310 1028 310 l 979 292 q 1057 276 1017 292 q 1126 230 1097 261 q 1154 151 1154 199 q 1113 54 1154 92 q 1004 17 1072 17 q 892 56 933 17 q 851 154 851 94 l 825 154 q 846 72 825 110 q 908 13 867 35 q 1004 -8 949 -8 z "},"⅕":{"ha":1033,"x_min":33,"x_max":972,"o":"m 840 972 l 67 0 l 106 0 l 879 972 l 840 972 m 33 903 l 171 936 l 171 381 l 197 381 l 197 969 l 33 931 l 33 903 m 961 189 q 939 286 961 244 q 878 351 917 328 q 793 375 840 375 q 703 354 743 375 q 642 304 664 333 l 621 269 q 695 330 656 310 q 785 350 735 350 q 890 306 847 350 q 933 189 933 261 q 887 59 933 104 q 769 14 840 14 q 669 45 708 14 q 608 126 631 76 l 586 111 q 654 23 611 57 q 769 -11 697 -11 q 866 11 822 -11 q 935 78 910 33 q 961 189 961 124 m 717 557 l 972 557 l 972 581 l 697 581 l 621 269 l 656 310 l 717 557 z "},"⅖":{"ha":1210,"x_min":44,"x_max":1149,"o":"m 1017 972 l 243 0 l 282 0 l 1056 972 l 1017 972 m 44 392 l 432 392 l 432 417 l 103 417 l 335 660 q 392 732 368 693 q 415 819 415 771 q 399 894 415 856 q 346 958 382 932 q 251 985 310 985 q 157 958 197 985 q 94 885 117 932 q 72 775 72 838 l 99 775 q 140 908 99 857 q 251 960 182 960 q 330 938 300 960 q 374 884 360 915 q 388 822 388 853 q 366 741 388 775 q 314 675 344 707 l 44 392 m 1138 189 q 1115 286 1138 244 q 1055 351 1093 328 q 969 375 1017 375 q 880 354 919 375 q 818 304 840 333 l 797 269 q 872 330 832 310 q 961 350 911 350 q 1067 306 1024 350 q 1110 189 1110 261 q 1063 59 1110 104 q 946 14 1017 14 q 846 45 885 14 q 785 126 807 76 l 763 111 q 831 23 788 57 q 946 -11 874 -11 q 1042 11 999 -11 q 1112 78 1086 33 q 1138 189 1138 124 m 893 557 l 1149 557 l 1149 581 l 874 581 l 797 269 l 832 310 l 893 557 z "},"⅗":{"ha":1154,"x_min":47,"x_max":1093,"o":"m 961 972 l 188 0 l 226 0 l 1000 972 l 961 972 m 201 686 q 292 704 250 686 q 360 755 333 722 q 386 831 386 788 q 346 934 386 888 q 231 981 306 981 q 115 938 158 981 q 72 828 72 896 l 97 828 q 134 920 97 885 q 231 956 171 956 q 326 918 293 956 q 360 831 360 881 q 335 763 360 792 q 275 719 311 735 q 201 704 239 704 l 201 686 m 226 381 q 353 424 304 381 q 403 538 403 468 q 372 628 403 593 q 296 681 342 664 q 201 699 250 699 l 201 681 q 279 665 239 681 q 348 619 319 650 q 376 540 376 588 q 335 443 376 481 q 226 406 294 406 q 115 444 156 406 q 74 543 74 483 l 47 543 q 68 461 47 499 q 130 402 89 424 q 226 381 171 381 m 1082 189 q 1060 286 1082 244 q 999 351 1038 328 q 914 375 961 375 q 824 354 864 375 q 763 304 785 333 l 742 269 q 816 330 776 310 q 906 350 856 350 q 1011 306 968 350 q 1054 189 1054 261 q 1008 59 1054 104 q 890 14 961 14 q 790 45 829 14 q 729 126 751 76 l 707 111 q 775 23 732 57 q 890 -11 818 -11 q 987 11 943 -11 q 1056 78 1031 33 q 1082 189 1082 124 m 838 557 l 1093 557 l 1093 581 l 818 581 l 742 269 l 776 310 l 838 557 z "},"⅘":{"ha":1203,"x_min":47,"x_max":1142,"o":"m 1010 972 l 236 0 l 275 0 l 1049 972 l 1010 972 m 47 506 l 468 506 l 468 529 l 365 529 l 360 529 l 69 529 l 47 506 m 75 506 l 349 907 l 349 521 l 349 515 l 349 389 l 376 389 l 376 972 l 367 972 l 47 506 l 75 506 m 1131 189 q 1108 286 1131 244 q 1048 351 1086 328 q 963 375 1010 375 q 873 354 913 375 q 811 304 833 333 l 790 269 q 865 330 825 310 q 954 350 904 350 q 1060 306 1017 350 q 1103 189 1103 261 q 1056 59 1103 104 q 939 14 1010 14 q 839 45 878 14 q 778 126 800 76 l 756 111 q 824 23 781 57 q 939 -11 867 -11 q 1035 11 992 -11 q 1105 78 1079 33 q 1131 189 1131 124 m 886 557 l 1142 557 l 1142 581 l 867 581 l 790 269 l 825 310 l 886 557 z "},"⅙":{"ha":1019,"x_min":33,"x_max":967,"o":"m 840 972 l 67 0 l 106 0 l 879 972 l 840 972 m 33 903 l 171 936 l 171 381 l 197 381 l 197 969 l 33 931 l 33 903 m 618 183 q 638 263 618 226 q 697 322 658 300 q 786 344 735 344 q 864 324 829 344 q 919 266 899 303 q 940 183 940 229 q 896 62 940 110 q 779 14 851 14 q 663 62 708 14 q 618 183 618 110 m 826 581 l 638 311 q 607 254 621 289 q 593 183 593 219 q 617 83 593 126 q 682 14 640 39 q 779 -11 724 -11 q 878 14 836 -11 q 943 83 919 39 q 967 183 967 126 q 943 276 967 235 q 881 342 919 317 q 794 367 842 367 q 719 352 753 367 q 663 308 686 338 l 664 307 l 861 581 l 826 581 z "},"⅚":{"ha":1189,"x_min":47,"x_max":1136,"o":"m 1010 972 l 236 0 l 275 0 l 1049 972 l 1010 972 m 422 578 q 400 675 422 633 q 340 740 378 717 q 254 764 301 764 q 165 743 204 764 q 103 693 125 722 l 82 658 q 156 719 117 699 q 246 739 196 739 q 351 694 308 739 q 394 578 394 650 q 348 448 394 493 q 231 403 301 403 q 131 434 169 403 q 69 515 92 465 l 47 500 q 115 412 72 446 q 231 378 158 378 q 327 400 283 378 q 397 467 371 422 q 422 578 422 513 m 178 946 l 433 946 l 433 969 l 158 969 l 82 658 l 117 699 l 178 946 m 788 183 q 808 263 788 226 q 867 322 829 300 q 956 344 904 344 q 1033 324 999 344 q 1089 266 1068 303 q 1110 183 1110 229 q 1065 62 1110 110 q 949 14 1021 14 q 833 62 878 14 q 788 183 788 110 m 996 581 l 807 311 q 776 254 790 289 q 763 183 763 219 q 786 83 763 126 q 851 14 810 39 q 949 -11 893 -11 q 1047 14 1006 -11 q 1113 83 1089 39 q 1136 183 1136 126 q 1113 276 1136 235 q 1050 342 1089 317 q 964 367 1011 367 q 889 352 922 367 q 832 308 856 338 l 833 307 l 1031 581 l 996 581 z "},"⅛":{"ha":1056,"x_min":33,"x_max":989,"o":"m 840 972 l 67 0 l 106 0 l 879 972 l 840 972 m 33 903 l 171 936 l 171 381 l 197 381 l 197 969 l 33 931 l 33 903 m 672 449 q 694 374 672 407 q 749 322 715 340 q 822 304 783 304 q 896 322 863 304 q 950 374 929 340 q 971 449 971 407 q 952 520 971 488 q 899 572 933 553 q 822 592 865 592 q 746 572 779 592 q 692 520 713 553 q 672 449 672 488 m 699 446 q 733 533 699 497 q 822 568 768 568 q 911 533 876 568 q 946 446 946 497 q 926 382 946 410 q 878 338 907 354 q 822 321 850 321 q 766 338 794 321 q 718 382 738 354 q 699 446 699 410 m 656 156 q 676 74 656 111 q 733 14 696 36 q 822 -8 771 -8 q 912 14 875 -8 q 969 74 949 36 q 989 156 989 111 q 976 220 989 190 q 939 271 963 250 q 885 303 915 292 q 822 314 856 314 q 760 303 790 314 q 706 271 729 292 q 669 220 682 250 q 656 156 656 190 m 681 158 q 701 230 681 199 q 755 279 722 261 q 822 297 788 297 q 890 279 857 297 q 943 230 922 261 q 964 158 964 199 q 925 55 964 94 q 822 15 886 15 q 719 55 758 15 q 681 158 681 94 z "},"⅜":{"ha":1176,"x_min":47,"x_max":1110,"o":"m 961 972 l 188 0 l 226 0 l 1000 972 l 961 972 m 201 686 q 292 704 250 686 q 360 755 333 722 q 386 831 386 788 q 346 934 386 888 q 231 981 306 981 q 115 938 158 981 q 72 828 72 896 l 97 828 q 134 920 97 885 q 231 956 171 956 q 326 918 293 956 q 360 831 360 881 q 335 763 360 792 q 275 719 311 735 q 201 704 239 704 l 201 686 m 226 381 q 353 424 304 381 q 403 538 403 468 q 372 628 403 593 q 296 681 342 664 q 201 699 250 699 l 201 681 q 279 665 239 681 q 348 619 319 650 q 376 540 376 588 q 335 443 376 481 q 226 406 294 406 q 115 444 156 406 q 74 543 74 483 l 47 543 q 68 461 47 499 q 130 402 89 424 q 226 381 171 381 m 793 449 q 815 374 793 407 q 870 322 836 340 q 943 304 904 304 q 1017 322 983 304 q 1071 374 1050 340 q 1092 449 1092 407 q 1073 520 1092 488 q 1020 572 1054 553 q 943 592 986 592 q 867 572 900 592 q 813 520 833 553 q 793 449 793 488 m 819 446 q 854 533 819 497 q 943 568 889 568 q 1032 533 997 568 q 1067 446 1067 497 q 1047 382 1067 410 q 999 338 1028 354 q 943 321 971 321 q 887 338 915 321 q 839 382 858 354 q 819 446 819 410 m 776 156 q 797 74 776 111 q 854 14 817 36 q 943 -8 892 -8 q 1033 14 996 -8 q 1090 74 1069 36 q 1110 156 1110 111 q 1097 220 1110 190 q 1060 271 1083 250 q 1006 303 1036 292 q 943 314 976 314 q 881 303 911 314 q 826 271 850 292 q 790 220 803 250 q 776 156 776 190 m 801 158 q 823 230 801 199 q 876 279 844 261 q 943 297 908 297 q 1010 279 978 297 q 1064 230 1043 261 q 1085 158 1085 199 q 1046 55 1085 94 q 943 15 1007 15 q 840 55 879 15 q 801 158 801 94 z "},"⅝":{"ha":1225,"x_min":47,"x_max":1158,"o":"m 1010 972 l 236 0 l 275 0 l 1049 972 l 1010 972 m 422 578 q 400 675 422 633 q 340 740 378 717 q 254 764 301 764 q 165 743 204 764 q 103 693 125 722 l 82 658 q 156 719 117 699 q 246 739 196 739 q 351 694 308 739 q 394 578 394 650 q 348 448 394 493 q 231 403 301 403 q 131 434 169 403 q 69 515 92 465 l 47 500 q 115 412 72 446 q 231 378 158 378 q 327 400 283 378 q 397 467 371 422 q 422 578 422 513 m 178 946 l 433 946 l 433 969 l 158 969 l 82 658 l 117 699 l 178 946 m 842 449 q 863 374 842 407 q 919 322 885 340 q 992 304 953 304 q 1065 322 1032 304 q 1119 374 1099 340 q 1140 449 1140 407 q 1122 520 1140 488 q 1069 572 1103 553 q 992 592 1035 592 q 915 572 949 592 q 862 520 882 553 q 842 449 842 488 m 868 446 q 903 533 868 497 q 992 568 938 568 q 1081 533 1046 568 q 1115 446 1115 497 q 1096 382 1115 410 q 1048 338 1076 354 q 992 321 1019 321 q 935 338 964 321 q 888 382 907 354 q 868 446 868 410 m 825 156 q 845 74 825 111 q 903 14 865 36 q 992 -8 940 -8 q 1081 14 1044 -8 q 1138 74 1118 36 q 1158 156 1158 111 q 1145 220 1158 190 q 1108 271 1132 250 q 1055 303 1085 292 q 992 314 1025 314 q 929 303 960 314 q 875 271 899 292 q 838 220 851 250 q 825 156 825 190 m 850 158 q 872 230 850 199 q 925 279 893 261 q 992 297 957 297 q 1059 279 1026 297 q 1113 230 1092 261 q 1133 158 1133 199 q 1094 55 1133 94 q 992 15 1056 15 q 889 55 928 15 q 850 158 850 94 z "},"⅞":{"ha":1072,"x_min":47,"x_max":1006,"o":"m 857 972 l 83 0 l 122 0 l 896 972 l 857 972 m 47 947 l 403 947 l 115 389 l 143 389 l 443 972 l 47 972 l 47 947 m 689 449 q 710 374 689 407 q 766 322 732 340 q 839 304 800 304 q 913 322 879 304 q 967 374 946 340 q 988 449 988 407 q 969 520 988 488 q 916 572 950 553 q 839 592 882 592 q 763 572 796 592 q 709 520 729 553 q 689 449 689 488 m 715 446 q 750 533 715 497 q 839 568 785 568 q 928 533 893 568 q 963 446 963 497 q 943 382 963 410 q 895 338 924 354 q 839 321 867 321 q 783 338 811 321 q 735 382 754 354 q 715 446 715 410 m 672 156 q 692 74 672 111 q 750 14 713 36 q 839 -8 788 -8 q 928 14 892 -8 q 985 74 965 36 q 1006 156 1006 111 q 992 220 1006 190 q 956 271 979 250 q 902 303 932 292 q 839 314 872 314 q 776 303 807 314 q 722 271 746 292 q 685 220 699 250 q 672 156 672 190 m 697 158 q 719 230 697 199 q 772 279 740 261 q 839 297 804 297 q 906 279 874 297 q 960 230 939 261 q 981 158 981 199 q 942 55 981 94 q 839 15 903 15 q 736 55 775 15 q 697 158 697 94 z "},"_":{"ha":694,"x_min":0,"x_max":694,"o":"m 0 -161 l 694 -161 l 694 -128 l 0 -128 l 0 -161 z "},"-":{"ha":292,"x_min":7,"x_max":285,"o":"m 7 342 l 285 342 l 285 382 l 7 382 l 7 342 z "},"‐":{"ha":292,"x_min":7,"x_max":285,"o":"m 7 342 l 285 342 l 285 382 l 7 382 l 7 342 z "},"‒":{"ha":819,"x_min":97,"x_max":722,"o":"m 97 342 l 722 342 l 722 382 l 97 382 l 97 342 z "},"–":{"ha":1028,"x_min":97,"x_max":931,"o":"m 97 342 l 931 342 l 931 382 l 97 382 l 97 342 z "},"—":{"ha":1236,"x_min":97,"x_max":1139,"o":"m 97 342 l 1139 342 l 1139 382 l 97 382 l 97 342 z "},"(":{"ha":363,"x_min":125,"x_max":321,"o":"m 285 1083 q 163 754 201 928 q 125 403 125 581 q 163 53 125 226 q 285 -278 201 -121 l 321 -278 q 208 56 244 -114 q 171 403 171 226 q 208 750 171 581 q 321 1083 244 919 l 285 1083 z "},")":{"ha":363,"x_min":42,"x_max":238,"o":"m 78 -278 q 199 53 161 -121 q 238 403 238 226 q 199 754 238 581 q 78 1083 161 928 l 42 1083 q 154 750 118 919 q 190 403 190 581 q 154 56 190 226 q 42 -278 118 -114 l 78 -278 z "},"[":{"ha":378,"x_min":139,"x_max":350,"o":"m 182 1042 l 350 1042 l 350 1083 l 139 1083 l 139 -306 l 350 -306 l 350 -264 l 182 -264 l 182 1042 z "},"]":{"ha":378,"x_min":28,"x_max":239,"o":"m 196 -264 l 28 -264 l 28 -306 l 239 -306 l 239 1083 l 28 1083 l 28 1042 l 196 1042 l 196 -264 z "},"{":{"ha":403,"x_min":99,"x_max":353,"o":"m 218 897 q 240 1010 218 976 q 319 1044 261 1044 l 353 1044 l 353 1083 l 308 1083 q 234 1063 264 1083 q 190 1001 204 1043 q 175 889 175 958 l 175 597 q 153 474 175 518 q 99 419 131 431 l 99 386 q 153 332 131 376 q 175 208 175 288 l 175 -83 q 190 -194 175 -151 q 234 -258 204 -237 q 308 -278 264 -278 l 353 -278 l 353 -239 l 319 -239 q 240 -204 261 -239 q 218 -92 218 -169 l 218 183 q 210 271 218 229 q 189 343 203 313 q 153 391 175 374 q 106 408 132 408 l 106 397 q 153 415 132 397 q 189 463 175 432 q 210 535 203 493 q 218 622 218 576 l 218 897 z "},"}":{"ha":403,"x_min":54,"x_max":307,"o":"m 189 -92 q 167 -204 189 -169 q 88 -239 144 -239 l 54 -239 l 54 -278 l 97 -278 q 172 -258 143 -278 q 216 -194 201 -237 q 231 -83 231 -151 l 231 208 q 253 332 231 288 q 307 386 276 376 l 307 419 q 253 474 276 431 q 231 597 231 518 l 231 889 q 216 1001 231 958 q 172 1063 201 1043 q 97 1083 143 1083 l 54 1083 l 54 1044 l 88 1044 q 167 1010 144 1044 q 189 897 189 976 l 189 622 q 196 535 189 576 q 217 463 203 493 q 253 415 232 432 q 301 397 274 397 l 301 408 q 253 391 274 408 q 217 343 232 374 q 196 271 203 313 q 189 183 189 229 l 189 -92 z "},"#":{"ha":807,"x_min":49,"x_max":758,"o":"m 104 625 l 286 625 l 296 625 l 578 625 l 588 625 l 758 625 l 758 663 l 104 663 l 104 625 m 49 317 l 703 317 l 703 354 l 526 354 l 513 354 l 231 354 l 219 354 l 49 354 l 49 317 m 647 972 l 568 649 l 565 638 l 494 342 l 490 332 l 411 0 l 451 0 l 688 972 l 647 972 m 356 972 l 119 0 l 160 0 l 240 331 l 242 339 l 315 639 l 318 650 l 396 972 l 356 972 z "},"%":{"ha":994,"x_min":49,"x_max":946,"o":"m 49 774 q 75 666 49 714 q 148 590 101 618 q 258 561 194 561 q 369 590 322 561 q 442 666 417 618 q 468 774 468 714 q 442 881 468 833 q 369 958 417 929 q 258 986 322 986 q 148 958 194 986 q 75 881 101 929 q 49 774 49 833 m 88 774 q 108 862 88 822 q 167 926 129 901 q 258 950 206 950 q 350 926 313 950 q 408 862 388 901 q 429 774 429 822 q 408 686 429 726 q 350 622 388 646 q 258 597 313 597 q 167 622 206 597 q 108 686 129 646 q 88 774 88 726 m 526 199 q 552 91 526 139 q 625 15 578 43 q 736 -14 672 -14 q 847 15 800 -14 q 920 91 894 43 q 946 199 946 139 q 920 306 946 258 q 847 383 894 354 q 736 411 800 411 q 625 383 672 411 q 552 306 578 354 q 526 199 526 258 m 565 199 q 586 286 565 246 q 645 351 607 326 q 736 375 683 375 q 827 351 789 375 q 886 286 865 326 q 907 199 907 246 q 886 111 907 151 q 827 46 865 71 q 736 21 789 21 q 645 46 683 21 q 586 111 607 71 q 565 199 565 151 m 792 972 l 160 0 l 203 0 l 835 972 l 792 972 z "},"‰":{"ha":1513,"x_min":49,"x_max":1464,"o":"m 1044 199 q 1070 91 1044 139 q 1143 15 1096 43 q 1254 -14 1190 -14 q 1365 15 1318 -14 q 1438 91 1413 43 q 1464 199 1464 139 q 1438 306 1464 258 q 1365 383 1413 354 q 1254 411 1318 411 q 1143 383 1190 411 q 1070 306 1096 354 q 1044 199 1044 258 m 1083 199 q 1104 286 1083 246 q 1163 351 1125 326 q 1254 375 1201 375 q 1345 351 1307 375 q 1404 286 1383 326 q 1425 199 1425 246 q 1404 111 1425 151 q 1345 46 1383 71 q 1254 21 1307 21 q 1163 46 1201 21 q 1104 111 1125 71 q 1083 199 1083 151 m 49 774 q 75 666 49 714 q 148 590 101 618 q 258 561 194 561 q 369 590 322 561 q 442 666 417 618 q 468 774 468 714 q 442 881 468 833 q 369 958 417 929 q 258 986 322 986 q 148 958 194 986 q 75 881 101 929 q 49 774 49 833 m 88 774 q 108 862 88 822 q 167 926 129 901 q 258 950 206 950 q 350 926 313 950 q 408 862 388 901 q 429 774 429 822 q 408 686 429 726 q 350 622 388 646 q 258 597 313 597 q 167 622 206 597 q 108 686 129 646 q 88 774 88 726 m 526 199 q 552 91 526 139 q 625 15 578 43 q 736 -14 672 -14 q 847 15 800 -14 q 920 91 894 43 q 946 199 946 139 q 920 306 946 258 q 847 383 894 354 q 736 411 800 411 q 625 383 672 411 q 552 306 578 354 q 526 199 526 258 m 565 199 q 586 286 565 246 q 645 351 607 326 q 736 375 683 375 q 827 351 789 375 q 886 286 865 326 q 907 199 907 246 q 886 111 907 151 q 827 46 865 71 q 736 21 789 21 q 645 46 683 21 q 586 111 607 71 q 565 199 565 151 m 792 972 l 160 0 l 203 0 l 835 972 l 792 972 z "},"‱":{"ha":2031,"x_min":49,"x_max":1982,"o":"m 1563 199 q 1588 91 1563 139 q 1661 15 1614 43 q 1772 -14 1708 -14 q 1883 15 1835 -14 q 1956 91 1931 43 q 1982 199 1982 139 q 1956 306 1982 258 q 1883 383 1931 354 q 1772 411 1835 411 q 1661 383 1708 411 q 1588 306 1614 354 q 1563 199 1563 258 m 1601 199 q 1622 286 1601 246 q 1681 351 1643 326 q 1772 375 1719 375 q 1863 351 1825 375 q 1922 286 1900 326 q 1943 199 1943 246 q 1922 111 1943 151 q 1863 46 1900 71 q 1772 21 1825 21 q 1681 46 1719 21 q 1622 111 1643 71 q 1601 199 1601 151 m 1044 199 q 1070 91 1044 139 q 1143 15 1096 43 q 1254 -14 1190 -14 q 1365 15 1318 -14 q 1438 91 1413 43 q 1464 199 1464 139 q 1438 306 1464 258 q 1365 383 1413 354 q 1254 411 1318 411 q 1143 383 1190 411 q 1070 306 1096 354 q 1044 199 1044 258 m 1083 199 q 1104 286 1083 246 q 1163 351 1125 326 q 1254 375 1201 375 q 1345 351 1307 375 q 1404 286 1383 326 q 1425 199 1425 246 q 1404 111 1425 151 q 1345 46 1383 71 q 1254 21 1307 21 q 1163 46 1201 21 q 1104 111 1125 71 q 1083 199 1083 151 m 49 774 q 75 666 49 714 q 148 590 101 618 q 258 561 194 561 q 369 590 322 561 q 442 666 417 618 q 468 774 468 714 q 442 881 468 833 q 369 958 417 929 q 258 986 322 986 q 148 958 194 986 q 75 881 101 929 q 49 774 49 833 m 88 774 q 108 862 88 822 q 167 926 129 901 q 258 950 206 950 q 350 926 313 950 q 408 862 388 901 q 429 774 429 822 q 408 686 429 726 q 350 622 388 646 q 258 597 313 597 q 167 622 206 597 q 108 686 129 646 q 88 774 88 726 m 526 199 q 552 91 526 139 q 625 15 578 43 q 736 -14 672 -14 q 847 15 800 -14 q 920 91 894 43 q 946 199 946 139 q 920 306 946 258 q 847 383 894 354 q 736 411 800 411 q 625 383 672 411 q 552 306 578 354 q 526 199 526 258 m 565 199 q 586 286 565 246 q 645 351 607 326 q 736 375 683 375 q 827 351 789 375 q 886 286 865 326 q 907 199 907 246 q 886 111 907 151 q 827 46 865 71 q 736 21 789 21 q 645 46 683 21 q 586 111 607 71 q 565 199 565 151 m 792 972 l 160 0 l 203 0 l 835 972 l 792 972 z "},"'":{"ha":335,"x_min":121,"x_max":242,"o":"m 190 972 l 121 575 l 150 575 l 242 972 l 190 972 z "},"\"":{"ha":585,"x_min":121,"x_max":492,"o":"m 190 972 l 121 575 l 150 575 l 242 972 l 190 972 m 440 972 l 371 575 l 400 575 l 492 972 l 440 972 z "},"‘":{"ha":333,"x_min":88,"x_max":254,"o":"m 138 653 l 254 972 l 221 972 l 88 653 l 138 653 z "},"’":{"ha":353,"x_min":99,"x_max":265,"o":"m 215 972 l 99 653 l 131 653 l 265 972 l 215 972 z "},"“":{"ha":571,"x_min":107,"x_max":492,"o":"m 157 653 l 274 972 l 242 972 l 107 653 l 157 653 m 376 653 l 492 972 l 460 972 l 326 653 l 376 653 z "},"”":{"ha":571,"x_min":79,"x_max":464,"o":"m 194 972 l 79 653 l 111 653 l 246 972 l 194 972 m 414 972 l 299 653 l 331 653 l 464 972 l 414 972 z "},"‚":{"ha":353,"x_min":83,"x_max":250,"o":"m 199 111 l 83 -208 l 115 -208 l 250 111 l 199 111 z "},"„":{"ha":571,"x_min":79,"x_max":464,"o":"m 194 111 l 79 -208 l 111 -208 l 246 111 l 194 111 m 414 111 l 299 -208 l 331 -208 l 464 111 l 414 111 z "},"‹":{"ha":461,"x_min":56,"x_max":364,"o":"m 101 356 l 364 656 l 338 681 l 56 354 l 338 28 l 364 53 l 101 356 z "},"›":{"ha":486,"x_min":122,"x_max":431,"o":"m 385 353 l 122 53 l 149 28 l 431 354 l 149 681 l 122 656 l 385 353 z "},"«":{"ha":683,"x_min":56,"x_max":586,"o":"m 324 356 l 586 656 l 560 681 l 278 354 l 560 28 l 586 53 l 324 356 m 101 356 l 364 656 l 338 681 l 56 354 l 338 28 l 364 53 l 101 356 z "},"»":{"ha":683,"x_min":97,"x_max":628,"o":"m 360 353 l 97 53 l 125 28 l 406 354 l 125 681 l 97 656 l 360 353 m 582 353 l 319 53 l 347 28 l 628 354 l 347 681 l 319 656 l 582 353 z "},"*":{"ha":822,"x_min":167,"x_max":656,"o":"m 644 818 l 406 733 l 415 708 l 656 779 l 644 818 m 575 529 l 421 729 l 401 713 l 542 506 l 575 529 m 281 506 l 421 713 l 401 729 l 247 529 l 281 506 m 167 779 l 407 708 l 417 733 l 178 818 l 167 779 m 390 972 l 399 721 l 424 721 l 432 972 l 390 972 z "},"†":{"ha":724,"x_min":125,"x_max":599,"o":"m 125 750 l 125 710 l 599 710 l 599 750 l 125 750 m 340 972 l 340 -208 l 383 -208 l 383 972 l 340 972 z "},"‡":{"ha":724,"x_min":125,"x_max":599,"o":"m 125 167 l 125 126 l 599 126 l 599 167 l 125 167 m 125 750 l 125 710 l 599 710 l 599 750 l 125 750 m 340 972 l 340 -208 l 383 -208 l 383 972 l 340 972 z "},".":{"ha":378,"x_min":156,"x_max":222,"o":"m 156 17 q 165 -6 156 3 q 189 -15 175 -15 q 213 -6 203 -15 q 222 17 222 3 q 213 41 222 32 q 189 50 203 50 q 166 40 176 50 q 156 17 156 31 z "},",":{"ha":396,"x_min":93,"x_max":275,"o":"m 232 138 l 93 -217 l 122 -228 l 275 119 l 232 138 z "},":":{"ha":417,"x_min":156,"x_max":222,"o":"m 156 17 q 165 -6 156 3 q 189 -15 175 -15 q 213 -6 203 -15 q 222 17 222 3 q 213 41 222 32 q 189 50 203 50 q 166 40 176 50 q 156 17 156 31 m 156 514 q 165 490 156 500 q 189 481 175 481 q 213 490 203 481 q 222 514 222 500 q 213 538 222 528 q 189 547 203 547 q 166 538 176 547 q 156 514 156 528 z "},";":{"ha":406,"x_min":93,"x_max":275,"o":"m 197 514 q 207 490 197 500 q 231 481 217 481 q 254 490 244 481 q 264 514 264 500 q 254 538 264 528 q 231 547 244 547 q 208 538 218 547 q 197 514 197 528 m 232 138 l 93 -217 l 122 -228 l 275 119 l 232 138 z "},"…":{"ha":1164,"x_min":157,"x_max":1007,"o":"m 157 17 q 167 -6 157 3 q 190 -15 176 -15 q 213 -6 204 -15 q 222 17 222 3 q 213 41 222 32 q 190 50 204 50 q 167 40 176 50 q 157 17 157 31 m 549 17 q 558 -6 549 3 q 582 -15 568 -15 q 606 -6 596 -15 q 615 17 615 3 q 606 41 615 32 q 582 50 596 50 q 559 40 569 50 q 549 17 549 31 m 940 17 q 951 -6 940 3 q 974 -15 961 -15 q 998 -6 989 -15 q 1007 17 1007 3 q 997 41 1007 32 q 974 50 988 50 q 951 40 961 50 q 940 17 940 31 z "},"!":{"ha":379,"x_min":157,"x_max":222,"o":"m 163 972 l 175 278 l 204 278 l 217 972 l 163 972 m 157 17 q 167 -6 157 3 q 190 -15 176 -15 q 213 -6 204 -15 q 222 17 222 3 q 213 41 222 32 q 190 50 204 50 q 167 40 176 50 q 157 17 157 31 z "},"¡":{"ha":417,"x_min":194,"x_max":260,"o":"m 254 -340 l 242 354 l 213 354 l 200 -340 l 254 -340 m 260 614 q 251 638 260 629 q 228 647 242 647 q 204 638 214 647 q 194 615 194 629 q 204 592 194 601 q 228 582 214 582 q 251 592 242 582 q 260 614 260 601 z "},"?":{"ha":758,"x_min":89,"x_max":656,"o":"m 613 714 q 574 598 613 651 q 467 512 536 544 q 310 479 399 479 l 299 479 l 311 236 l 344 236 l 346 449 q 502 488 432 451 q 614 584 572 525 q 656 714 656 643 q 636 822 656 772 q 579 908 617 871 q 490 966 542 946 q 372 986 438 986 q 248 966 300 986 q 158 909 196 946 q 89 824 121 872 l 124 801 q 223 907 165 868 q 368 946 281 946 q 501 916 446 946 q 584 834 556 886 q 613 714 613 782 m 289 17 q 299 -6 289 3 q 322 -15 310 -15 q 347 -6 338 -15 q 356 17 356 3 q 347 41 356 32 q 322 50 338 50 q 299 41 310 50 q 289 17 289 32 z "},"¿":{"ha":758,"x_min":103,"x_max":671,"o":"m 146 258 q 185 374 146 321 q 293 460 225 428 q 450 493 361 493 l 460 493 l 447 736 l 415 736 l 413 524 q 258 485 328 521 q 145 390 188 449 q 103 258 103 331 q 123 151 103 200 q 180 64 143 101 q 269 6 217 26 q 386 -14 321 -14 q 511 6 460 -14 q 601 63 563 26 q 671 149 639 100 l 635 171 q 535 66 593 106 q 390 26 478 26 q 258 56 313 26 q 175 139 204 86 q 146 258 146 192 m 469 956 q 460 978 469 969 q 436 988 450 988 q 413 978 424 988 q 403 956 403 969 q 413 932 403 942 q 436 922 424 922 q 460 932 450 922 q 469 956 469 942 z "},"/":{"ha":676,"x_min":21,"x_max":656,"o":"m 611 972 l 21 -208 l 65 -208 l 656 972 l 611 972 z "},"\\":{"ha":636,"x_min":21,"x_max":615,"o":"m 21 972 l 568 0 l 615 0 l 68 972 l 21 972 z "},"⁄":{"ha":979,"x_min":83,"x_max":896,"o":"m 857 972 l 83 0 l 122 0 l 896 972 l 857 972 z "},"|":{"ha":318,"x_min":139,"x_max":179,"o":"m 139 1090 l 139 -299 l 179 -299 l 179 1090 l 139 1090 z "},"¦":{"ha":318,"x_min":139,"x_max":179,"o":"m 139 965 l 139 632 l 179 632 l 179 965 l 139 965 m 179 340 l 139 340 l 139 7 l 179 7 l 179 340 z "},"@":{"ha":1069,"x_min":49,"x_max":1021,"o":"m 321 444 q 351 582 321 526 q 428 666 381 638 q 525 694 475 694 q 602 669 569 694 q 653 603 635 644 q 671 514 671 563 q 643 384 671 440 q 571 296 615 328 q 474 264 526 264 q 363 314 406 264 q 321 444 321 364 m 279 443 q 304 326 279 375 q 373 251 329 276 q 467 225 417 225 q 581 263 529 225 q 663 365 632 300 q 694 511 694 429 q 674 622 694 571 q 617 703 654 672 q 525 735 579 735 q 410 702 467 735 q 316 605 353 669 q 279 443 279 540 m 49 444 q 101 204 49 307 q 253 44 153 101 q 497 -12 353 -12 q 695 13 617 -12 q 836 71 774 38 l 817 103 q 678 47 757 69 q 497 25 599 25 q 278 76 369 25 q 137 222 186 128 q 88 444 88 317 q 123 644 88 551 q 223 803 158 736 q 378 909 288 871 q 576 947 468 947 q 751 913 675 947 q 878 821 826 879 q 956 690 929 763 q 982 542 982 618 q 948 379 982 444 q 866 281 914 314 q 776 249 818 249 q 724 266 742 249 q 700 309 706 283 q 694 356 694 335 q 695 379 694 364 q 697 401 696 394 l 754 722 l 713 722 l 658 394 l 663 394 q 665 297 654 339 q 703 233 675 256 q 772 210 731 210 q 854 230 811 210 q 935 290 897 250 q 997 393 974 331 q 1021 542 1021 456 q 992 703 1021 625 q 906 846 964 782 q 767 947 849 910 q 576 985 685 985 q 363 943 460 985 q 196 828 267 901 q 87 656 125 754 q 49 444 49 558 z "},"&":{"ha":938,"x_min":56,"x_max":871,"o":"m 271 575 l 775 0 l 828 0 l 303 600 q 238 683 269 640 q 207 792 207 726 q 251 903 207 857 q 381 949 294 949 q 472 924 436 949 q 524 864 507 900 q 542 789 542 828 q 492 676 542 731 q 353 569 442 622 q 287 534 325 553 q 208 490 249 515 q 133 431 168 465 q 77 351 99 397 q 56 244 56 306 q 96 104 56 163 q 203 16 136 46 q 349 -14 269 -14 q 515 26 442 -14 q 649 129 589 65 q 762 269 708 193 q 871 418 815 346 l 838 439 q 733 294 785 367 q 624 160 681 221 q 500 63 567 100 q 350 26 433 26 q 224 51 281 26 q 133 126 167 76 q 100 246 100 176 q 129 360 100 314 q 203 439 158 407 q 296 496 247 471 q 382 543 344 521 q 468 601 431 572 q 531 660 506 631 q 571 722 557 690 q 585 789 585 754 q 562 883 585 838 q 494 958 539 928 q 381 988 449 988 q 263 962 311 988 q 188 892 214 936 q 163 792 163 847 q 180 702 163 742 q 223 632 197 663 q 271 575 249 601 z "}}}
